<svg xmlns="http://www.w3.org/2000/svg" xmlns:xlink="http://www.w3.org/1999/xlink" viewBox="0 0 471.47 373.41"><rect width="471.22" height="285" x=".125" y=".125" fill="#62605f" rx="3"/><path fill="#353535" d="M468.35 285.248H3.13a3.13 3.13 0 0 1-3.125-3.125v-279A3.13 3.13 0 0 1 3.13-.002h465.22a3.13 3.13 0 0 1 3.125 3.125v279a3.13 3.13 0 0 1-3.125 3.125M3.13.248A2.88 2.88 0 0 0 .255 3.123v279a2.88 2.88 0 0 0 2.875 2.875h465.22a2.88 2.88 0 0 0 2.875-2.875v-279A2.88 2.88 0 0 0 468.35.248z"/><rect width="461.22" height="275" x="5.125" y="5.125" fill="#777576" rx="3"/><path fill="#353535" d="M463.35 280.248H8.13a3.13 3.13 0 0 1-3.125-3.125v-269A3.13 3.13 0 0 1 8.13 4.998h455.22a3.13 3.13 0 0 1 3.125 3.125v269a3.13 3.13 0 0 1-3.125 3.125M8.13 5.248a2.88 2.88 0 0 0-2.875 2.875v269a2.88 2.88 0 0 0 2.875 2.875h455.22a2.88 2.88 0 0 0 2.875-2.875v-269a2.88 2.88 0 0 0-2.875-2.875z"/><g fill="#369"><path d="M82.98 145.288v-3.087c0-.462.24-.89.634-1.132l4.13-2.531c.209-.128.449-.196.693-.196h4.568c.356 0 .698-.143.948-.398l5.064-5.164c.243-.248.38-.582.38-.929V28.673a2.17 2.17 0 0 0-2.167-2.167H29.355c-1.197 0-2.167.97-2.167 2.167v103.18c0 .347.136.681.38.929l5.064 5.164c.25.255.591.398.948.398h4.568c.245 0 .485.068.693.196l4.131 2.531c.394.241.634.67.634 1.132v3.087z"/><use xlink:href="#a"/></g><path fill="#a0a0a0" d="m102.48 164.088-16.12-16.44a1.32 1.32 0 0 1-.38-.92v-1.52c0-.463.243-.892.64-1.13l4.13-2.54a1.35 1.35 0 0 1 .69-.19h4.57c.358 0 .7-.144.95-.4l5.06-5.16c.242-.249.378-.583.38-.93V24.678a2.167 2.167 0 0 0-2.17-2.16H26.36a2.167 2.167 0 0 0-2.17 2.16v110.18c.002.347.138.681.38.93l5.06 5.16a1.3 1.3 0 0 0 .95.4h4.57c.243.003.48.068.69.19l4.13 2.54c.397.238.64.667.64 1.13v1.52a1.32 1.32 0 0 1-.38.92l-16.12 16.44a1.35 1.35 0 0 0-.38.93v73c.005 13.897 11.273 25.161 25.17 25.16h28.79c13.897.001 25.165-11.263 25.17-25.16v-73a1.35 1.35 0 0 0-.38-.93m-2.62 70.93c-.005 13.897-11.273 25.161-25.17 25.16H51.9c-13.897.001-25.165-11.263-25.17-25.16v-68c.002-.347.138-.681.38-.93l16.12-16.44a1.32 1.32 0 0 0 .38-.92v-6.52c0-.463-.243-.892-.64-1.13l-4.13-2.54a1.4 1.4 0 0 0-.69-.19h-4.57a1.3 1.3 0 0 1-.95-.4l-5.06-5.16a1.35 1.35 0 0 1-.38-.93V28.678a2.167 2.167 0 0 1 2.17-2.16h67.87a2.167 2.167 0 0 1 2.17 2.16v103.18a1.35 1.35 0 0 1-.38.93l-5.06 5.16c-.25.256-.592.4-.95.4h-4.57a1.35 1.35 0 0 0-.69.19l-4.13 2.54c-.397.238-.64.667-.64 1.13v6.52a1.32 1.32 0 0 0 .38.92l16.12 16.44c.242.249.378.583.38.93z"/><path fill="#353535" d="M77.69 263.678H48.9c-14.168-.013-25.651-11.492-25.67-25.66v-73a1.84 1.84 0 0 1 .519-1.276l16.124-16.444a.82.82 0 0 0 .237-.57v-1.52a.82.82 0 0 0-.397-.701l-4.134-2.543a.9.9 0 0 0-.429-.116h-4.57a1.8 1.8 0 0 1-1.31-.553l-5.056-5.157a1.84 1.84 0 0 1-.523-1.28V24.678a2.67 2.67 0 0 1 2.67-2.66h73.87a2.67 2.67 0 0 1 2.67 2.66v110.18a1.84 1.84 0 0 1-.52 1.277l-5.063 5.164a1.82 1.82 0 0 1-1.307.55h-4.57a.85.85 0 0 0-.433.119l-4.125 2.537a.83.83 0 0 0-.402.704v1.52a.82.82 0 0 0 .233.566l16.127 16.447a1.84 1.84 0 0 1 .52 1.277v73c-.019 14.168-11.502 25.647-25.67 25.66zM26.36 23.018a1.667 1.667 0 0 0-1.67 1.66v110.18a.84.84 0 0 0 .241.584l5.056 5.156a.8.8 0 0 0 .593.25h4.57a1.9 1.9 0 0 1 .938.256l4.144 2.548c.544.33.877.919.878 1.556v1.52a1.8 1.8 0 0 1-.527 1.274l-16.116 16.436a.84.84 0 0 0-.237.58v73c.018 13.616 11.054 24.647 24.67 24.66h28.79c13.616-.013 24.652-11.044 24.67-24.66v-73a.84.84 0 0 0-.239-.583l-16.118-16.438a1.8 1.8 0 0 1-.523-1.27v-1.52a1.83 1.83 0 0 1 .883-1.559l4.125-2.537a1.84 1.84 0 0 1 .952-.264h4.57a.82.82 0 0 0 .589-.247l5.063-5.164a.84.84 0 0 0 .237-.58V24.677a1.67 1.67 0 0 0-1.67-1.66zm48.33 237.66H51.9c-14.168-.013-25.651-11.492-25.67-25.66v-68a1.84 1.84 0 0 1 .519-1.276l16.124-16.444a.82.82 0 0 0 .237-.57v-6.52a.82.82 0 0 0-.397-.701l-4.134-2.543a.9.9 0 0 0-.429-.116h-4.57a1.8 1.8 0 0 1-1.31-.553l-5.056-5.157a1.84 1.84 0 0 1-.523-1.28V28.678a2.67 2.67 0 0 1 2.67-2.66h67.87a2.67 2.67 0 0 1 2.67 2.66v103.18a1.84 1.84 0 0 1-.52 1.277l-5.063 5.164a1.82 1.82 0 0 1-1.307.55h-4.57a.85.85 0 0 0-.433.119l-4.125 2.537a.83.83 0 0 0-.402.704v6.52a.82.82 0 0 0 .233.566l16.124 16.443a1.84 1.84 0 0 1 .523 1.28v68c-.019 14.168-11.502 25.647-25.67 25.66zM29.36 27.018a1.667 1.667 0 0 0-1.67 1.66v103.18a.84.84 0 0 0 .241.584l5.056 5.156a.8.8 0 0 0 .593.25h4.57a1.9 1.9 0 0 1 .938.256l4.144 2.548c.544.33.877.919.878 1.556v6.52a1.8 1.8 0 0 1-.527 1.274l-16.116 16.436a.84.84 0 0 0-.237.58v68c.018 13.616 11.054 24.647 24.67 24.66h22.79c13.616-.013 24.652-11.044 24.67-24.66v-68a.84.84 0 0 0-.24-.583l-16.117-16.437a1.8 1.8 0 0 1-.523-1.27v-6.52a1.83 1.83 0 0 1 .883-1.559l4.125-2.537a1.84 1.84 0 0 1 .952-.264h4.57a.82.82 0 0 0 .589-.247l5.064-5.164a.84.84 0 0 0 .237-.58V28.677a1.67 1.67 0 0 0-1.67-1.66z"/><g fill="#063"><path d="M169.2 145.288v-3.087c0-.462.24-.89.634-1.132l4.13-2.531c.209-.128.449-.196.693-.196h4.569c.356 0 .698-.143.948-.398l5.064-5.164c.243-.248.38-.582.38-.929V28.673a2.17 2.17 0 0 0-2.167-2.167h-67.875a2.17 2.17 0 0 0-2.167 2.167v103.18c0 .347.136.681.38.929l5.064 5.164c.25.255.591.398.948.398h4.569c.245 0 .485.068.693.196l4.131 2.531c.394.241.634.67.634 1.132v3.087z"/><path d="M129.83 145.128v3.603a1.32 1.32 0 0 1-.38.92l-16.12 16.44a1.35 1.35 0 0 0-.38.93v68c.005 13.897 11.273 25.161 25.17 25.16h22.79c13.897.001 25.165-11.263 25.17-25.16v-68a1.34 1.34 0 0 0-.38-.93l-16.12-16.44a1.32 1.32 0 0 1-.38-.92v-3.603z"/></g><path fill="#a0a0a0" d="m188.7 164.088-16.12-16.44a1.32 1.32 0 0 1-.38-.92v-1.52c0-.463.243-.892.64-1.13l4.13-2.54a1.35 1.35 0 0 1 .69-.19h4.57c.358 0 .7-.144.95-.4l5.06-5.16c.242-.249.378-.583.38-.93V24.678a2.167 2.167 0 0 0-2.17-2.16h-73.87a2.167 2.167 0 0 0-2.17 2.16v110.18c.002.347.138.681.38.93l5.06 5.16a1.3 1.3 0 0 0 .95.4h4.57c.243.003.48.068.69.19l4.13 2.54c.397.238.64.667.64 1.13v1.52a1.32 1.32 0 0 1-.38.92l-16.12 16.44a1.35 1.35 0 0 0-.38.93v73c.005 13.897 11.273 25.161 25.17 25.16h28.79c13.897.001 25.165-11.263 25.17-25.16v-73a1.34 1.34 0 0 0-.38-.93m-2.62 70.93c-.005 13.897-11.273 25.161-25.17 25.16h-22.79c-13.897.001-25.165-11.263-25.17-25.16v-68c.002-.347.138-.681.38-.93l16.12-16.44a1.32 1.32 0 0 0 .38-.92v-6.52c0-.463-.243-.892-.64-1.13l-4.13-2.54a1.4 1.4 0 0 0-.69-.19h-4.57a1.3 1.3 0 0 1-.95-.4l-5.06-5.16a1.35 1.35 0 0 1-.38-.93V28.678a2.167 2.167 0 0 1 2.17-2.16h67.87a2.167 2.167 0 0 1 2.17 2.16v103.18a1.35 1.35 0 0 1-.38.93l-5.06 5.16c-.25.256-.592.4-.95.4h-4.57a1.35 1.35 0 0 0-.69.19l-4.13 2.54c-.397.238-.64.667-.64 1.13v6.52a1.32 1.32 0 0 0 .38.92l16.12 16.44a1.34 1.34 0 0 1 .38.93z"/><path fill="#353535" d="M163.91 263.678h-28.79c-14.168-.013-25.651-11.492-25.67-25.66v-73c.001-.477.187-.935.52-1.277l16.123-16.443a.82.82 0 0 0 .237-.57v-1.52a.82.82 0 0 0-.397-.701l-4.134-2.543a.9.9 0 0 0-.428-.116h-4.57a1.8 1.8 0 0 1-1.31-.553l-5.057-5.157a1.84 1.84 0 0 1-.523-1.28V24.678a2.67 2.67 0 0 1 2.67-2.66h73.87a2.67 2.67 0 0 1 2.67 2.66v110.18a1.84 1.84 0 0 1-.52 1.277l-5.064 5.164a1.82 1.82 0 0 1-1.307.55h-4.57a.85.85 0 0 0-.433.119l-4.125 2.537a.83.83 0 0 0-.402.704v1.52a.82.82 0 0 0 .233.566l16.127 16.447c.333.342.519.8.52 1.277v73c-.019 14.168-11.502 25.647-25.67 25.66zm-51.33-240.66a1.67 1.67 0 0 0-1.67 1.66v110.18a.84.84 0 0 0 .241.584l5.057 5.156a.8.8 0 0 0 .593.25h4.57c.33.002.653.09.938.256l4.143 2.548c.544.33.877.919.878 1.556v1.52a1.8 1.8 0 0 1-.527 1.274l-16.116 16.436a.84.84 0 0 0-.237.58v73c.018 13.616 11.054 24.647 24.67 24.66h28.79c13.616-.013 24.652-11.044 24.67-24.66v-73a.84.84 0 0 0-.241-.583l-16.116-16.437a1.8 1.8 0 0 1-.523-1.27v-1.52a1.83 1.83 0 0 1 .883-1.559l4.125-2.537a1.84 1.84 0 0 1 .952-.264h4.57a.82.82 0 0 0 .589-.247l5.063-5.164a.84.84 0 0 0 .237-.58V24.677a1.67 1.67 0 0 0-1.67-1.66zm48.33 237.66h-22.79c-14.168-.013-25.651-11.492-25.67-25.66v-68c.001-.477.187-.935.52-1.277l16.123-16.443a.82.82 0 0 0 .237-.57v-6.52a.82.82 0 0 0-.397-.701l-4.134-2.543a.9.9 0 0 0-.428-.116h-4.57a1.8 1.8 0 0 1-1.31-.553l-5.057-5.157a1.84 1.84 0 0 1-.523-1.28V28.678a2.67 2.67 0 0 1 2.67-2.66h67.87a2.67 2.67 0 0 1 2.67 2.66v103.18a1.84 1.84 0 0 1-.52 1.277l-5.064 5.164a1.82 1.82 0 0 1-1.307.55h-4.57a.85.85 0 0 0-.433.119l-4.125 2.537a.83.83 0 0 0-.402.704v6.52a.82.82 0 0 0 .233.566l16.124 16.444a1.84 1.84 0 0 1 .523 1.28v68c-.019 14.168-11.502 25.647-25.67 25.66zm-45.33-233.66a1.67 1.67 0 0 0-1.67 1.66v103.18a.84.84 0 0 0 .241.584l5.057 5.156a.8.8 0 0 0 .593.25h4.57c.33.002.653.09.938.256l4.143 2.548c.544.33.877.919.878 1.556v6.52a1.8 1.8 0 0 1-.527 1.274l-16.116 16.436a.84.84 0 0 0-.237.58v68c.018 13.616 11.054 24.647 24.67 24.66h22.79c13.616-.013 24.652-11.044 24.67-24.66v-68a.84.84 0 0 0-.241-.583l-16.116-16.437a1.8 1.8 0 0 1-.523-1.27v-6.52a1.83 1.83 0 0 1 .883-1.559l4.125-2.537a1.84 1.84 0 0 1 .952-.264h4.57a.82.82 0 0 0 .589-.247l5.063-5.164a.84.84 0 0 0 .237-.58V28.677a1.67 1.67 0 0 0-1.67-1.66z"/><g fill="#c63"><path d="M255.43 145.288v-3.087c0-.462.24-.89.634-1.132l4.13-2.531c.209-.128.449-.196.693-.196h4.568c.356 0 .698-.143.948-.398l5.064-5.164c.243-.248.38-.582.38-.929V28.673a2.17 2.17 0 0 0-2.167-2.167h-67.875a2.17 2.17 0 0 0-2.167 2.167v103.18c0 .347.136.681.38.929l5.064 5.164c.25.254.591.398.948.398h4.568c.245 0 .485.068.693.196l4.131 2.531c.394.241.634.67.634 1.132v3.087z"/><use xlink:href="#a" x="172.44"/></g><path fill="#a0a0a0" d="m274.92 164.088-16.12-16.44a1.32 1.32 0 0 1-.38-.92v-1.52c0-.463.243-.892.64-1.13l4.13-2.54a1.35 1.35 0 0 1 .69-.19h4.57c.358 0 .7-.144.95-.4l5.06-5.16c.242-.249.378-.583.38-.93V24.678a2.167 2.167 0 0 0-2.17-2.16H198.8a2.167 2.167 0 0 0-2.17 2.16v110.18c.002.347.138.681.38.93l5.06 5.16a1.3 1.3 0 0 0 .95.4h4.57c.243.003.48.068.69.19l4.13 2.54c.397.238.64.667.64 1.13v1.52a1.32 1.32 0 0 1-.38.92l-16.12 16.44a1.35 1.35 0 0 0-.38.93v73c.005 13.897 11.273 25.161 25.17 25.16h28.79c13.897.001 25.165-11.263 25.17-25.16v-73a1.35 1.35 0 0 0-.38-.93m-2.62 70.93c-.005 13.897-11.273 25.161-25.17 25.16h-22.79c-13.897.001-25.165-11.263-25.17-25.16v-68c.002-.347.138-.681.38-.93l16.12-16.44a1.32 1.32 0 0 0 .38-.92v-6.52c0-.463-.243-.892-.64-1.13l-4.13-2.54a1.4 1.4 0 0 0-.69-.19h-4.57a1.3 1.3 0 0 1-.95-.4l-5.06-5.16a1.35 1.35 0 0 1-.38-.93V28.678a2.167 2.167 0 0 1 2.17-2.16h67.87a2.167 2.167 0 0 1 2.17 2.16v103.18a1.35 1.35 0 0 1-.38.93l-5.06 5.16c-.25.256-.592.4-.95.4h-4.57a1.35 1.35 0 0 0-.69.19l-4.13 2.54c-.397.238-.64.667-.64 1.13v6.52a1.32 1.32 0 0 0 .38.92l16.12 16.44c.242.249.378.583.38.93z"/><path fill="#353535" d="M250.14 263.678h-28.79c-14.168-.013-25.651-11.492-25.67-25.66v-73c.001-.477.187-.935.52-1.277l16.123-16.443a.82.82 0 0 0 .237-.57v-1.52a.82.82 0 0 0-.397-.701l-4.134-2.543a.9.9 0 0 0-.428-.116h-4.57a1.8 1.8 0 0 1-1.31-.553l-5.057-5.157a1.84 1.84 0 0 1-.523-1.28V24.678a2.67 2.67 0 0 1 2.67-2.66h73.87a2.67 2.67 0 0 1 2.67 2.66v110.18a1.84 1.84 0 0 1-.519 1.276l-5.064 5.165c-.344.352-.815.55-1.308.55h-4.569a.85.85 0 0 0-.434.119l-4.125 2.537a.82.82 0 0 0-.401.704v1.52a.82.82 0 0 0 .233.566l16.128 16.448c.331.342.517.8.519 1.276v73c-.019 14.168-11.502 25.647-25.67 25.66zm-51.33-240.66a1.67 1.67 0 0 0-1.67 1.66v110.18a.84.84 0 0 0 .241.584l5.057 5.156a.8.8 0 0 0 .593.25h4.57c.33.002.653.09.938.256l4.144 2.548c.544.33.877.919.878 1.556v1.52a1.8 1.8 0 0 1-.527 1.274l-16.116 16.436a.84.84 0 0 0-.237.58v73c.018 13.616 11.054 24.647 24.67 24.66h28.79c13.616-.013 24.652-11.044 24.67-24.66v-73a.85.85 0 0 0-.238-.582l-16.119-16.438a1.8 1.8 0 0 1-.522-1.27v-1.52a1.82 1.82 0 0 1 .883-1.559l4.125-2.537c.287-.173.617-.264.952-.264h4.569a.82.82 0 0 0 .59-.247l5.063-5.164a.84.84 0 0 0 .237-.58V24.678a1.67 1.67 0 0 0-1.67-1.66zm48.33 237.66h-22.79c-14.168-.013-25.651-11.492-25.67-25.66v-68c.001-.477.187-.935.52-1.277l16.123-16.443a.82.82 0 0 0 .237-.57v-6.52a.82.82 0 0 0-.397-.701l-4.134-2.543a.9.9 0 0 0-.428-.116h-4.57a1.8 1.8 0 0 1-1.31-.553l-5.057-5.157a1.84 1.84 0 0 1-.523-1.28V28.678a2.67 2.67 0 0 1 2.67-2.66h67.87a2.67 2.67 0 0 1 2.67 2.66v103.18a1.84 1.84 0 0 1-.519 1.276l-5.064 5.165c-.344.352-.815.55-1.308.55h-4.569a.85.85 0 0 0-.434.119l-4.125 2.537a.82.82 0 0 0-.401.704v6.52a.82.82 0 0 0 .233.566l16.124 16.444a1.85 1.85 0 0 1 .522 1.28v68c-.019 14.168-11.502 25.647-25.67 25.66zm-45.33-233.66a1.67 1.67 0 0 0-1.67 1.66v103.18a.84.84 0 0 0 .241.584l5.057 5.156a.8.8 0 0 0 .593.25h4.57c.33.002.653.09.938.256l4.144 2.548c.544.33.877.919.878 1.556v6.52a1.8 1.8 0 0 1-.527 1.274l-16.116 16.436a.84.84 0 0 0-.237.58v68c.018 13.616 11.054 24.647 24.67 24.66h22.79c13.616-.013 24.652-11.044 24.67-24.66v-68a.84.84 0 0 0-.241-.584l-16.116-16.436a1.8 1.8 0 0 1-.522-1.27v-6.52a1.82 1.82 0 0 1 .883-1.559l4.125-2.537c.287-.173.617-.264.952-.264h4.569a.82.82 0 0 0 .59-.247l5.063-5.164a.84.84 0 0 0 .237-.58V28.677a1.67 1.67 0 0 0-1.67-1.66z"/><use xlink:href="#b" fill="#c63"/><use xlink:href="#a" x="258.67" fill="#338b99"/><path fill="#a0a0a0" d="m361.15 164.088-16.12-16.44a1.32 1.32 0 0 1-.38-.92v-1.52c0-.463.243-.892.64-1.13l4.13-2.54a1.35 1.35 0 0 1 .69-.19h4.57c.358 0 .7-.144.95-.4l5.06-5.16c.242-.249.378-.583.38-.93V24.678a2.167 2.167 0 0 0-2.17-2.16h-73.87a2.167 2.167 0 0 0-2.17 2.16v110.18c.002.347.138.681.38.93l5.06 5.16a1.3 1.3 0 0 0 .95.4h4.57c.243.003.48.068.69.19l4.13 2.54c.397.238.64.667.64 1.13v1.52a1.32 1.32 0 0 1-.38.92l-16.12 16.44a1.35 1.35 0 0 0-.38.93v73c.005 13.897 11.273 25.161 25.17 25.16h28.79c13.897.001 25.165-11.263 25.17-25.16v-73a1.35 1.35 0 0 0-.38-.93m-2.62 70.93c-.005 13.897-11.273 25.161-25.17 25.16h-22.79c-13.897.001-25.165-11.263-25.17-25.16v-68c.002-.347.138-.681.38-.93l16.12-16.44a1.32 1.32 0 0 0 .38-.92v-6.52c0-.463-.243-.892-.64-1.13l-4.13-2.54a1.4 1.4 0 0 0-.69-.19h-4.57a1.3 1.3 0 0 1-.95-.4l-5.06-5.16a1.35 1.35 0 0 1-.38-.93V28.678a2.167 2.167 0 0 1 2.17-2.16h67.87a2.167 2.167 0 0 1 2.17 2.16v103.18a1.35 1.35 0 0 1-.38.93l-5.06 5.16c-.25.256-.592.4-.95.4h-4.57a1.35 1.35 0 0 0-.69.19l-4.13 2.54c-.397.238-.64.667-.64 1.13v6.52a1.32 1.32 0 0 0 .38.92l16.12 16.44c.242.249.378.583.38.93z"/><path fill="#353535" d="M336.36 263.678h-28.79c-14.168-.013-25.651-11.492-25.67-25.66v-73c.001-.476.187-.934.519-1.276l16.124-16.444a.8.8 0 0 0 .237-.57v-1.52a.82.82 0 0 0-.396-.701l-4.135-2.544a.9.9 0 0 0-.429-.116h-4.569a1.8 1.8 0 0 1-1.311-.553l-5.058-5.157a1.85 1.85 0 0 1-.522-1.28V24.678a2.67 2.67 0 0 1 2.67-2.66h73.87a2.67 2.67 0 0 1 2.67 2.66v110.18a1.84 1.84 0 0 1-.52 1.277l-5.062 5.164c-.344.352-.815.55-1.308.55h-4.57a.85.85 0 0 0-.433.119l-4.125 2.537a.82.82 0 0 0-.402.704v1.52a.82.82 0 0 0 .233.567l16.127 16.446a1.84 1.84 0 0 1 .52 1.277v73c-.019 14.168-11.502 25.647-25.67 25.66zm-51.33-240.66a1.667 1.667 0 0 0-1.67 1.66v110.18a.84.84 0 0 0 .241.584l5.057 5.156a.8.8 0 0 0 .593.25h4.569c.33.002.653.09.938.256l4.144 2.548a1.82 1.82 0 0 1 .878 1.556v1.52c-.001.477-.19.935-.526 1.274l-16.116 16.436a.84.84 0 0 0-.237.58v73c.018 13.616 11.054 24.647 24.67 24.66h28.79c13.616-.013 24.652-11.044 24.67-24.66v-73a.85.85 0 0 0-.238-.582l-16.119-16.439a1.8 1.8 0 0 1-.522-1.27v-1.52c.002-.638.337-1.23.884-1.559l4.125-2.537a1.84 1.84 0 0 1 .951-.264h4.57a.82.82 0 0 0 .59-.247l5.063-5.164a.83.83 0 0 0 .237-.58V24.677a1.67 1.67 0 0 0-1.67-1.66zm48.33 237.66h-22.79c-14.168-.013-25.651-11.492-25.67-25.66v-68c.001-.476.187-.934.519-1.276l16.124-16.444a.8.8 0 0 0 .237-.57v-6.52a.82.82 0 0 0-.396-.701l-4.135-2.544a.9.9 0 0 0-.429-.116h-4.569a1.8 1.8 0 0 1-1.311-.553l-5.058-5.157a1.85 1.85 0 0 1-.522-1.28V28.678a2.67 2.67 0 0 1 2.67-2.66h67.87a2.67 2.67 0 0 1 2.67 2.66v103.18a1.84 1.84 0 0 1-.52 1.277l-5.062 5.164c-.344.352-.815.55-1.308.55h-4.57a.85.85 0 0 0-.433.119l-4.125 2.537a.82.82 0 0 0-.402.704v6.52a.82.82 0 0 0 .233.567l16.124 16.443a1.84 1.84 0 0 1 .522 1.28v68c-.019 14.168-11.502 25.647-25.67 25.66zm-45.33-233.66a1.667 1.667 0 0 0-1.67 1.66v103.18a.84.84 0 0 0 .241.584l5.057 5.156a.8.8 0 0 0 .593.25h4.569c.33.002.653.09.938.256l4.144 2.548a1.82 1.82 0 0 1 .878 1.556v6.52c-.001.477-.19.935-.526 1.274l-16.116 16.436a.84.84 0 0 0-.237.58v68c.018 13.616 11.054 24.647 24.67 24.66h22.79c13.616-.013 24.652-11.044 24.67-24.66v-68a.84.84 0 0 0-.24-.583l-16.117-16.437a1.8 1.8 0 0 1-.522-1.27v-6.52c.002-.638.337-1.23.884-1.559l4.125-2.537a1.84 1.84 0 0 1 .951-.264h4.57a.82.82 0 0 0 .59-.247l5.063-5.164a.83.83 0 0 0 .237-.58V28.677a1.67 1.67 0 0 0-1.67-1.66z"/><g fill="#5ab860"><use xlink:href="#b" x="86.22"/><path d="M388.5 145.128v3.603a1.32 1.32 0 0 1-.38.92L372 166.091a1.35 1.35 0 0 0-.38.93v68c.005 13.897 11.273 25.161 25.17 25.16h22.79c13.897.001 25.165-11.263 25.17-25.16v-68a1.35 1.35 0 0 0-.38-.93l-16.12-16.44a1.32 1.32 0 0 1-.38-.92v-3.603z"/></g><path fill="#a0a0a0" d="m447.37 164.088-16.12-16.44a1.32 1.32 0 0 1-.38-.92v-1.52c0-.463.243-.892.64-1.13l4.13-2.54a1.35 1.35 0 0 1 .69-.19h4.57c.358 0 .7-.144.95-.4l5.06-5.16c.242-.249.378-.583.38-.93V24.678a2.167 2.167 0 0 0-2.17-2.16h-73.87a2.167 2.167 0 0 0-2.17 2.16v110.18c.002.347.138.681.38.93l5.06 5.16a1.3 1.3 0 0 0 .95.4h4.57c.243.003.48.068.69.19l4.13 2.54c.397.238.64.667.64 1.13v1.52a1.32 1.32 0 0 1-.38.92L369 164.088a1.35 1.35 0 0 0-.38.93v73c.005 13.897 11.273 25.161 25.17 25.16h28.79c13.897.001 25.165-11.263 25.17-25.16v-73a1.35 1.35 0 0 0-.38-.93m-2.62 70.93c-.005 13.897-11.273 25.161-25.17 25.16h-22.79c-13.897.001-25.165-11.263-25.17-25.16v-68c.002-.347.138-.681.38-.93l16.12-16.44a1.32 1.32 0 0 0 .38-.92v-6.52c0-.463-.243-.892-.64-1.13l-4.13-2.54a1.4 1.4 0 0 0-.69-.19h-4.57a1.3 1.3 0 0 1-.95-.4l-5.06-5.16a1.35 1.35 0 0 1-.38-.93V28.678a2.167 2.167 0 0 1 2.17-2.16h67.87a2.167 2.167 0 0 1 2.17 2.16v103.18a1.35 1.35 0 0 1-.38.93l-5.06 5.16c-.25.256-.592.4-.95.4h-4.57a1.35 1.35 0 0 0-.69.19l-4.13 2.54c-.397.238-.64.667-.64 1.13v6.52a1.32 1.32 0 0 0 .38.92l16.12 16.44c.242.249.378.583.38.93z"/><path fill="#353535" d="M422.58 263.678h-28.79c-14.168-.013-25.651-11.492-25.67-25.66v-73a1.84 1.84 0 0 1 .52-1.277l16.123-16.443a.8.8 0 0 0 .237-.57v-1.52a.82.82 0 0 0-.396-.701l-4.136-2.543a.9.9 0 0 0-.428-.116h-4.57a1.8 1.8 0 0 1-1.311-.553l-5.057-5.157a1.84 1.84 0 0 1-.522-1.28V24.678a2.67 2.67 0 0 1 2.67-2.66h73.87a2.67 2.67 0 0 1 2.67 2.66v110.18a1.84 1.84 0 0 1-.52 1.277l-5.063 5.164c-.344.352-.815.55-1.307.55h-4.57a.85.85 0 0 0-.434.119l-4.125 2.537a.82.82 0 0 0-.401.704v1.52a.8.8 0 0 0 .233.566l16.127 16.447a1.84 1.84 0 0 1 .52 1.277v73c-.019 14.168-11.502 25.647-25.67 25.66zm-51.33-240.66a1.667 1.667 0 0 0-1.67 1.66v110.18a.84.84 0 0 0 .24.584l5.057 5.156a.8.8 0 0 0 .593.25h4.57c.329.002.653.09.938.256l4.144 2.548c.544.33.877.919.878 1.556v1.52c-.001.477-.19.935-.526 1.274l-16.116 16.436a.83.83 0 0 0-.237.58v73c.018 13.616 11.054 24.647 24.67 24.66h28.79c13.616-.013 24.652-11.044 24.67-24.66v-73a.85.85 0 0 0-.238-.582l-16.119-16.439a1.8 1.8 0 0 1-.522-1.27v-1.52a1.83 1.83 0 0 1 .883-1.559l4.125-2.537c.287-.173.617-.264.952-.264h4.57a.82.82 0 0 0 .589-.247l5.063-5.164a.83.83 0 0 0 .237-.58V24.677a1.67 1.67 0 0 0-1.67-1.66zm48.33 237.66h-22.79c-14.168-.013-25.651-11.492-25.67-25.66v-68a1.84 1.84 0 0 1 .52-1.277l16.123-16.443a.8.8 0 0 0 .237-.57v-6.52a.82.82 0 0 0-.396-.701l-4.136-2.543a.9.9 0 0 0-.428-.116h-4.57a1.8 1.8 0 0 1-1.311-.553l-5.057-5.157a1.84 1.84 0 0 1-.522-1.28V28.678a2.67 2.67 0 0 1 2.67-2.66h67.87a2.67 2.67 0 0 1 2.67 2.66v103.18a1.84 1.84 0 0 1-.52 1.277l-5.063 5.164c-.344.352-.815.55-1.307.55h-4.57a.85.85 0 0 0-.434.119l-4.125 2.537a.82.82 0 0 0-.401.704v6.52a.8.8 0 0 0 .233.566l16.124 16.444a1.84 1.84 0 0 1 .522 1.28v68c-.019 14.168-11.502 25.647-25.67 25.66zm-45.33-233.66a1.667 1.667 0 0 0-1.67 1.66v103.18a.84.84 0 0 0 .24.584l5.057 5.156a.8.8 0 0 0 .593.25h4.57c.329.002.653.09.938.256l4.144 2.548c.544.33.877.919.878 1.556v6.52c-.001.477-.19.935-.526 1.274l-16.116 16.436a.83.83 0 0 0-.237.58v68c.018 13.616 11.054 24.647 24.67 24.66h22.79c13.616-.013 24.652-11.044 24.67-24.66v-68a.84.84 0 0 0-.24-.583l-16.117-16.437a1.8 1.8 0 0 1-.522-1.27v-6.52a1.83 1.83 0 0 1 .883-1.559l4.125-2.537c.287-.173.617-.264.952-.264h4.57a.82.82 0 0 0 .589-.247l5.063-5.164a.83.83 0 0 0 .237-.58V28.677a1.67 1.67 0 0 0-1.67-1.66z"/><path fill="#fff" d="M65.93 107.048h-2.679V77.936q0-3.963.328-8.227-.41.409-.847.792-.438.383-8.447 6.643l-1.558-1.941 10.852-8.119h2.351zm95.68 0h-25.012v-2.405l10.633-11.098a78 78 0 0 0 6.287-7.107 20 20 0 0 0 2.651-4.702 13.2 13.2 0 0 0 .848-4.702 7.68 7.68 0 0 0-2.351-5.822 8.47 8.47 0 0 0-6.096-2.242 15.15 15.15 0 0 0-9.567 3.636l-1.476-1.886a16.83 16.83 0 0 1 11.098-4.209q5.221 0 8.214 2.788a10 10 0 0 1 2.993 7.681 15.9 15.9 0 0 1-2.009 7.667 45 45 0 0 1-7.339 9.144l-10.25 10.524v.109h21.376zm84.88-30.56a8.9 8.9 0 0 1-2.337 6.26 10.85 10.85 0 0 1-6.273 3.253v.164a12.36 12.36 0 0 1 7.326 3.061 8.83 8.83 0 0 1 2.515 6.615 10.51 10.51 0 0 1-3.814 8.679q-3.813 3.075-10.975 3.075a23.5 23.5 0 0 1-10.633-2.269v-2.706a22.2 22.2 0 0 0 5.153 1.886 23 23 0 0 0 5.371.683q6.041 0 9.075-2.446a8.36 8.36 0 0 0 3.034-6.902 6.95 6.95 0 0 0-3.102-6.096q-3.103-2.132-9.116-2.132h-4.319v-2.625h4.373a12.15 12.15 0 0 0 7.886-2.364 7.82 7.82 0 0 0 2.911-6.41 6.66 6.66 0 0 0-2.364-5.344 9.23 9.23 0 0 0-6.191-2.009 16.9 16.9 0 0 0-5.439.834 24.7 24.7 0 0 0-5.522 2.856l-1.339-1.832a17.6 17.6 0 0 1 5.603-3.075 20.2 20.2 0 0 1 6.643-1.134q5.52 0 8.528 2.61a9.23 9.23 0 0 1 3.007 7.367zm90.66 20.36h-6.889v10.196h-2.569V96.848h-20.556v-1.832l19.817-28.155h3.308v27.636h6.889zm-9.458-2.351V83.071q0-8.255.383-13.859h-.219q-.546 1.012-3.362 5.139L310.39 94.497zm79.168-11.479q6.397 0 10.073 3.089a10.51 10.51 0 0 1 3.676 8.501q0 6.15-3.826 9.567-3.828 3.417-10.552 3.417a26.3 26.3 0 0 1-5.658-.588 14.7 14.7 0 0 1-4.483-1.681v-2.815a26 26 0 0 0 5.249 2.091 19.7 19.7 0 0 0 4.893.587 12.33 12.33 0 0 0 8.419-2.774 9.46 9.46 0 0 0 3.171-7.503 8.57 8.57 0 0 0-3.089-6.998q-3.089-2.542-8.392-2.542a28 28 0 0 0-7.435 1.066l-1.641-1.066 1.586-18.287h19.243v2.625H401.42l-1.231 14.104a39 39 0 0 1 6.67-.792zm-355.99 125a35.6 35.6 0 0 1 2.118-13.107 16.3 16.3 0 0 1 6.014-7.886 18.27 18.27 0 0 1 14.091-1.941v2.406a13.9 13.9 0 0 0-4.811-.738 12.52 12.52 0 0 0-10.51 4.866q-3.759 4.865-4.223 14.16h.355a14.2 14.2 0 0 1 4.756-4.046 12.3 12.3 0 0 1 5.658-1.367q5.603 0 8.761 3.198t3.157 8.829q0 6.124-3.321 9.663a11.68 11.68 0 0 1-8.952 3.54 11.38 11.38 0 0 1-9.581-4.633q-3.513-4.633-3.512-12.943zm13.093 15.171a8.81 8.81 0 0 0 6.97-2.815q2.487-2.815 2.488-8.037a9.94 9.94 0 0 0-2.46-7.162 8.83 8.83 0 0 0-6.697-2.569 11.16 11.16 0 0 0-5.18 1.23 10.3 10.3 0 0 0-3.813 3.267 7.2 7.2 0 0 0-1.421 4.168 13.26 13.26 0 0 0 1.353 5.836 11.4 11.4 0 0 0 3.663 4.442 8.6 8.6 0 0 0 5.098 1.64zm80.257 1.859 16.456-37.339H138.07v-2.625h25.859v1.996l-16.51 37.968zm93.16-40.65a12.33 12.33 0 0 1 8.187 2.597 8.68 8.68 0 0 1 3.102 7.025 8.3 8.3 0 0 1-1.927 5.413 17.4 17.4 0 0 1-6.246 4.346q5.248 2.16 7.381 4.729a9.44 9.44 0 0 1 2.132 6.232 9.87 9.87 0 0 1-3.458 7.9q-3.458 2.952-9.28 2.952-6.041 0-9.266-2.761-3.226-2.76-3.226-8.036a9.5 9.5 0 0 1 2.269-6.287 17.5 17.5 0 0 1 7.025-4.62 17 17 0 0 1-6.205-4.387 8.7 8.7 0 0 1-1.804-5.536 8.9 8.9 0 0 1 1.449-5.043 9.36 9.36 0 0 1 4.059-3.349 14 14 0 0 1 5.809-1.175zm-9.813 30.806a7.11 7.11 0 0 0 2.556 5.85q2.556 2.077 7.148 2.077a11.17 11.17 0 0 0 7.217-2.2 7.26 7.26 0 0 0 2.733-5.973 7.4 7.4 0 0 0-2.146-5.508q-2.147-2.118-8.269-4.442-5.029 1.942-7.134 4.291a8.52 8.52 0 0 0-2.105 5.904zm9.758-28.346a9.5 9.5 0 0 0-6.191 1.9 6.35 6.35 0 0 0-2.337 5.207 6.53 6.53 0 0 0 .861 3.376 8.9 8.9 0 0 0 2.487 2.651 28.2 28.2 0 0 0 5.453 2.775 17.3 17.3 0 0 0 6.396-3.8 7.07 7.07 0 0 0 1.94-5.002 6.39 6.39 0 0 0-2.31-5.193 9.6 9.6 0 0 0-6.301-1.914zm98.795 15.17a36.6 36.6 0 0 1-2.063 13.175 15.74 15.74 0 0 1-6.014 7.845 17.3 17.3 0 0 1-9.554 2.543 18.5 18.5 0 0 1-5.249-.711v-2.351a15.3 15.3 0 0 0 2.83.587 22 22 0 0 0 2.528.205 12.7 12.7 0 0 0 10.578-4.879q3.828-4.879 4.265-14.228h-.328a13.84 13.84 0 0 1-4.756 4.032 12.54 12.54 0 0 1-5.769 1.408q-5.549 0-8.651-3.062t-3.102-8.692a13.85 13.85 0 0 1 3.403-9.731 11.44 11.44 0 0 1 8.843-3.717 11.72 11.72 0 0 1 6.889 2.064 13.06 13.06 0 0 1 4.551 6.055 25.4 25.4 0 0 1 1.6 9.458zm-13.039-15.171a8.73 8.73 0 0 0-6.889 2.911q-2.569 2.911-2.569 7.968 0 4.756 2.379 7.216 2.377 2.46 6.806 2.46c1.792.012 3.56-.41 5.153-1.231a10.2 10.2 0 0 0 3.799-3.266 7.2 7.2 0 0 0 1.408-4.142 14.3 14.3 0 0 0-1.271-5.986 10.4 10.4 0 0 0-3.553-4.36 9.06 9.06 0 0 0-5.263-1.572zm74.959 38.191h-2.679v-29.112q0-3.963.328-8.227-.41.409-.848.792t-8.446 6.643l-1.559-1.941 10.853-8.119h2.351zm32.92-20.09q0 10.524-3.212 15.581t-9.718 5.057a10.54 10.54 0 0 1-9.513-5.207q-3.253-5.207-3.253-15.431 0-10.441 3.157-15.472 3.157-5.029 9.608-5.029a10.71 10.71 0 0 1 9.622 5.207q3.308 5.208 3.308 15.294zm-22.743 0q0 9.294 2.433 13.736a8.41 8.41 0 0 0 14.912-.151q2.363-4.592 2.364-13.585 0-8.856-2.364-13.449a7.905 7.905 0 0 0-7.531-4.592 7.82 7.82 0 0 0-7.49 4.592q-2.323 4.592-2.323 13.449z"/><g fill="#4a4849"><path d="M29.7 321.218v40.871q0 1.693-1.562 1.692h-5.662q-1.562 0-1.562-1.692v-40.871q0-1.691 1.562-1.692h5.662q1.562 0 1.562 1.692m40.67-.07v41.001q0 1.627-1.562 1.627h-5.142a1.6 1.6 0 0 1-1.497-.781l-12.561-21.542a30.3 30.3 0 0 1-2.603-5.271v25.967q0 1.627-1.562 1.627h-5.141q-1.562 0-1.562-1.627v-41.001q0-1.626 1.562-1.627h5.141a1.47 1.47 0 0 1 1.367.651l13.082 22.453 2.212 4.556v-26.032q0-1.626 1.562-1.627h5.142q1.562 0 1.562 1.627zm24.28 26.95h-6.443v13.993q0 1.693-1.562 1.692h-5.662q-1.562 0-1.562-1.692V321.22q0-1.691 1.562-1.692H94.65q8.2 0 11.975 2.994a9.31 9.31 0 0 1 3.775 7.615v7.354a9.31 9.31 0 0 1-3.775 7.614q-3.775 2.994-11.975 2.994zm0-21.281h-6.443v13.992h6.443a9.26 9.26 0 0 0 5.174-1.236 4.04 4.04 0 0 0 1.855-3.58v-4.295q0-4.881-7.029-4.881m30.97-5.599v30.914q0 4.881 6.964 4.881a9.43 9.43 0 0 0 5.206-1.236 4.08 4.08 0 0 0 1.888-3.644v-30.914q0-1.691 1.562-1.692h5.662q1.496 0 1.497 1.692v32.476a9.31 9.31 0 0 1-3.807 7.582q-3.807 3.026-12.007 3.026t-12.008-3.026a9.31 9.31 0 0 1-3.807-7.582v-32.476q0-1.691 1.627-1.692h5.662q1.562 0 1.562 1.692z"/><use xlink:href="#c"/><path d="m220.25 319.978-12.886 51.739q-.456 1.691-1.887 1.692h-5.988q-1.627 0-1.236-1.692l12.951-51.739a1.85 1.85 0 0 1 1.887-1.692h5.922q1.626 0 1.236 1.692zm17.38 33.71v-24.08a9.31 9.31 0 0 1 3.807-7.582Q245.244 319 253.445 319t12.007 3.026a9.31 9.31 0 0 1 3.808 7.582v24.08a9.31 9.31 0 0 1-3.808 7.582q-3.807 3.026-12.007 3.026t-12.008-3.026a9.31 9.31 0 0 1-3.807-7.582m22.843-1.562V331.17q0-4.881-7.028-4.881-6.965 0-6.964 4.881v20.956q0 4.881 6.964 4.881 7.028 0 7.028-4.881m25.707-30.908v30.914q0 4.881 6.964 4.881a9.43 9.43 0 0 0 5.206-1.236 4.08 4.08 0 0 0 1.888-3.644v-30.914q0-1.691 1.563-1.692h5.661q1.497 0 1.497 1.692v32.476a9.31 9.31 0 0 1-3.807 7.582q-3.807 3.026-12.008 3.026t-12.008-3.026a9.31 9.31 0 0 1-3.807-7.582v-32.476q0-1.691 1.627-1.692h5.662q1.562 0 1.562 1.692z"/><use xlink:href="#c" x="160.55"/><path d="M365.05 348.098h-6.443v13.993q0 1.693-1.562 1.692h-5.662q-1.562 0-1.562-1.692V321.22q0-1.691 1.562-1.692h13.667q8.2 0 11.975 2.994a9.31 9.31 0 0 1 3.775 7.615v7.354a9.31 9.31 0 0 1-3.775 7.614q-3.775 2.994-11.975 2.994zm0-21.281h-6.443v13.992h6.443a9.26 9.26 0 0 0 5.174-1.236 4.04 4.04 0 0 0 1.856-3.58v-4.295q0-4.881-7.029-4.881zm30.98-5.599v30.914q0 4.881 6.963 4.881a9.43 9.43 0 0 0 5.207-1.236 4.08 4.08 0 0 0 1.887-3.644v-30.914q0-1.691 1.563-1.692h5.662q1.497 0 1.496 1.692v32.476a9.31 9.31 0 0 1-3.807 7.582q-3.806 3.026-12.008 3.026-8.2 0-12.006-3.026a9.31 9.31 0 0 1-3.809-7.582v-32.476q0-1.691 1.627-1.692h5.662q1.562 0 1.563 1.692zm29.35-1.69h27.334q1.626 0 1.627 1.562v4.1a1.44 1.44 0 0 1-1.627 1.627h-9.241v35.274q0 1.693-1.562 1.692h-5.662q-1.627 0-1.627-1.692v-35.274h-9.241a1.44 1.44 0 0 1-1.627-1.627v-4.1q0-1.562 1.627-1.562z"/></g><defs><path id="a" d="M43.61 145.128v3.603a1.32 1.32 0 0 1-.38.92l-16.12 16.44a1.35 1.35 0 0 0-.38.93v68c.005 13.897 11.273 25.161 25.17 25.16h22.79c13.897.001 25.165-11.263 25.17-25.16v-68a1.35 1.35 0 0 0-.38-.93l-16.12-16.44a1.32 1.32 0 0 1-.38-.92v-3.603z"/><path id="b" d="M341.65 145.288v-3.087c0-.462.24-.89.634-1.132l4.13-2.531c.209-.128.449-.196.693-.196h4.568c.356 0 .698-.143.948-.398l5.064-5.164c.243-.248.38-.582.38-.929V28.673a2.17 2.17 0 0 0-2.167-2.167h-67.875a2.17 2.17 0 0 0-2.167 2.167v103.18c0 .347.136.681.38.929l5.064 5.164c.25.255.591.398.948.398h4.568c.245 0 .485.068.693.196l4.131 2.531c.394.241.634.67.634 1.132v3.087z"/><path id="c" d="M154.98 319.528h27.334q1.626 0 1.627 1.562v4.1a1.44 1.44 0 0 1-1.627 1.627h-9.241v35.274q0 1.693-1.562 1.692h-5.662q-1.627 0-1.627-1.692v-35.274h-9.242a1.44 1.44 0 0 1-1.627-1.627v-4.1q0-1.562 1.627-1.562"/></defs></svg>