<svg xmlns="http://www.w3.org/2000/svg" width="362" height="339" fill="none"><g clip-path="url(#a)"><mask id="b" width="362" height="339" x="0" y="0" maskUnits="userSpaceOnUse" style="mask-type:luminance"><path fill="#fff" d="M362 0H0v339h362z"/></mask><g mask="url(#b)"><path fill="#fff" d="M362 0H0v339h362z"/><path fill="#F7F9FB" d="M362 269.206H0V339h362z"/><path fill="#E2E7EE" d="M362 0H0v269.206h362z"/><path fill="#001A77" d="m29.23 28.626 6.71 6.69c.38.379.88.588 1.41.588h6.17c1.1 0 2 .897 2 1.994v5.983c0 .548-.45.997-1 .997h-16c-.55 0-1 .448-1 .997v69.794c0 .548.45.997 1 .997h7.59c.27 0 .52-.11.71-.289l2.56-2.553a21.03 21.03 0 0 1 14.85-6.132h.6a21.03 21.03 0 0 1 14.85 6.132l2.56 2.553c.19.189.44.289.71.289h7.59c.55 0 1-.449 1-.997V45.865c0-.549-.45-.997-1-.997h-16c-.55 0-1-.449-1-.997v-5.983c0-1.096.9-1.994 2-1.994h6.17c.53 0 1.04-.21 1.41-.588l6.71-6.69c.63-.628.18-1.705-.71-1.705H29.93c-.89 0-1.34 1.076-.71 1.705h.01z"/><path fill="#333" d="M80.52 117.154h-7.59c-.39 0-.78-.159-1.06-.438l-2.56-2.553c-3.87-3.858-9.02-5.982-14.5-5.982h-.6c-5.48 0-10.62 2.124-14.5 5.982l-2.56 2.553c-.28.279-.67.438-1.06.438H28.5c-.83 0-1.5-.668-1.5-1.495V45.865c0-.828.67-1.496 1.5-1.496h16c.28 0 .5-.22.5-.498v-5.983c0-.827-.67-1.495-1.5-1.495h-6.17c-.67 0-1.29-.26-1.77-.728l-6.71-6.69a1.47 1.47 0 0 1-.33-1.626 1.49 1.49 0 0 1 1.39-.927h49.17c.62 0 1.15.35 1.39.927a1.45 1.45 0 0 1-.33 1.626l-6.71 6.69c-.47.468-1.1.728-1.77.728h-6.17c-.83 0-1.5.668-1.5 1.495v5.983c0 .279.22.498.5.498h16c.83 0 1.5.668 1.5 1.496v69.794c0 .827-.67 1.495-1.5 1.495zm-26.3-9.97h.6c5.74 0 11.14 2.233 15.2 6.281l2.56 2.553c.09.09.22.149.35.149h7.59c.28 0 .5-.219.5-.498V45.865c0-.28-.22-.499-.5-.499h-16c-.83 0-1.5-.668-1.5-1.495v-5.983a2.497 2.497 0 0 1 2.5-2.492h6.17c.39 0 .78-.16 1.06-.44l6.71-6.69a.48.48 0 0 0 .11-.538.49.49 0 0 0-.46-.309H29.93a.49.49 0 0 0-.46.31.48.48 0 0 0 .11.538l6.71 6.69c.28.28.67.439 1.06.439h6.17c1.38 0 2.5 1.116 2.5 2.492v5.983c0 .827-.67 1.495-1.5 1.495h-16c-.28 0-.5.22-.5.499v69.794c0 .279.22.498.5.498h7.59c.13 0 .26-.049.35-.149l2.56-2.553a21.4 21.4 0 0 1 15.2-6.281z"/><path fill="#499C6C" d="m92.23 28.626 6.71 6.69c.38.379.88.588 1.41.588h6.17c1.1 0 2 .897 2 1.994v5.983c0 .548-.45.997-1 .997h-16c-.55 0-1 .448-1 .997v69.794c0 .548.45.997 1 .997h8l2.85-2.842a21.03 21.03 0 0 1 14.85-6.132h.6a21.03 21.03 0 0 1 14.85 6.132l2.85 2.842h8c.55 0 1-.449 1-.997V45.865c0-.549-.45-.997-1-.997h-16c-.55 0-1-.449-1-.997v-5.983c0-1.096.9-1.994 2-1.994h6.17c.53 0 1.04-.21 1.41-.588l6.71-6.69c.63-.628.18-1.705-.71-1.705H92.93c-.89 0-1.34 1.076-.71 1.705h.01z"/><path fill="#333" d="M143.52 117.154h-8.21l-3-2.991c-3.87-3.858-9.02-5.982-14.5-5.982h-.6c-5.48 0-10.62 2.124-14.5 5.982l-3 2.991H91.5c-.83 0-1.5-.668-1.5-1.495V45.865c0-.828.67-1.496 1.5-1.496h16c.28 0 .5-.22.5-.498v-5.983c0-.827-.67-1.495-1.5-1.495h-6.17c-.67 0-1.29-.26-1.77-.728l-6.71-6.69a1.47 1.47 0 0 1-.33-1.626 1.49 1.49 0 0 1 1.39-.927h49.17c.62 0 1.15.35 1.39.927a1.45 1.45 0 0 1-.33 1.626l-6.71 6.69c-.47.468-1.1.728-1.77.728h-6.17c-.83 0-1.5.668-1.5 1.495v5.983c0 .279.22.498.5.498h16c.83 0 1.5.668 1.5 1.496v69.794c0 .827-.67 1.495-1.5 1.495zm-7.79-.997h7.79c.28 0 .5-.219.5-.498V45.865c0-.28-.22-.499-.5-.499h-16c-.83 0-1.5-.668-1.5-1.495v-5.983a2.497 2.497 0 0 1 2.5-2.492h6.17c.39 0 .78-.16 1.06-.44l6.71-6.69a.48.48 0 0 0 .11-.538.49.49 0 0 0-.46-.309H92.94a.49.49 0 0 0-.46.31.48.48 0 0 0 .11.538l6.71 6.69c.28.28.67.439 1.06.439h6.17c1.38 0 2.5 1.116 2.5 2.492v5.983c0 .827-.67 1.495-1.5 1.495h-16c-.28 0-.5.22-.5.499v69.794c0 .279.22.498.5.498h7.79l2.7-2.692a21.4 21.4 0 0 1 15.2-6.281h.6c5.74 0 11.14 2.233 15.2 6.281l2.7 2.692z"/><path fill="#E58934" d="m155.23 28.626 6.71 6.69c.38.379.88.588 1.41.588h6.17c1.1 0 2 .897 2 1.994v5.983c0 .548-.45.997-1 .997h-16c-.55 0-1 .448-1 .997v69.794c0 .548.45.997 1 .997h8l2.85-2.842a21.03 21.03 0 0 1 14.85-6.132h.6a21.03 21.03 0 0 1 14.85 6.132l2.85 2.842h8c.55 0 1-.449 1-.997V45.865c0-.549-.45-.997-1-.997h-16c-.55 0-1-.449-1-.997v-5.983c0-1.096.9-1.994 2-1.994h6.17c.53 0 1.04-.21 1.41-.588l6.71-6.69c.63-.628.18-1.705-.71-1.705h-49.17c-.89 0-1.34 1.076-.71 1.705z"/><path fill="#333" d="M206.52 117.154h-8.21l-3-2.991c-3.87-3.858-9.02-5.982-14.5-5.982h-.6c-5.48 0-10.62 2.124-14.5 5.982l-3 2.991h-8.21c-.83 0-1.5-.668-1.5-1.495V45.865c0-.828.67-1.496 1.5-1.496h16c.28 0 .5-.22.5-.498v-5.983c0-.827-.67-1.495-1.5-1.495h-6.17c-.67 0-1.29-.26-1.77-.728l-6.71-6.69a1.47 1.47 0 0 1-.33-1.626 1.49 1.49 0 0 1 1.39-.927h49.17c.62 0 1.15.35 1.39.927a1.45 1.45 0 0 1-.33 1.626l-6.71 6.69c-.47.468-1.1.728-1.77.728h-6.17c-.83 0-1.5.668-1.5 1.495v5.983c0 .279.22.498.5.498h16c.83 0 1.5.668 1.5 1.496v69.794c0 .827-.67 1.495-1.5 1.495zm-7.79-.997h7.79c.28 0 .5-.219.5-.498V45.865c0-.28-.22-.499-.5-.499h-16c-.83 0-1.5-.668-1.5-1.495v-5.983a2.497 2.497 0 0 1 2.5-2.492h6.17c.39 0 .78-.16 1.06-.44l6.71-6.69a.48.48 0 0 0 .11-.538.49.49 0 0 0-.46-.309h-49.17a.49.49 0 0 0-.46.31.48.48 0 0 0 .11.538l6.71 6.69c.28.28.67.439 1.06.439h6.17c1.38 0 2.5 1.116 2.5 2.492v5.983c0 .827-.67 1.495-1.5 1.495h-16c-.28 0-.5.22-.5.499v69.794c0 .279.22.498.5.498h7.79l2.7-2.692a21.4 21.4 0 0 1 15.2-6.281h.6c5.74 0 11.14 2.233 15.2 6.281l2.7 2.692z"/><path fill="#E58934" d="m218.23 28.626 6.71 6.69c.38.379.88.588 1.41.588h6.17c1.1 0 2 .897 2 1.994v5.983c0 .548-.45.997-1 .997h-16c-.55 0-1 .448-1 .997v69.794c0 .548.45.997 1 .997h8l2.85-2.842a21.03 21.03 0 0 1 14.85-6.132h.6a21.03 21.03 0 0 1 14.85 6.132l2.85 2.842h8c.55 0 1-.449 1-.997V45.865c0-.549-.45-.997-1-.997h-16c-.55 0-1-.449-1-.997v-5.983c0-1.096.9-1.994 2-1.994h6.17c.53 0 1.04-.21 1.41-.588l6.71-6.69c.63-.628.18-1.705-.71-1.705h-49.17c-.89 0-1.34 1.076-.71 1.705z"/><path fill="#333" d="M269.52 117.154h-8.21l-3-2.991c-3.87-3.858-9.02-5.982-14.5-5.982h-.6c-5.48 0-10.62 2.124-14.5 5.982l-3 2.991h-8.21c-.83 0-1.5-.668-1.5-1.495V45.865c0-.828.67-1.496 1.5-1.496h16c.28 0 .5-.22.5-.498v-5.983c0-.827-.67-1.495-1.5-1.495h-6.17c-.67 0-1.29-.26-1.77-.728l-6.71-6.69a1.47 1.47 0 0 1-.33-1.626 1.49 1.49 0 0 1 1.39-.927h49.17c.62 0 1.15.35 1.39.927a1.45 1.45 0 0 1-.33 1.626l-6.71 6.69c-.47.468-1.1.728-1.77.728h-6.17c-.83 0-1.5.668-1.5 1.495v5.983c0 .279.22.498.5.498h16c.83 0 1.5.668 1.5 1.496v69.794c0 .827-.67 1.495-1.5 1.495zm-7.79-.997h7.79c.28 0 .5-.219.5-.498V45.865c0-.28-.22-.499-.5-.499h-16c-.83 0-1.5-.668-1.5-1.495v-5.983a2.497 2.497 0 0 1 2.5-2.492h6.17c.39 0 .78-.16 1.06-.44l6.71-6.69a.48.48 0 0 0 .11-.538.49.49 0 0 0-.46-.309h-49.17a.49.49 0 0 0-.46.31.48.48 0 0 0 .11.538l6.71 6.69c.28.28.67.439 1.06.439h6.17c1.38 0 2.5 1.116 2.5 2.492v5.983c0 .827-.67 1.495-1.5 1.495h-16c-.28 0-.5.22-.5.499v69.794c0 .279.22.498.5.498h7.79l2.7-2.692a21.4 21.4 0 0 1 15.2-6.281h.6c5.74 0 11.14 2.233 15.2 6.281l2.7 2.692z"/><path fill="#22C55E" d="m281.23 28.626 6.71 6.69c.38.379.88.588 1.41.588h6.17c1.1 0 2 .897 2 1.994v5.983c0 .548-.45.997-1 .997h-16c-.55 0-1 .448-1 .997v69.794c0 .548.45.997 1 .997h8l2.85-2.842a21.03 21.03 0 0 1 14.85-6.132h.6a21.03 21.03 0 0 1 14.85 6.132l2.85 2.842h8c.55 0 1-.449 1-.997V45.865c0-.549-.45-.997-1-.997h-16c-.55 0-1-.449-1-.997v-5.983c0-1.096.9-1.994 2-1.994h6.17c.53 0 1.04-.21 1.41-.588l6.71-6.69c.63-.628.18-1.705-.71-1.705h-49.17c-.89 0-1.34 1.076-.71 1.705z"/><path fill="#333" d="M332.52 117.154h-8.21l-3-2.991c-3.87-3.858-9.02-5.982-14.5-5.982h-.6c-5.48 0-10.62 2.124-14.5 5.982l-3 2.991h-8.21c-.83 0-1.5-.668-1.5-1.495V45.865c0-.828.67-1.496 1.5-1.496h16c.28 0 .5-.22.5-.498v-5.983c0-.827-.67-1.495-1.5-1.495h-6.17c-.67 0-1.29-.26-1.77-.728l-6.71-6.69a1.47 1.47 0 0 1-.33-1.626 1.49 1.49 0 0 1 1.39-.927h49.17c.62 0 1.15.35 1.39.927a1.45 1.45 0 0 1-.33 1.626l-6.71 6.69c-.47.468-1.1.728-1.77.728h-6.17c-.83 0-1.5.668-1.5 1.495v5.983c0 .279.22.498.5.498h16c.83 0 1.5.668 1.5 1.496v69.794c0 .827-.67 1.495-1.5 1.495zm-7.79-.997h7.79c.28 0 .5-.219.5-.498V45.865c0-.28-.22-.499-.5-.499h-16c-.83 0-1.5-.668-1.5-1.495v-5.983a2.497 2.497 0 0 1 2.5-2.492h6.17c.39 0 .78-.16 1.06-.44l6.71-6.69a.48.48 0 0 0 .11-.538.49.49 0 0 0-.46-.309h-49.17a.49.49 0 0 0-.46.31.48.48 0 0 0 .11.538l6.71 6.69c.28.28.67.439 1.06.439h6.17c1.38 0 2.5 1.116 2.5 2.492v5.983c0 .827-.67 1.495-1.5 1.495h-16c-.28 0-.5.22-.5.499v69.794c0 .279.22.498.5.498h7.79l2.7-2.692a21.4 21.4 0 0 1 15.2-6.281h.6c5.74 0 11.14 2.233 15.2 6.281l2.7 2.692z"/><path fill="#0061FC" d="m29.23 154.255 6.71 6.69c.38.379.88.589 1.41.589h6.17c1.1 0 2 .897 2 1.994v5.982c0 .548-.45.997-1 .997h-16c-.55 0-1 .449-1 .997v69.794c0 .549.45.997 1 .997h8l2.85-2.841a21.03 21.03 0 0 1 14.85-6.132h.6c5.57 0 10.91 2.203 14.85 6.132l2.85 2.841h8c.55 0 1-.448 1-.997v-69.794c0-.548-.45-.997-1-.997h-16c-.55 0-1-.449-1-.997v-5.982c0-1.097.9-1.994 2-1.994h6.17c.53 0 1.04-.21 1.41-.589l6.71-6.69c.63-.628.18-1.705-.71-1.705H29.93c-.89 0-1.34 1.077-.71 1.705z"/><path fill="#333" d="M80.52 242.784h-8.21l-3-2.991c-3.87-3.859-9.02-5.983-14.5-5.983h-.6c-5.48 0-10.62 2.124-14.5 5.983l-3 2.991H28.5c-.83 0-1.5-.668-1.5-1.496v-69.794c0-.827.67-1.495 1.5-1.495h16c.28 0 .5-.22.5-.499v-5.982c0-.828-.67-1.496-1.5-1.496h-6.17c-.67 0-1.29-.259-1.77-.728l-6.71-6.69a1.47 1.47 0 0 1-.33-1.625c.23-.569.77-.927 1.39-.927h49.17c.62 0 1.15.348 1.39.927.24.578.11 1.196-.33 1.625l-6.71 6.69a2.5 2.5 0 0 1-1.77.728h-6.17c-.83 0-1.5.668-1.5 1.496v5.982c0 .279.22.499.5.499h16c.83 0 1.5.668 1.5 1.495v69.794c0 .828-.67 1.496-1.5 1.496zm-7.79-.997h7.79c.28 0 .5-.22.5-.499v-69.794a.494.494 0 0 0-.5-.498h-16c-.83 0-1.5-.668-1.5-1.496v-5.982a2.5 2.5 0 0 1 2.5-2.493h6.17c.39 0 .78-.159 1.06-.439l6.71-6.69a.48.48 0 0 0 .11-.538.49.49 0 0 0-.46-.309H29.93a.49.49 0 0 0-.46.309.48.48 0 0 0 .11.538l6.71 6.69c.28.28.67.439 1.06.439h6.17c1.38 0 2.5 1.117 2.5 2.493v5.982c0 .828-.67 1.496-1.5 1.496h-16c-.28 0-.5.219-.5.498v69.794c0 .279.22.499.5.499h7.79l2.7-2.692a21.4 21.4 0 0 1 15.2-6.282h.6c5.74 0 11.14 2.234 15.2 6.282l2.7 2.692z"/><path fill="#499C6C" d="m92.23 154.255 6.71 6.69c.38.379.88.589 1.41.589h6.17c1.1 0 2 .897 2 1.994v5.982c0 .548-.45.997-1 .997h-16c-.55 0-1 .449-1 .997v69.794c0 .549.45.997 1 .997h8l2.85-2.841a21.03 21.03 0 0 1 14.85-6.132h.6c5.57 0 10.91 2.203 14.85 6.132l2.85 2.841h8c.55 0 1-.448 1-.997v-69.794c0-.548-.45-.997-1-.997h-16c-.55 0-1-.449-1-.997v-5.982c0-1.097.9-1.994 2-1.994h6.17c.53 0 1.04-.21 1.41-.589l6.71-6.69c.63-.628.18-1.705-.71-1.705H92.93c-.89 0-1.34 1.077-.71 1.705z"/><path fill="#333" d="M143.52 242.784h-8.21l-3-2.991c-3.87-3.859-9.02-5.983-14.5-5.983h-.6c-5.48 0-10.62 2.124-14.5 5.983l-3 2.991H91.5c-.83 0-1.5-.668-1.5-1.496v-69.794c0-.827.67-1.495 1.5-1.495h16c.28 0 .5-.22.5-.499v-5.982c0-.828-.67-1.496-1.5-1.496h-6.17c-.67 0-1.29-.259-1.77-.728l-6.71-6.69a1.47 1.47 0 0 1-.33-1.625c.23-.569.77-.927 1.39-.927h49.17c.62 0 1.15.348 1.39.927.24.578.11 1.196-.33 1.625l-6.71 6.69a2.5 2.5 0 0 1-1.77.728h-6.17c-.83 0-1.5.668-1.5 1.496v5.982c0 .279.22.499.5.499h16c.83 0 1.5.668 1.5 1.495v69.794c0 .828-.67 1.496-1.5 1.496zm-7.79-.997h7.79c.28 0 .5-.22.5-.499v-69.794a.494.494 0 0 0-.5-.498h-16c-.83 0-1.5-.668-1.5-1.496v-5.982a2.5 2.5 0 0 1 2.5-2.493h6.17c.39 0 .78-.159 1.06-.439l6.71-6.69a.48.48 0 0 0 .11-.538.49.49 0 0 0-.46-.309H92.94a.49.49 0 0 0-.46.309.48.48 0 0 0 .11.538l6.71 6.69c.28.28.67.439 1.06.439h6.17c1.38 0 2.5 1.117 2.5 2.493v5.982c0 .828-.67 1.496-1.5 1.496h-16c-.28 0-.5.219-.5.498v69.794c0 .279.22.499.5.499h7.79l2.7-2.692a21.4 21.4 0 0 1 15.2-6.282h.6c5.74 0 11.14 2.234 15.2 6.282l2.7 2.692z"/><path fill="#E58934" d="m155.23 154.255 6.71 6.69c.38.379.88.589 1.41.589h6.17c1.1 0 2 .897 2 1.994v5.982c0 .548-.45.997-1 .997h-16c-.55 0-1 .449-1 .997v69.794c0 .549.45.997 1 .997h8l2.85-2.841a21.03 21.03 0 0 1 14.85-6.132h.6c5.57 0 10.91 2.203 14.85 6.132l2.85 2.841h8c.55 0 1-.448 1-.997v-69.794c0-.548-.45-.997-1-.997h-16c-.55 0-1-.449-1-.997v-5.982c0-1.097.9-1.994 2-1.994h6.17c.53 0 1.04-.21 1.41-.589l6.71-6.69c.63-.628.18-1.705-.71-1.705h-49.17c-.89 0-1.34 1.077-.71 1.705z"/><path fill="#333" d="M206.52 242.784h-8.21l-3-2.991c-3.87-3.859-9.02-5.983-14.5-5.983h-.6c-5.48 0-10.62 2.124-14.5 5.983l-3 2.991h-8.21c-.83 0-1.5-.668-1.5-1.496v-69.794c0-.827.67-1.495 1.5-1.495h16c.28 0 .5-.22.5-.499v-5.982c0-.828-.67-1.496-1.5-1.496h-6.17c-.67 0-1.29-.259-1.77-.728l-6.71-6.69a1.47 1.47 0 0 1-.33-1.625c.23-.569.77-.927 1.39-.927h49.17c.62 0 1.15.348 1.39.927.24.578.11 1.196-.33 1.625l-6.71 6.69a2.5 2.5 0 0 1-1.77.728h-6.17c-.83 0-1.5.668-1.5 1.496v5.982c0 .279.22.499.5.499h16c.83 0 1.5.668 1.5 1.495v69.794c0 .828-.67 1.496-1.5 1.496zm-7.79-.997h7.79c.28 0 .5-.22.5-.499v-69.794a.494.494 0 0 0-.5-.498h-16c-.83 0-1.5-.668-1.5-1.496v-5.982a2.5 2.5 0 0 1 2.5-2.493h6.17c.39 0 .78-.159 1.06-.439l6.71-6.69a.48.48 0 0 0 .11-.538.49.49 0 0 0-.46-.309h-49.17a.49.49 0 0 0-.46.309.48.48 0 0 0 .11.538l6.71 6.69c.28.28.67.439 1.06.439h6.17c1.38 0 2.5 1.117 2.5 2.493v5.982c0 .828-.67 1.496-1.5 1.496h-16c-.28 0-.5.219-.5.498v69.794c0 .279.22.499.5.499h7.79l2.7-2.692a21.4 21.4 0 0 1 15.2-6.282h.6c5.74 0 11.14 2.234 15.2 6.282l2.7 2.692z"/><path fill="#0061FC" d="m218.23 154.255 6.71 6.69c.38.379.88.589 1.41.589h6.17c1.1 0 2 .897 2 1.994v5.982c0 .548-.45.997-1 .997h-16c-.55 0-1 .449-1 .997v69.794c0 .549.45.997 1 .997h8l2.85-2.841a21.03 21.03 0 0 1 14.85-6.132h.6c5.57 0 10.91 2.203 14.85 6.132l2.85 2.841h8c.55 0 1-.448 1-.997v-69.794c0-.548-.45-.997-1-.997h-16c-.55 0-1-.449-1-.997v-5.982c0-1.097.9-1.994 2-1.994h6.17c.53 0 1.04-.21 1.41-.589l6.71-6.69c.63-.628.18-1.705-.71-1.705h-49.17c-.89 0-1.34 1.077-.71 1.705z"/><path fill="#333" d="M269.52 242.784h-8.21l-3-2.991c-3.87-3.859-9.02-5.983-14.5-5.983h-.6c-5.48 0-10.62 2.124-14.5 5.983l-3 2.991h-8.21c-.83 0-1.5-.668-1.5-1.496v-69.794c0-.827.67-1.495 1.5-1.495h16c.28 0 .5-.22.5-.499v-5.982c0-.828-.67-1.496-1.5-1.496h-6.17c-.67 0-1.29-.259-1.77-.728l-6.71-6.69a1.47 1.47 0 0 1-.33-1.625c.23-.569.77-.927 1.39-.927h49.17c.62 0 1.15.348 1.39.927.24.578.11 1.196-.33 1.625l-6.71 6.69a2.5 2.5 0 0 1-1.77.728h-6.17c-.83 0-1.5.668-1.5 1.496v5.982c0 .279.22.499.5.499h16c.83 0 1.5.668 1.5 1.495v69.794c0 .828-.67 1.496-1.5 1.496zm-7.79-.997h7.79c.28 0 .5-.22.5-.499v-69.794a.494.494 0 0 0-.5-.498h-16c-.83 0-1.5-.668-1.5-1.496v-5.982a2.5 2.5 0 0 1 2.5-2.493h6.17c.39 0 .78-.159 1.06-.439l6.71-6.69a.48.48 0 0 0 .11-.538.49.49 0 0 0-.46-.309h-49.17a.49.49 0 0 0-.46.309.48.48 0 0 0 .11.538l6.71 6.69c.28.28.67.439 1.06.439h6.17c1.38 0 2.5 1.117 2.5 2.493v5.982c0 .828-.67 1.496-1.5 1.496h-16c-.28 0-.5.219-.5.498v69.794c0 .279.22.499.5.499h7.79l2.7-2.692a21.4 21.4 0 0 1 15.2-6.282h.6c5.74 0 11.14 2.234 15.2 6.282l2.7 2.692z"/><path fill="#22C55E" d="m281.23 154.255 6.71 6.69c.38.379.88.589 1.41.589h6.17c1.1 0 2 .897 2 1.994v5.982c0 .548-.45.997-1 .997h-16c-.55 0-1 .449-1 .997v69.794c0 .549.45.997 1 .997h8l2.85-2.841a21.03 21.03 0 0 1 14.85-6.132h.6c5.57 0 10.91 2.203 14.85 6.132l2.85 2.841h8c.55 0 1-.448 1-.997v-69.794c0-.548-.45-.997-1-.997h-16c-.55 0-1-.449-1-.997v-5.982c0-1.097.9-1.994 2-1.994h6.17c.53 0 1.04-.21 1.41-.589l6.71-6.69c.63-.628.18-1.705-.71-1.705h-49.17c-.89 0-1.34 1.077-.71 1.705z"/><path fill="#333" d="M332.52 242.784h-8.21l-3-2.991c-3.87-3.859-9.02-5.983-14.5-5.983h-.6c-5.48 0-10.62 2.124-14.5 5.983l-3 2.991h-8.21c-.83 0-1.5-.668-1.5-1.496v-69.794c0-.827.67-1.495 1.5-1.495h16c.28 0 .5-.22.5-.499v-5.982c0-.828-.67-1.496-1.5-1.496h-6.17c-.67 0-1.29-.259-1.77-.728l-6.71-6.69a1.47 1.47 0 0 1-.33-1.625c.23-.569.77-.927 1.39-.927h49.17c.62 0 1.15.348 1.39.927.24.578.11 1.196-.33 1.625l-6.71 6.69a2.5 2.5 0 0 1-1.77.728h-6.17c-.83 0-1.5.668-1.5 1.496v5.982c0 .279.22.499.5.499h16c.83 0 1.5.668 1.5 1.495v69.794c0 .828-.67 1.496-1.5 1.496zm-7.79-.997h7.79c.28 0 .5-.22.5-.499v-69.794a.494.494 0 0 0-.5-.498h-16c-.83 0-1.5-.668-1.5-1.496v-5.982a2.5 2.5 0 0 1 2.5-2.493h6.17c.39 0 .78-.159 1.06-.439l6.71-6.69a.48.48 0 0 0 .11-.538.49.49 0 0 0-.46-.309h-49.17a.49.49 0 0 0-.46.309.48.48 0 0 0 .11.538l6.71 6.69c.28.28.67.439 1.06.439h6.17c1.38 0 2.5 1.117 2.5 2.493v5.982c0 .828-.67 1.496-1.5 1.496h-16c-.28 0-.5.219-.5.498v69.794c0 .279.22.499.5.499h7.79l2.7-2.692a21.4 21.4 0 0 1 15.2-6.282h.6c5.74 0 11.14 2.234 15.2 6.282l2.7 2.692zM80.52 144.075h-52c-.83 0-1.5-.668-1.5-1.495v-15.953c0-.828.67-1.496 1.5-1.496h4.27c2.27 0 4.4-.877 6.01-2.483 4.2-4.187 9.78-6.491 15.72-6.491s11.52 2.304 15.72 6.491a8.44 8.44 0 0 0 6.01 2.483h4.27c.83 0 1.5.668 1.5 1.496v15.953c0 .827-.67 1.495-1.5 1.495m-52-17.947c-.28 0-.5.219-.5.499v15.953c0 .279.22.498.5.498h52c.28 0 .5-.219.5-.498v-15.953c0-.28-.22-.499-.5-.499h-4.27c-2.54 0-4.92-.987-6.72-2.772a21.12 21.12 0 0 0-15.01-6.201c-5.67 0-11 2.203-15.01 6.201a9.46 9.46 0 0 1-6.72 2.772zm115 17.947h-52c-.83 0-1.5-.668-1.5-1.495v-15.953c0-.828.67-1.496 1.5-1.496h4.27c2.27 0 4.4-.877 6.01-2.483 4.2-4.187 9.78-6.491 15.72-6.491s11.52 2.304 15.72 6.491a8.44 8.44 0 0 0 6.01 2.483h4.27c.83 0 1.5.668 1.5 1.496v15.953c0 .827-.67 1.495-1.5 1.495m-52-17.947c-.28 0-.5.219-.5.499v15.953c0 .279.22.498.5.498h52c.28 0 .5-.219.5-.498v-15.953c0-.28-.22-.499-.5-.499h-4.27c-2.54 0-4.92-.987-6.72-2.772a21.12 21.12 0 0 0-15.01-6.201c-5.67 0-11 2.203-15.01 6.201a9.46 9.46 0 0 1-6.72 2.772zm115 17.947h-52c-.83 0-1.5-.668-1.5-1.495v-15.953c0-.828.67-1.496 1.5-1.496h4.27c2.27 0 4.4-.877 6.01-2.483 4.2-4.187 9.78-6.491 15.72-6.491s11.52 2.304 15.72 6.491a8.44 8.44 0 0 0 6.01 2.483h4.27c.83 0 1.5.668 1.5 1.496v15.953c0 .827-.67 1.495-1.5 1.495m-52-17.947c-.28 0-.5.219-.5.499v15.953c0 .279.22.498.5.498h52c.28 0 .5-.219.5-.498v-15.953c0-.28-.22-.499-.5-.499h-4.27c-2.54 0-4.92-.987-6.72-2.772a21.12 21.12 0 0 0-15.01-6.201c-5.67 0-11 2.203-15.01 6.201a9.46 9.46 0 0 1-6.72 2.772zm115 17.947h-52c-.83 0-1.5-.668-1.5-1.495v-15.953c0-.828.67-1.496 1.5-1.496h4.27c2.27 0 4.4-.877 6.01-2.483 4.2-4.187 9.78-6.491 15.72-6.491s11.52 2.304 15.72 6.491a8.44 8.44 0 0 0 6.01 2.483h4.27c.83 0 1.5.668 1.5 1.496v15.953c0 .827-.67 1.495-1.5 1.495m-52-17.947c-.28 0-.5.219-.5.499v15.953c0 .279.22.498.5.498h52c.28 0 .5-.219.5-.498v-15.953c0-.28-.22-.499-.5-.499h-4.27c-2.54 0-4.92-.987-6.72-2.772a21.12 21.12 0 0 0-15.01-6.201c-5.67 0-11 2.203-15.01 6.201a9.46 9.46 0 0 1-6.72 2.772zm115 17.947h-52c-.83 0-1.5-.668-1.5-1.495v-15.953c0-.828.67-1.496 1.5-1.496h4.27c2.27 0 4.4-.877 6.01-2.483 4.2-4.187 9.78-6.491 15.72-6.491s11.52 2.304 15.72 6.491a8.44 8.44 0 0 0 6.01 2.483h4.27c.83 0 1.5.668 1.5 1.496v15.953c0 .827-.67 1.495-1.5 1.495m-52-17.947c-.28 0-.5.219-.5.499v15.953c0 .279.22.498.5.498h52c.28 0 .5-.219.5-.498v-15.953c0-.28-.22-.499-.5-.499h-4.27c-2.54 0-4.92-.987-6.72-2.772a21.12 21.12 0 0 0-15.01-6.201c-5.67 0-11 2.203-15.01 6.201a9.46 9.46 0 0 1-6.72 2.772z"/><path fill="#fff" d="M57.57 91.23H53.9V76.525q0-2.635.12-4.177c-.24.249-.53.528-.88.827q-.525.449-3.51 2.872l-1.84-2.324 6.72-5.264h3.06zm129.85-17.537c0 1.445-.42 2.642-1.27 3.609-.84.957-2.03 1.605-3.56 1.944v.12c1.83.23 3.21.797 4.12 1.705q1.38 1.36 1.38 3.62c0 2.193-.78 3.878-2.33 5.074-1.55 1.187-3.76 1.785-6.62 1.785-2.53 0-4.67-.409-6.41-1.227v-3.26c.97.479 1.99.848 3.08 1.107q1.62.39 3.12.389c1.77 0 3.09-.33 3.97-.977.88-.648 1.31-1.665 1.31-3.041 0-1.217-.48-2.104-1.45-2.682-.97-.569-2.49-.858-4.56-.858h-1.98V78.03h2.02c3.65 0 5.47-1.257 5.47-3.77 0-.976-.32-1.724-.95-2.262-.64-.529-1.57-.798-2.81-.798-.87 0-1.7.12-2.5.369-.8.25-1.75.718-2.84 1.426l-1.8-2.553c2.09-1.535 4.53-2.303 7.3-2.303 2.3 0 4.1.499 5.39 1.476 1.29.987 1.94 2.343 1.94 4.078zm64.67 12.573h-3.08v4.965h-3.58v-4.965h-10.44v-2.822l10.44-15.046h3.58v14.837h3.08v3.04zm-6.66-3.041V77.51c0-2.034.05-3.699.16-5.005h-.12c-.29.688-.75 1.516-1.38 2.493l-5.67 8.226h7.02zm61.11-6.222c2.3 0 4.12.608 5.47 1.824s2.02 2.872 2.02 4.966c0 2.433-.76 4.327-2.29 5.693s-3.7 2.044-6.51 2.044c-2.55 0-4.56-.409-6.02-1.227v-3.32q1.26.718 2.91 1.107c1.09.26 2.11.389 3.05.389q2.49 0 3.78-1.107c.86-.738 1.3-1.814 1.3-3.24 0-2.722-1.74-4.078-5.22-4.078-.49 0-1.09.05-1.81.15s-1.35.209-1.89.338l-1.64-.967.88-11.127h11.88v3.26h-8.64l-.52 5.644c.36-.06.81-.13 1.34-.22.53-.08 1.17-.12 1.93-.12h-.02zM125.28 91.23H109.8v-2.77l5.89-5.903c1.74-1.775 2.89-3.032 3.46-3.78.57-.737.98-1.445 1.24-2.093a5.7 5.7 0 0 0 .39-2.104c0-1.027-.31-1.835-.93-2.433-.62-.588-1.48-.887-2.57-.887-.88 0-1.72.16-2.54.478-.82.32-1.76.908-2.84 1.745l-1.98-2.413c1.27-1.066 2.5-1.824 3.7-2.273s2.47-.668 3.83-.668c2.12 0 3.83.548 5.11 1.655s1.92 2.592 1.92 4.467c0 1.027-.19 2.004-.55 2.931-.37.928-.94 1.875-1.7 2.862s-2.04 2.313-3.82 3.978l-3.97 3.829v.16h10.84zM46.86 207.159q0-13.371 10.92-13.371c1.15 0 2.11.09 2.91.27v3.051c-.79-.23-1.71-.339-2.75-.339-2.45 0-4.29.658-5.52 1.964s-1.9 3.41-2 6.291h.19a5.05 5.05 0 0 1 2.06-1.954c.88-.459 1.93-.698 3.12-.698 2.07 0 3.69.638 4.84 1.905 1.16 1.266 1.73 2.991 1.73 5.154 0 2.393-.67 4.278-2.01 5.664s-3.16 2.083-5.48 2.083c-1.64 0-3.06-.388-4.27-1.176s-2.14-1.924-2.79-3.43c-.65-1.496-.98-3.3-.98-5.414zm7.96 6.989q1.89-.002 2.91-1.216 1.02-1.212 1.02-3.47 0-1.959-.96-3.081c-.64-.747-1.6-1.116-2.88-1.116q-1.185 0-2.19.508c-.67.339-1.19.798-1.58 1.386s-.58 1.187-.58 1.795c0 1.465.4 2.702 1.2 3.699.8 1.007 1.81 1.505 3.05 1.505zm125.69-20.36c2.17 0 3.88.499 5.14 1.486q1.89 1.496 1.89 3.978c0 2.333-1.41 4.198-4.22 5.574 1.79.897 3.06 1.834 3.82 2.822.75.987 1.13 2.083 1.13 3.3 0 1.884-.69 3.39-2.08 4.516-1.39 1.137-3.26 1.695-5.62 1.695s-4.4-.528-5.77-1.585-2.05-2.562-2.05-4.507a5.83 5.83 0 0 1 1.07-3.419c.71-1.017 1.88-1.915 3.51-2.702-1.4-.828-2.39-1.705-2.98-2.633a5.7 5.7 0 0 1-.89-3.111q0-2.483 1.95-3.948c1.3-.977 3-1.476 5.09-1.476zm-4.23 17.17q0 1.615 1.14 2.512 1.14.898 3.09.898c1.3 0 2.39-.309 3.13-.928.74-.618 1.12-1.455 1.12-2.512 0-.838-.34-1.605-1.03-2.303s-1.73-1.336-3.12-1.935l-.45-.199c-1.38.598-2.37 1.266-2.97 1.984a3.77 3.77 0 0 0-.91 2.483m4.2-14.348c-1.04 0-1.88.259-2.52.768-.64.518-.95 1.216-.95 2.094 0 .538.11 1.027.34 1.445.23.429.56.818 1 1.157q.66.524 2.22 1.256c1.25-.548 2.13-1.126 2.65-1.735.52-.608.77-1.316.77-2.123 0-.878-.32-1.586-.96-2.094-.64-.509-1.49-.768-2.55-.768m70.77 7.199c0 4.487-.91 7.837-2.72 10.05q-2.715 3.32-8.19 3.32c-1.39 0-2.38-.079-2.98-.249v-3.071c.93.259 1.86.389 2.8.389 2.48 0 4.33-.668 5.55-1.994s1.88-3.42 2-6.262h-.19c-.62.938-1.36 1.616-2.23 2.024-.87.419-1.89.619-3.05.619q-3.03 0-4.77-1.885c-1.16-1.256-1.73-2.981-1.73-5.175q0-3.56 2.01-5.683c1.34-1.406 3.16-2.114 5.48-2.114 1.62 0 3.04.399 4.25 1.187s2.14 1.934 2.8 3.44c.66 1.505.98 3.3.98 5.394zm-7.97-6.98c-1.27 0-2.25.409-2.92 1.237-.68.827-1.02 1.984-1.02 3.48 0 1.296.31 2.323.95 3.061.63.747 1.59 1.116 2.87 1.116s2.28-.369 3.12-1.107c.84-.737 1.27-1.595 1.27-2.582a6.3 6.3 0 0 0-.54-2.592c-.36-.808-.86-1.446-1.51-1.905q-.975-.7-2.22-.698zm57.16 20.031h-3.67v-14.706c0-1.755.04-3.151.12-4.178-.24.249-.53.529-.88.828q-.525.448-3.51 2.871l-1.84-2.323 6.72-5.264h3.06zm22.97-11.386c0 3.958-.64 6.9-1.91 8.814-1.28 1.924-3.23 2.881-5.85 2.881s-4.47-.987-5.78-2.971-1.97-4.895-1.97-8.724.64-6.979 1.91-8.884c1.28-1.904 3.22-2.861 5.84-2.861s4.48.997 5.8 2.991 1.97 4.915 1.97 8.754zm-11.8 0c0 3.111.32 5.324.96 6.65s1.66 1.994 3.07 1.994 2.43-.678 3.09-2.024c.65-1.346.98-3.559.98-6.62s-.33-5.264-.98-6.63-1.68-2.044-3.09-2.044-2.43.668-3.07 2.014-.96 3.559-.96 6.67zM112.39 216.86l9.03-19.522h-11.88v-3.221h15.8v2.553l-8.98 20.19z"/><path fill="#333" d="M55 316.277v-22.773h4.84v22.773zm30.51 0h-6.16l-9.94-17.229h-.14c.2 3.041.3 5.214.3 6.511v10.718h-4.33v-22.773h6.11l9.92 17.06h.11c-.16-2.961-.23-5.055-.23-6.282v-10.778h4.36zm21.18-15.674c0 2.453-.77 4.328-2.3 5.624-1.54 1.296-3.72 1.944-6.55 1.944h-2.08v8.096h-4.84v-22.773h7.3c2.77 0 4.88.599 6.32 1.785q2.16 1.78 2.16 5.324zm-10.94 3.61h1.59c1.49 0 2.6-.289 3.34-.878.74-.588 1.11-1.445 1.11-2.562s-.31-1.964-.93-2.513q-.93-.807-2.91-.807h-2.2zm33.49-10.719v14.737c0 1.685-.38 3.16-1.13 4.427-.76 1.266-1.85 2.243-3.27 2.911-1.43.678-3.11 1.017-5.06 1.017-2.94 0-5.22-.748-6.84-2.253-1.62-1.496-2.44-3.55-2.44-6.162v-14.677h4.83v13.939c0 1.755.35 3.041 1.06 3.869.71.817 1.88 1.226 3.52 1.226s2.73-.409 3.45-1.236c.71-.828 1.07-2.124 1.07-3.889v-13.909h4.83zm14.06 22.783h-4.84v-18.755h-6.2v-4.018h17.25v4.018h-6.2v18.755zm27.51-22.783-8.52 22.773h-4.33l8.52-22.773zm31.37 11.357c0 3.769-.94 6.67-2.81 8.694s-4.56 3.041-8.06 3.041-6.19-1.017-8.06-3.041-2.81-4.935-2.81-8.724.94-6.69 2.82-8.685c1.88-1.994 4.58-3.001 8.09-3.001s6.2 1.007 8.05 3.021c1.86 2.014 2.79 4.916 2.79 8.695zm-16.67 0c0 2.542.48 4.457 1.45 5.753.97 1.286 2.42 1.934 4.34 1.934 3.86 0 5.8-2.562 5.8-7.677s-1.92-7.698-5.77-7.698c-1.93 0-3.38.648-4.36 1.945-.98 1.296-1.47 3.21-1.47 5.753zm39.65-11.357v14.737c0 1.685-.38 3.16-1.13 4.427-.76 1.266-1.85 2.243-3.27 2.911-1.43.678-3.12 1.017-5.06 1.017-2.94 0-5.22-.748-6.84-2.253-1.62-1.496-2.44-3.55-2.44-6.162v-14.677h4.83v13.939c0 1.755.35 3.041 1.06 3.869.71.817 1.88 1.226 3.52 1.226s2.73-.409 3.45-1.236c.71-.828 1.07-2.124 1.07-3.889v-13.909h4.83zm14.05 22.783h-4.84v-18.755h-6.2v-4.018h17.25v4.018h-6.2v18.755zm25.15-15.674c0 2.453-.77 4.328-2.3 5.624-1.54 1.296-3.72 1.944-6.55 1.944h-2.08v8.096h-4.84v-22.773h7.3c2.77 0 4.88.599 6.32 1.785q2.16 1.78 2.16 5.324zm-10.93 3.61h1.59c1.49 0 2.6-.289 3.34-.878.74-.588 1.11-1.445 1.11-2.562s-.31-1.964-.93-2.513q-.93-.807-2.91-.807h-2.2zm33.49-10.719v14.737c0 1.685-.38 3.16-1.13 4.427s-1.85 2.243-3.27 2.911c-1.43.678-3.11 1.017-5.06 1.017-2.94 0-5.22-.748-6.84-2.253-1.62-1.496-2.44-3.55-2.44-6.162v-14.677h4.83v13.939c0 1.755.35 3.041 1.06 3.869.71.817 1.88 1.226 3.52 1.226s2.73-.409 3.45-1.236c.72-.828 1.07-2.124 1.07-3.889v-13.909h4.83zm14.05 22.783h-4.84v-18.755h-6.2v-4.018h17.25v4.018h-6.2v18.755z"/></g><path stroke="#333" d="M0 268.5h362"/></g><path stroke="#333" d="M.5.5h361v338H.5z"/><defs><clipPath id="a"><path fill="#fff" d="M0 0h362v339H0z"/></clipPath></defs></svg>