<svg xmlns="http://www.w3.org/2000/svg" width="551" height="309" fill="none"><g clip-path="url(#a)"><mask id="b" width="551" height="309" x="0" y="0" maskUnits="userSpaceOnUse" style="mask-type:luminance"><path fill="#fff" d="M551 0H0v309h551z"/></mask><g mask="url(#b)"><path fill="#fff" d="M551 0H0v309h551z"/><path fill="#E2E7EE" d="M551 0H0v237.232h551z"/><path fill="#F7F9FB" d="M551 237.232H0V309h551z"/><path fill="#333" d="M150 284.29v-22.766h4.84v22.766zm30.51 0h-6.16l-9.94-17.224h-.14c.2 3.04.3 5.213.3 6.509v10.715h-4.33v-22.766h6.11l9.92 17.054h.11c-.16-2.96-.23-5.053-.23-6.279v-10.775h4.36zm21.18-15.669c0 2.452-.77 4.326-2.3 5.621-1.54 1.296-3.72 1.944-6.55 1.944h-2.08v8.094h-4.84v-22.766h7.3c2.77 0 4.88.598 6.32 1.784q2.16 1.779 2.16 5.323zm-10.94 3.608h1.59c1.49 0 2.6-.289 3.34-.877s1.11-1.445 1.11-2.562-.31-1.964-.93-2.512q-.93-.807-2.91-.807h-2.2zm33.49-10.715v14.732c0 1.685-.38 3.16-1.13 4.426-.76 1.266-1.85 2.242-3.27 2.91-1.43.678-3.11 1.017-5.06 1.017-2.94 0-5.22-.748-6.84-2.253-1.62-1.495-2.44-3.548-2.44-6.16v-14.672h4.83v13.935c0 1.754.35 3.04 1.06 3.867.71.817 1.88 1.226 3.52 1.226s2.73-.409 3.45-1.236c.71-.827 1.07-2.123 1.07-3.887v-13.905h4.83zm14.06 22.776h-4.84v-18.749h-6.2v-4.017h17.25v4.017h-6.2v18.749zm27.51-22.776-8.52 22.766h-4.33l8.52-22.766zm31.38 11.353c0 3.768-.94 6.668-2.81 8.692s-4.56 3.04-8.06 3.04-6.19-1.017-8.06-3.04-2.81-4.934-2.81-8.722.94-6.688 2.82-8.682c1.88-1.993 4.58-3 8.09-3s6.2 1.007 8.05 3.02c1.86 2.013 2.79 4.914 2.79 8.692zm-16.68 0c0 2.542.48 4.455 1.45 5.751.97 1.286 2.42 1.934 4.34 1.934 3.86 0 5.8-2.562 5.8-7.675 0-5.114-1.92-7.695-5.77-7.695-1.93 0-3.38.648-4.36 1.943-.98 1.296-1.47 3.21-1.47 5.752zm39.65-11.353v14.732c0 1.685-.38 3.16-1.13 4.426-.76 1.266-1.85 2.242-3.27 2.91-1.43.678-3.12 1.017-5.06 1.017-2.94 0-5.22-.748-6.84-2.253-1.62-1.495-2.44-3.548-2.44-6.16v-14.672h4.83v13.935c0 1.754.35 3.04 1.06 3.867.71.817 1.88 1.226 3.52 1.226s2.73-.409 3.45-1.236c.71-.827 1.07-2.123 1.07-3.887v-13.905h4.83zm14.06 22.776h-4.84v-18.749h-6.2v-4.017h17.25v4.017h-6.2v18.749zm25.15-15.669c0 2.452-.77 4.326-2.3 5.621-1.54 1.296-3.72 1.944-6.55 1.944h-2.08v8.094h-4.84v-22.766h7.3c2.77 0 4.88.598 6.32 1.784q2.16 1.779 2.16 5.323zm-10.94 3.608h1.59c1.49 0 2.6-.289 3.34-.877s1.11-1.445 1.11-2.562-.31-1.964-.93-2.512q-.93-.807-2.91-.807h-2.2zm33.49-10.715v14.732c0 1.685-.38 3.16-1.13 4.426s-1.85 2.242-3.27 2.91c-1.43.678-3.11 1.017-5.06 1.017-2.94 0-5.22-.748-6.84-2.253-1.62-1.495-2.44-3.548-2.44-6.16v-14.672h4.83v13.935c0 1.754.35 3.04 1.06 3.867.71.817 1.88 1.226 3.52 1.226s2.73-.409 3.45-1.236 1.07-2.123 1.07-3.887v-13.905h4.83zm14.05 22.776h-4.84v-18.749h-6.2v-4.017h17.25v4.017h-6.2v18.749z"/><path fill="#DD4B39" d="M68.02 118.477c0-.279.12-.539.32-.728l4.23-3.907c.19-.17.43-.27.69-.27l4.69.06c.23 0 .46-.069.64-.219l4.68-3.728c.48-.379.75-.947.75-1.555V30.9c0-1.096-.9-1.993-2-1.993H32.03c-1.1 0-2 .897-2 1.993v77.31c0 .608.28 1.186.75 1.555l4.66 3.698c.18.139.4.219.63.219l4.71-.06c.26 0 .5.09.69.269l4.23 3.898c.2.189.32.458.32.727v1.944l22-.02v-1.973z"/><path fill="#111729" d="M68.01 122.304c0 .319.16.628.42.818l13.89 9.838a3.97 3.97 0 0 1 1.68 3.249v53.338c0 9.908-8.06 17.942-18 17.942H48c-9.94 0-18-8.034-18-17.942v-53.298c0-1.296.63-2.502 1.68-3.249l13.89-9.829c.26-.189.42-.488.42-.817v-2.721l22-.02v2.691z"/><path stroke="#333" stroke-miterlimit="10" d="M84.01 30.9v77.23c0 .608-.28 1.176-.75 1.555l-4.68 3.728c-.18.14-.4.219-.64.219l-4.69-.06c-.26 0-.5.09-.69.27l-4.23 3.907c-.2.189-.32.458-.32.728v3.668c0 .319.16.628.42.817l13.89 9.838a3.98 3.98 0 0 1 1.68 3.25v53.337c0 9.908-8.06 17.942-18 17.942H48c-9.94 0-18-8.034-18-17.942V136.09a3.99 3.99 0 0 1 1.68-3.25l13.89-9.828c.26-.189.42-.488.42-.817v-3.669a1 1 0 0 0-.32-.727l-4.23-3.898a1.03 1.03 0 0 0-.69-.269l-4.71.06c-.23 0-.45-.07-.63-.219l-4.66-3.698a1.98 1.98 0 0 1-.75-1.555V30.9c0-1.096.9-1.993 2-1.993h49.99c1.1 0 2 .897 2 1.993z"/><path fill="#499C6C" d="M131 117.978a1 1 0 0 1 .32-.727l4.23-3.908c.19-.169.43-.269.69-.269l4.69.06a1 1 0 0 0 .64-.219l4.68-3.728c.48-.379.75-.947.75-1.555v-77.23c0-1.097-.9-1.994-2-1.994H95.01c-1.1 0-2 .897-2 1.994v77.309c0 .608.28 1.187.75 1.555l4.66 3.698c.18.14.4.22.63.22l4.71-.06c.26 0 .5.09.69.269l4.23 3.897c.2.19.32.459.32.728v1.944l22-.02v-1.974z"/><path fill="#111729" d="M130.99 121.646c0 .319.16.628.42.818l13.89 9.838a3.97 3.97 0 0 1 1.68 3.249v53.338c0 9.908-8.06 17.942-18 17.942h-18c-9.94 0-18-8.034-18-17.942v-53.298c0-1.296.63-2.502 1.68-3.249l13.89-9.828c.26-.19.42-.489.42-.818v-2.721l22-.02v2.691z"/><path stroke="#333" stroke-miterlimit="10" d="M146.99 30.402v77.23c0 .608-.28 1.176-.75 1.555l-4.68 3.728c-.18.139-.4.219-.64.219l-4.69-.06c-.26 0-.5.09-.69.269l-4.23 3.908c-.2.189-.32.458-.32.727v3.668c0 .319.16.628.42.818l13.89 9.838a3.97 3.97 0 0 1 1.68 3.249v53.338c0 9.908-8.06 17.942-18 17.942h-18c-9.94 0-18-8.034-18-17.942v-53.298c0-1.296.63-2.502 1.68-3.249l13.89-9.828c.26-.19.42-.489.42-.818v-3.668c0-.279-.12-.538-.32-.728l-4.23-3.897a1.03 1.03 0 0 0-.69-.269l-4.71.06c-.23 0-.45-.07-.63-.22l-4.66-3.698a1.98 1.98 0 0 1-.75-1.555v-77.32c0-1.096.9-1.993 2-1.993h49.99c1.1 0 2 .897 2 1.994z"/><path fill="#FBBF24" d="M194.02 118.477c0-.279.12-.539.32-.728l4.23-3.907c.19-.17.43-.27.69-.27l4.69.06c.23 0 .46-.069.64-.219l4.68-3.728c.48-.379.75-.947.75-1.555V30.9c0-1.096-.9-1.993-2-1.993h-49.99c-1.1 0-2 .897-2 1.993v77.31c0 .608.28 1.186.75 1.555l4.66 3.698c.18.139.4.219.63.219l4.71-.06c.26 0 .5.09.69.269l4.23 3.898c.2.189.32.458.32.727v1.944l22-.02v-1.973z"/><path fill="#0061FC" d="M194.01 121.324c0 .322.16.634.42.825l13.89 9.933a4.03 4.03 0 0 1 1.68 3.281v53.851c0 10.004-8.06 18.115-18 18.115h-18c-9.94 0-18-8.111-18-18.115v-53.811a4.04 4.04 0 0 1 1.68-3.281l13.89-9.923c.26-.191.42-.493.42-.825v-2.738l22-.02v2.708z"/><path stroke="#333" stroke-miterlimit="10" d="M210.01 30.9v77.23c0 .608-.28 1.176-.75 1.555l-4.68 3.728c-.18.14-.4.219-.64.219l-4.69-.06c-.26 0-.5.09-.69.27l-4.23 3.907c-.2.189-.32.458-.32.728v3.668c0 .319.16.628.42.817l13.89 9.838a3.98 3.98 0 0 1 1.68 3.25v53.337c0 9.908-8.06 17.942-18 17.942h-18c-9.94 0-18-8.034-18-17.942V136.09a3.99 3.99 0 0 1 1.68-3.25l13.89-9.828c.26-.189.42-.488.42-.817v-3.669a1 1 0 0 0-.32-.727l-4.23-3.898a1.03 1.03 0 0 0-.69-.269l-4.71.06c-.23 0-.45-.07-.63-.219l-4.66-3.698a1.98 1.98 0 0 1-.75-1.555V30.9c0-1.096.9-1.993 2-1.993h49.99c1.1 0 2 .897 2 1.993z"/><path fill="#001A77" d="M257 117.978a1 1 0 0 1 .32-.727l4.23-3.908c.19-.169.43-.269.69-.269l4.69.06a1 1 0 0 0 .64-.219l4.68-3.728c.48-.379.75-.947.75-1.555v-77.23c0-1.097-.9-1.994-2-1.994h-49.99c-1.1 0-2 .897-2 1.994v77.309c0 .608.28 1.187.75 1.555l4.66 3.698c.18.14.4.22.63.22l4.71-.06c.26 0 .5.09.69.269l4.23 3.897c.2.19.32.459.32.728v1.944l22-.02v-1.974z"/><path fill="#111729" d="M256.99 121.646c0 .319.16.628.42.818l13.89 9.838a3.97 3.97 0 0 1 1.68 3.249v53.338c0 9.908-8.06 17.942-18 17.942h-18c-9.94 0-18-8.034-18-17.942v-53.298c0-1.296.63-2.502 1.68-3.249l13.89-9.828c.26-.19.42-.489.42-.818v-2.721l22-.02v2.691z"/><path stroke="#333" stroke-miterlimit="10" d="M272.99 30.402v77.23c0 .608-.28 1.176-.75 1.555l-4.68 3.728c-.18.139-.4.219-.64.219l-4.69-.06c-.26 0-.5.09-.69.269l-4.23 3.908c-.2.189-.32.458-.32.727v3.668c0 .319.16.628.42.818l13.89 9.838a3.97 3.97 0 0 1 1.68 3.249v53.338c0 9.908-8.06 17.942-18 17.942h-18c-9.94 0-18-8.034-18-17.942v-53.298c0-1.296.63-2.502 1.68-3.249l13.89-9.828c.26-.19.42-.489.42-.818v-3.668c0-.279-.12-.538-.32-.728l-4.23-3.897a1.03 1.03 0 0 0-.69-.269l-4.71.06c-.23 0-.45-.07-.63-.22l-4.66-3.698a1.98 1.98 0 0 1-.75-1.555v-77.32c0-1.096.9-1.993 2-1.993h49.99c1.1 0 2 .897 2 1.994z"/><path fill="#22C55E" d="M320 117.978a1 1 0 0 1 .32-.727l4.23-3.908c.19-.169.43-.269.69-.269l4.69.06a1 1 0 0 0 .64-.219l4.68-3.728c.48-.379.75-.947.75-1.555v-77.23c0-1.097-.9-1.994-2-1.994h-49.99c-1.1 0-2 .897-2 1.994v77.309c0 .608.28 1.187.75 1.555l4.66 3.698c.18.14.4.22.63.22l4.71-.06c.26 0 .5.09.69.269l4.23 3.897c.2.19.32.459.32.728v1.944l22-.02v-1.974z"/><path fill="#22C55E" d="M319.99 121.646c0 .319.16.628.42.818l13.89 9.838a3.97 3.97 0 0 1 1.68 3.249v53.338c0 9.908-8.06 17.942-18 17.942h-18c-9.94 0-18-8.034-18-17.942v-53.298c0-1.296.63-2.502 1.68-3.249l13.89-9.828c.26-.19.42-.489.42-.818v-2.721l22-.02v2.691z"/><path stroke="#333" stroke-miterlimit="10" d="M335.99 30.402v77.23c0 .608-.28 1.176-.75 1.555l-4.68 3.728c-.18.139-.4.219-.64.219l-4.69-.06c-.26 0-.5.09-.69.269l-4.23 3.908c-.2.189-.32.458-.32.727v3.668c0 .319.16.628.42.818l13.89 9.838a3.97 3.97 0 0 1 1.68 3.249v53.338c0 9.908-8.06 17.942-18 17.942h-18c-9.94 0-18-8.034-18-17.942v-53.298c0-1.296.63-2.502 1.68-3.249l13.89-9.828c.26-.19.42-.489.42-.818v-3.668c0-.279-.12-.538-.32-.728l-4.23-3.897a1.03 1.03 0 0 0-.69-.269l-4.71.06c-.23 0-.45-.07-.63-.22l-4.66-3.698a1.98 1.98 0 0 1-.75-1.555v-77.32c0-1.096.9-1.993 2-1.993h49.99c1.1 0 2 .897 2 1.994z"/><path fill="#22C55E" d="M381.34 117.978a1 1 0 0 1 .32-.727l4.23-3.908c.19-.169.43-.269.69-.269l4.69.06a1 1 0 0 0 .64-.219l4.68-3.728c.48-.379.75-.947.75-1.555v-77.23c0-1.097-.9-1.994-2-1.994h-49.99c-1.1 0-2 .897-2 1.994v77.309c0 .608.28 1.187.75 1.555l4.66 3.698c.18.14.4.22.63.22l4.71-.06c.26 0 .5.09.69.269l4.23 3.897c.2.19.32.459.32.728v1.944l22-.02v-1.974z"/><path fill="#22C55E" d="M381.01 121.308c0 .318.16.627.42.817l13.89 9.838a3.98 3.98 0 0 1 1.68 3.25v53.337c0 9.908-8.06 17.942-18 17.942h-18c-9.94 0-18-8.034-18-17.942v-53.298c0-1.295.63-2.502 1.68-3.249l13.89-9.828c.26-.19.42-.489.42-.818v-2.721l22-.02v2.692z"/><path stroke="#333" stroke-miterlimit="10" d="M397.33 30.402v77.23c0 .608-.28 1.176-.75 1.555l-4.68 3.728c-.18.139-.4.219-.64.219l-4.69-.06c-.26 0-.5.09-.69.269l-4.23 3.908c-.2.189-.32.458-.32.727v3.668c0 .319.16.628.42.818l13.89 9.838a3.97 3.97 0 0 1 1.68 3.249v53.338c0 9.908-8.06 17.942-18 17.942h-18c-9.94 0-18-8.034-18-17.942v-53.298c0-1.296.63-2.502 1.68-3.249l13.89-9.828c.26-.19.42-.489.42-.818v-3.668c0-.279-.12-.538-.32-.728l-4.23-3.897a1.03 1.03 0 0 0-.69-.269l-4.71.06c-.23 0-.45-.07-.63-.22l-4.66-3.698a1.98 1.98 0 0 1-.75-1.555v-77.32c0-1.096.9-1.993 2-1.993h49.99c1.1 0 2 .897 2 1.994z"/><path fill="#E58934" d="M446 117.978a1 1 0 0 1 .32-.727l4.23-3.908c.19-.169.43-.269.69-.269l4.69.06a1 1 0 0 0 .64-.219l4.68-3.728c.48-.379.75-.947.75-1.555v-77.23c0-1.097-.9-1.994-2-1.994h-49.99c-1.1 0-2 .897-2 1.994v77.309c0 .608.28 1.187.75 1.555l4.66 3.698c.18.14.4.22.63.22l4.71-.06c.26 0 .5.09.69.269l4.23 3.897c.2.19.32.459.32.728v1.944l22-.02v-1.974z"/><path fill="#E58934" d="M445.99 121.646c0 .319.16.628.42.818l13.89 9.838a3.97 3.97 0 0 1 1.68 3.249v53.338c0 9.908-8.06 17.942-18 17.942h-18c-9.94 0-18-8.034-18-17.942v-53.298c0-1.296.63-2.502 1.68-3.249l13.89-9.828c.26-.19.42-.489.42-.818v-2.721l22-.02v2.691z"/><path stroke="#333" stroke-miterlimit="10" d="M461.99 30.402v77.23c0 .608-.28 1.176-.75 1.555l-4.68 3.728c-.18.139-.4.219-.64.219l-4.69-.06c-.26 0-.5.09-.69.269l-4.23 3.908c-.2.189-.32.458-.32.727v3.668c0 .319.16.628.42.818l13.89 9.838a3.97 3.97 0 0 1 1.68 3.249v53.338c0 9.908-8.06 17.942-18 17.942h-18c-9.94 0-18-8.034-18-17.942v-53.298c0-1.296.63-2.502 1.68-3.249l13.89-9.828c.26-.19.42-.489.42-.818v-3.668c0-.279-.12-.538-.32-.728l-4.23-3.897a1.03 1.03 0 0 0-.69-.269l-4.71.06c-.23 0-.45-.07-.63-.22l-4.66-3.698a1.98 1.98 0 0 1-.75-1.555v-77.32c0-1.096.9-1.993 2-1.993h49.99c1.1 0 2 .897 2 1.994z"/><path fill="#E58934" d="M509.02 118.477c0-.279.12-.539.32-.728l4.23-3.907c.19-.17.43-.27.69-.27l4.69.06c.23 0 .46-.069.64-.219l4.68-3.728c.48-.379.75-.947.75-1.555V30.9c0-1.096-.9-1.993-2-1.993h-49.99c-1.1 0-2 .897-2 1.993v77.31c0 .608.28 1.186.75 1.555l4.66 3.698c.18.139.4.219.63.219l4.71-.06c.26 0 .5.09.69.269l4.23 3.898c.2.189.32.458.32.727v1.944l22-.02v-1.973z"/><path fill="#E58934" d="M509.01 122.301c0 .318.16.627.42.816l13.89 9.82a3.97 3.97 0 0 1 1.68 3.244v53.239c0 9.89-8.06 17.909-18 17.909h-18c-9.94 0-18-8.019-18-17.909v-53.2c0-1.293.63-2.497 1.68-3.243l13.89-9.81c.26-.189.42-.488.42-.816v-2.718l22-.02v2.688z"/><path stroke="#333" stroke-miterlimit="10" d="M525.01 30.9v77.23c0 .608-.28 1.176-.75 1.555l-4.68 3.728c-.18.14-.4.219-.64.219l-4.69-.06c-.26 0-.5.09-.69.27l-4.23 3.907c-.2.189-.32.458-.32.728v3.668c0 .319.16.628.42.817l13.89 9.838a3.98 3.98 0 0 1 1.68 3.25v53.337c0 9.908-8.06 17.942-18 17.942h-18c-9.94 0-18-8.034-18-17.942V136.09a3.99 3.99 0 0 1 1.68-3.25l13.89-9.828c.26-.189.42-.488.42-.817v-3.669a1 1 0 0 0-.32-.727l-4.23-3.898a1.03 1.03 0 0 0-.69-.269l-4.71.06c-.23 0-.45-.07-.63-.219l-4.66-3.698a1.98 1.98 0 0 1-.75-1.555V30.9c0-1.096.9-1.993 2-1.993h49.99c1.1 0 2 .897 2 1.993z"/><path fill="#fff" d="M113.33 176.2h-3.67v-14.703c0-1.754.04-3.149.12-4.176-.24.249-.53.528-.88.827q-.525.448-3.51 2.871l-1.84-2.323 6.72-5.263h3.06zm22.97-11.383c0 3.957-.64 6.897-1.91 8.811-1.28 1.924-3.23 2.881-5.85 2.881s-4.47-.987-5.78-2.971-1.97-4.894-1.97-8.721.64-6.978 1.91-8.882c1.28-1.904 3.22-2.86 5.84-2.86s4.48.996 5.8 2.99c1.32 1.993 1.97 4.914 1.97 8.752zm-11.8 0c0 3.11.32 5.322.96 6.648s1.66 1.994 3.07 1.994 2.43-.678 3.09-2.024c.65-1.345.98-3.558.98-6.618s-.33-5.263-.98-6.629-1.68-2.043-3.09-2.043-2.43.667-3.07 2.013-.96 3.559-.96 6.669zm54.26 11.692h-3.67v-14.703c0-1.754.04-3.149.12-4.176-.24.249-.53.528-.88.827q-.525.449-3.51 2.871l-1.84-2.323 6.72-5.263h3.06zm18.27 0h-3.67v-14.703c0-1.754.04-3.149.12-4.176-.24.249-.53.528-.88.827q-.525.449-3.51 2.871l-1.84-2.323 6.72-5.263h3.06zm42.38 0h-3.67v-14.703c0-1.754.04-3.149.12-4.176-.24.249-.53.528-.88.827q-.525.449-3.51 2.871l-1.84-2.322 6.72-5.263h3.06zm22.97 0H246.9v-2.771l5.89-5.901c1.74-1.774 2.89-3.03 3.46-3.778.57-.737.98-1.445 1.24-2.093.26-.658.39-1.356.39-2.103 0-1.027-.31-1.834-.93-2.432-.62-.589-1.48-.888-2.57-.888-.88 0-1.72.16-2.54.479s-1.76.907-2.84 1.744l-1.98-2.412c1.27-1.066 2.5-1.824 3.7-2.273 1.2-.448 2.47-.667 3.83-.667 2.12 0 3.83.548 5.11 1.654 1.28 1.107 1.92 2.592 1.92 4.466 0 1.026-.19 2.003-.55 2.93-.37.927-.94 1.874-1.7 2.861s-2.04 2.313-3.82 3.977l-3.97 3.828v.159h10.84zm40.13-.309h-3.67v-14.703c0-1.754.04-3.149.12-4.176-.24.249-.53.528-.88.827q-.525.448-3.51 2.871l-1.84-2.323 6.72-5.263h3.06zm22.11-17.533c0 1.445-.42 2.641-1.27 3.608-.84.957-2.03 1.605-3.56 1.944v.119c1.83.229 3.21.798 4.12 1.705q1.38 1.36 1.38 3.618c0 2.193-.78 3.877-2.33 5.074-1.55 1.186-3.76 1.784-6.62 1.784-2.53 0-4.67-.409-6.41-1.226v-3.26c.97.479 1.99.848 3.08 1.107q1.62.388 3.12.388c1.77 0 3.09-.328 3.97-.976s1.31-1.665 1.31-3.041c0-1.216-.48-2.103-1.45-2.681-.97-.568-2.49-.857-4.56-.857h-1.98v-2.971h2.02c3.65 0 5.47-1.255 5.47-3.767 0-.977-.32-1.725-.95-2.263-.64-.528-1.57-.797-2.81-.797-.87 0-1.7.119-2.5.368-.8.25-1.75.718-2.84 1.426l-1.8-2.552c2.09-1.535 4.53-2.302 7.3-2.302 2.3 0 4.1.498 5.39 1.475 1.29.987 1.94 2.342 1.94 4.077zm40.49 17.842h-3.67v-14.702q0-2.635.12-4.177c-.24.249-.53.528-.88.827q-.525.449-3.51 2.871l-1.84-2.322 6.72-5.263h3.06zm23.78-4.964h-3.08v4.964h-3.58v-4.964h-10.44v-2.821l10.44-15.041h3.58v14.832h3.08v3.04zm-6.66-3.04v-5.712c0-2.033.05-3.698.16-5.004h-.12c-.29.688-.75 1.515-1.38 2.492l-5.67 8.224h7.02zm110.05 7.695h-3.67v-14.703c0-1.754.04-3.149.12-4.176-.24.249-.53.528-.88.827q-.525.448-3.51 2.871l-1.84-2.323 6.72-5.263h3.06zm7.55-9.699q0-13.367 10.92-13.367c1.15 0 2.11.09 2.91.27v3.05c-.79-.23-1.71-.339-2.75-.339-2.45 0-4.29.658-5.52 1.963s-1.9 3.409-2 6.29h.19a5.05 5.05 0 0 1 2.06-1.954c.88-.458 1.93-.697 3.12-.697 2.07 0 3.69.638 4.84 1.903 1.16 1.266 1.73 2.991 1.73 5.154 0 2.392-.67 4.276-2.01 5.661-1.34 1.386-3.16 2.084-5.48 2.084-1.64 0-3.06-.389-4.27-1.176-1.21-.788-2.14-1.924-2.79-3.429-.65-1.496-.98-3.3-.98-5.413zm7.96 6.988c1.26 0 2.23-.409 2.91-1.217q1.02-1.21 1.02-3.468 0-1.96-.96-3.08c-.64-.748-1.6-1.117-2.88-1.117q-1.185 0-2.19.509c-.67.339-1.19.797-1.58 1.385s-.58 1.186-.58 1.794c0 1.466.4 2.702 1.2 3.698.8 1.007 1.81 1.505 3.05 1.505zm-79.25 2.412h-3.67v-14.703c0-1.754.04-3.15.12-4.176-.24.249-.53.528-.88.827q-.525.448-3.51 2.871l-1.84-2.323 6.72-5.263h3.06zm15.23-14.214c2.3 0 4.12.608 5.47 1.824s2.02 2.871 2.02 4.964c0 2.432-.76 4.326-2.29 5.691s-3.7 2.044-6.51 2.044c-2.55 0-4.56-.409-6.02-1.226v-3.32q1.26.719 2.91 1.107c1.09.259 2.11.389 3.05.389q2.49 0 3.78-1.107c.86-.737 1.3-1.814 1.3-3.239 0-2.722-1.74-4.077-5.22-4.077-.49 0-1.09.05-1.81.149-.72.1-1.35.21-1.89.339l-1.64-.967.88-11.124h11.88v3.26h-8.64l-.52 5.642c.36-.06.81-.13 1.34-.22.53-.079 1.17-.119 1.93-.119zm-379.03 1.545c0 4.485-.91 7.834-2.72 10.047q-2.715 3.32-8.19 3.32c-1.39 0-2.38-.08-2.98-.25v-3.07c.93.259 1.86.389 2.8.389 2.48 0 4.33-.668 5.55-1.994 1.22-1.325 1.88-3.418 2-6.259h-.19c-.62.937-1.36 1.614-2.23 2.023-.87.419-1.89.618-3.05.618q-3.03 0-4.77-1.884c-1.16-1.256-1.73-2.98-1.73-5.173q0-3.558 2.01-5.682c1.34-1.405 3.16-2.113 5.48-2.113 1.62 0 3.04.399 4.25 1.186 1.21.788 2.14 1.934 2.8 3.439s.98 3.3.98 5.393zm-7.97-6.978c-1.27 0-2.25.409-2.92 1.236-.68.828-1.02 1.984-1.02 3.479 0 1.296.31 2.323.95 3.06.63.748 1.59 1.117 2.87 1.117s2.28-.369 3.12-1.107c.84-.737 1.27-1.595 1.27-2.581a6.3 6.3 0 0 0-.54-2.592c-.36-.807-.86-1.445-1.51-1.904q-.975-.7-2.22-.698zm.95-74.459h-3.67V67.093q0-2.635.12-4.177c-.24.25-.53.529-.88.828q-.525.448-3.51 2.87l-1.84-2.322 6.72-5.263h3.06zm132.05-17.852c0 1.445-.42 2.642-1.27 3.608-.84.957-2.03 1.605-3.56 1.944v.12c1.83.229 3.21.797 4.12 1.704q1.38 1.36 1.38 3.618c0 2.193-.78 3.878-2.33 5.074-1.55 1.186-3.76 1.784-6.62 1.784-2.53 0-4.67-.408-6.41-1.226v-3.26c.97.48 1.99.848 3.08 1.107q1.62.39 3.12.389c1.77 0 3.09-.329 3.97-.977s1.31-1.664 1.31-3.04c0-1.216-.48-2.103-1.45-2.681-.97-.569-2.49-.858-4.56-.858h-1.98v-2.97h2.02c3.65 0 5.47-1.256 5.47-3.768 0-.977-.32-1.724-.95-2.262-.64-.529-1.57-.798-2.81-.798-.87 0-1.7.12-2.5.369-.8.25-1.75.718-2.84 1.425l-1.8-2.551c2.09-1.535 4.53-2.303 7.3-2.303 2.3 0 4.1.498 5.39 1.475 1.29.987 1.94 2.343 1.94 4.077zm64.26 12.888h-3.08v4.964h-3.58v-4.964h-10.44v-2.82l10.44-15.042h3.58v14.832h3.08v3.04zm-6.66-3.04v-5.712c0-2.033.05-3.697.16-5.003h-.12c-.29.688-.75 1.515-1.38 2.492l-5.67 8.223h7.02zm62.58-6.519c2.3 0 4.12.608 5.47 1.824s2.02 2.871 2.02 4.964c0 2.433-.76 4.326-2.29 5.692s-3.7 2.043-6.51 2.043c-2.55 0-4.56-.408-6.02-1.226V77.25q1.26.717 2.91 1.106c1.09.26 2.11.39 3.05.39q2.49 0 3.78-1.107c.86-.738 1.3-1.814 1.3-3.24 0-2.721-1.74-4.077-5.22-4.077-.49 0-1.09.05-1.81.15s-1.35.21-1.89.339l-1.64-.967.88-11.124h11.88v3.26h-8.64l-.52 5.641c.36-.06.81-.13 1.34-.22.53-.079 1.17-.119 1.93-.119h-.02zM127.22 81.795h-15.48v-2.77l5.89-5.901c1.74-1.775 2.89-3.03 3.46-3.778.57-.738.98-1.446 1.24-2.094.26-.657.39-1.355.39-2.103q0-1.537-.93-2.432c-.62-.588-1.48-.887-2.57-.887-.88 0-1.72.16-2.54.479s-1.76.907-2.84 1.744l-1.98-2.412c1.27-1.067 2.5-1.824 3.7-2.273s2.47-.668 3.83-.668c2.12 0 3.83.548 5.11 1.655s1.92 2.591 1.92 4.465c0 1.027-.19 2.004-.55 2.93-.37.928-.94 1.875-1.7 2.862-.76.986-2.04 2.312-3.82 3.977l-3.97 3.827v.16h10.84zm235.36-10.017q0-13.368 10.92-13.367c1.15 0 2.11.09 2.91.269v3.05c-.79-.23-1.71-.339-2.75-.339-2.45 0-4.29.658-5.52 1.964s-1.9 3.409-2 6.29h.19a5.05 5.05 0 0 1 2.06-1.954c.88-.459 1.93-.698 3.12-.698 2.07 0 3.69.638 4.84 1.904 1.16 1.266 1.73 2.99 1.73 5.153 0 2.393-.67 4.276-2.01 5.662-1.34 1.385-3.16 2.083-5.48 2.083-1.64 0-3.06-.389-4.27-1.176s-2.14-1.924-2.79-3.429c-.65-1.495-.98-3.3-.98-5.412zm7.96 6.997c1.26 0 2.23-.409 2.91-1.216q1.02-1.211 1.02-3.469 0-1.958-.96-3.08c-.64-.747-1.6-1.116-2.88-1.116q-1.185 0-2.19.508c-.67.339-1.19.797-1.58 1.386s-.58 1.186-.58 1.794c0 1.465.4 2.701 1.2 3.698.8 1.007 1.81 1.505 3.05 1.505zm59.4 3.02 9.03-19.517h-11.88v-3.22h15.8v2.553l-8.98 20.184zm69.88-23.375c2.17 0 3.88.5 5.14 1.486q1.89 1.496 1.89 3.977c0 2.333-1.41 4.197-4.22 5.572 1.79.897 3.06 1.834 3.82 2.821.75.987 1.13 2.083 1.13 3.3 0 1.883-.69 3.388-2.08 4.515-1.39 1.136-3.26 1.694-5.62 1.694s-4.4-.528-5.77-1.585-2.05-2.561-2.05-4.505a5.83 5.83 0 0 1 1.07-3.419c.71-1.017 1.88-1.914 3.51-2.701-1.4-.828-2.39-1.705-2.98-2.632a5.7 5.7 0 0 1-.89-3.11q0-2.481 1.95-3.947c1.3-.977 3-1.475 5.09-1.475zm-4.24 17.165q0 1.615 1.14 2.512t3.09.897c1.3 0 2.39-.309 3.13-.927s1.12-1.455 1.12-2.512c0-.837-.34-1.604-1.03-2.302s-1.73-1.336-3.12-1.934l-.45-.2c-1.38.599-2.37 1.267-2.97 1.984s-.91 1.545-.91 2.482m4.21-14.343c-1.04 0-1.88.259-2.52.767-.64.519-.95 1.216-.95 2.094 0 .538.11 1.026.34 1.445.23.428.56.817 1 1.156q.66.524 2.22 1.256c1.25-.548 2.13-1.126 2.65-1.734s.77-1.316.77-2.123c0-.878-.32-1.585-.96-2.094s-1.49-.767-2.55-.767"/></g><path stroke="#333" d="M0 236.5h551"/></g><path stroke="#333" d="M.5.5h550v308H.5z"/><defs><clipPath id="a"><path fill="#fff" d="M0 0h551v309H0z"/></clipPath></defs></svg>