<svg xmlns="http://www.w3.org/2000/svg" xmlns:xlink="http://www.w3.org/1999/xlink" viewBox="0 0 730.25 373.411"><style>.P{fill:#353535}.Q{fill:#a0a0a0}</style><rect width="730" height="285" x=".125" y=".125" fill="#62605f" rx="3"/><path d="M727.125 285.25h-724A3.13 3.13 0 0 1 0 282.125v-279A3.13 3.13 0 0 1 3.125 0h724a3.13 3.13 0 0 1 3.125 3.125v279a3.13 3.13 0 0 1-3.125 3.125m-724-285A2.88 2.88 0 0 0 .25 3.125v279A2.88 2.88 0 0 0 3.125 285h724a2.88 2.88 0 0 0 2.875-2.875v-279A2.88 2.88 0 0 0 727.125.25z" class="P"/><rect width="720" height="275" x="5.125" y="5.125" fill="#777576" rx="3"/><path d="M722.125 280.25h-714A3.13 3.13 0 0 1 5 277.125v-269A3.13 3.13 0 0 1 8.125 5h714a3.13 3.13 0 0 1 3.125 3.125v269a3.13 3.13 0 0 1-3.125 3.125m-714-275A2.88 2.88 0 0 0 5.25 8.125v269A2.88 2.88 0 0 0 8.125 280h714a2.88 2.88 0 0 0 2.875-2.875v-269a2.88 2.88 0 0 0-2.875-2.875z" class="P"/><path fill="#ab3333" d="M83.034 145.292v-3.087c0-.462.24-.89.634-1.132l4.13-2.531c.209-.128.449-.196.693-.196h4.568c.356 0 .698-.143.948-.398l5.064-5.164c.243-.248.38-.582.38-.929V28.681a2.17 2.17 0 0 0-2.167-2.167H29.409a2.17 2.17 0 0 0-2.167 2.167v103.176c0 .347.136.681.38.929l5.064 5.164c.25.255.591.398.948.398h4.568c.245 0 .485.068.693.196l4.131 2.531c.394.241.634.67.634 1.132v3.087z"/><use xlink:href="#B" fill="#2a2a2a"/><use xlink:href="#C" class="Q"/><path d="M77.742 263.678h-28.79c-14.168-.013-25.651-11.492-25.67-25.66v-73a1.84 1.84 0 0 1 .519-1.276l16.124-16.444a.82.82 0 0 0 .237-.57v-1.52a.82.82 0 0 0-.397-.701l-4.135-2.543a.9.9 0 0 0-.428-.116h-4.57a1.8 1.8 0 0 1-1.311-.553l-5.057-5.157a1.84 1.84 0 0 1-.523-1.28V24.678a2.67 2.67 0 0 1 2.67-2.66h73.87a2.67 2.67 0 0 1 2.67 2.66v110.18a1.84 1.84 0 0 1-.519 1.276l-5.064 5.164c-.344.352-.815.55-1.307.55h-4.57a.85.85 0 0 0-.433.119l-4.125 2.537a.83.83 0 0 0-.402.704v1.52a.82.82 0 0 0 .233.566l16.127 16.447a1.84 1.84 0 0 1 .52 1.277v73c-.019 14.168-11.502 25.646-25.67 25.66zm-51.33-240.66a1.667 1.667 0 0 0-1.67 1.66v110.18a.84.84 0 0 0 .241.584l5.056 5.156a.8.8 0 0 0 .593.25h4.57c.33.002.653.09.938.256l4.144 2.548c.544.33.877.919.878 1.556v1.52a1.8 1.8 0 0 1-.527 1.274l-16.116 16.436a.84.84 0 0 0-.237.58v73c.018 13.616 11.054 24.647 24.67 24.66h28.79c13.616-.013 24.652-11.044 24.67-24.66v-73a.84.84 0 0 0-.239-.583l-16.118-16.438a1.8 1.8 0 0 1-.523-1.27v-1.52a1.83 1.83 0 0 1 .883-1.559l4.125-2.537a1.84 1.84 0 0 1 .952-.264h4.57a.82.82 0 0 0 .59-.247l5.063-5.164a.84.84 0 0 0 .237-.58V24.678a1.67 1.67 0 0 0-1.67-1.66zm48.33 237.66h-22.79c-14.168-.013-25.651-11.492-25.67-25.66v-68a1.84 1.84 0 0 1 .519-1.276l16.124-16.444a.82.82 0 0 0 .237-.57v-6.52a.82.82 0 0 0-.397-.701l-4.135-2.543a.9.9 0 0 0-.428-.116h-4.57a1.8 1.8 0 0 1-1.311-.553l-5.057-5.157a1.84 1.84 0 0 1-.523-1.28V28.678a2.67 2.67 0 0 1 2.67-2.66h67.87a2.67 2.67 0 0 1 2.67 2.66v103.18a1.84 1.84 0 0 1-.519 1.276l-5.064 5.164c-.344.352-.815.55-1.307.55h-4.57a.85.85 0 0 0-.433.119l-4.125 2.537a.83.83 0 0 0-.402.704v6.52a.82.82 0 0 0 .233.566l16.124 16.443a1.84 1.84 0 0 1 .523 1.28v68c-.019 14.168-11.502 25.646-25.67 25.66zm-45.33-233.66a1.667 1.667 0 0 0-1.67 1.66v103.18a.84.84 0 0 0 .241.584l5.056 5.156a.8.8 0 0 0 .593.25h4.57c.33.002.653.09.938.256l4.144 2.548c.544.33.877.919.878 1.556v6.52a1.8 1.8 0 0 1-.527 1.274l-16.116 16.436a.84.84 0 0 0-.237.58v68c.018 13.616 11.054 24.647 24.67 24.66h22.79c13.616-.013 24.652-11.044 24.67-24.66v-68a.84.84 0 0 0-.24-.584l-16.117-16.437a1.8 1.8 0 0 1-.523-1.27v-6.52a1.83 1.83 0 0 1 .883-1.559l4.125-2.537a1.84 1.84 0 0 1 .952-.264h4.57a.82.82 0 0 0 .59-.247l5.063-5.164a.84.84 0 0 0 .237-.58V28.678a1.67 1.67 0 0 0-1.67-1.66z" class="P"/><use xlink:href="#D" fill="#063"/><use xlink:href="#E" fill="#2a2a2a"/><use xlink:href="#F" class="Q"/><path d="M163.964 263.678h-28.79c-14.168-.013-25.651-11.492-25.67-25.66v-73a1.84 1.84 0 0 1 .519-1.276l16.124-16.444a.82.82 0 0 0 .237-.57v-1.52a.82.82 0 0 0-.397-.701l-4.135-2.543a.9.9 0 0 0-.428-.116h-4.57a1.8 1.8 0 0 1-1.311-.553l-5.057-5.157a1.84 1.84 0 0 1-.523-1.28V24.678a2.67 2.67 0 0 1 2.67-2.66h73.87a2.67 2.67 0 0 1 2.67 2.66v110.18a1.84 1.84 0 0 1-.52 1.277l-5.063 5.164a1.82 1.82 0 0 1-1.307.55h-4.57a.85.85 0 0 0-.433.119l-4.125 2.537a.83.83 0 0 0-.402.704v1.52a.82.82 0 0 0 .233.566l16.127 16.447a1.84 1.84 0 0 1 .52 1.277v73c-.019 14.168-11.502 25.646-25.67 25.66zm-51.33-240.66a1.667 1.667 0 0 0-1.67 1.66v110.18a.84.84 0 0 0 .241.584l5.056 5.156a.8.8 0 0 0 .593.25h4.57c.33.002.653.09.938.256l4.144 2.548c.544.33.877.919.878 1.556v1.52a1.8 1.8 0 0 1-.527 1.274l-16.116 16.436a.84.84 0 0 0-.237.58v73c.018 13.616 11.054 24.647 24.67 24.66h28.79c13.616-.013 24.652-11.044 24.67-24.66v-73a.84.84 0 0 0-.239-.583l-16.118-16.438a1.8 1.8 0 0 1-.523-1.27v-1.52a1.83 1.83 0 0 1 .883-1.559l4.125-2.537a1.84 1.84 0 0 1 .952-.264h4.57a.82.82 0 0 0 .589-.247l5.063-5.164a.84.84 0 0 0 .237-.58V24.678a1.67 1.67 0 0 0-1.67-1.66zm48.33 237.66h-22.79c-14.168-.013-25.651-11.492-25.67-25.66v-68a1.84 1.84 0 0 1 .519-1.276l16.124-16.444a.82.82 0 0 0 .237-.57v-6.52a.82.82 0 0 0-.397-.701l-4.135-2.543a.9.9 0 0 0-.428-.116h-4.57a1.8 1.8 0 0 1-1.311-.553l-5.057-5.157a1.84 1.84 0 0 1-.523-1.28V28.678a2.67 2.67 0 0 1 2.67-2.66h67.87a2.67 2.67 0 0 1 2.67 2.66v103.18a1.84 1.84 0 0 1-.52 1.277l-5.063 5.164a1.82 1.82 0 0 1-1.307.55h-4.57a.85.85 0 0 0-.433.119l-4.125 2.537a.83.83 0 0 0-.402.704v6.52a.82.82 0 0 0 .233.566l16.124 16.443a1.84 1.84 0 0 1 .523 1.28v68c-.019 14.168-11.502 25.646-25.67 25.66zm-45.33-233.66a1.667 1.667 0 0 0-1.67 1.66v103.18a.84.84 0 0 0 .241.584l5.056 5.156a.8.8 0 0 0 .593.25h4.57c.33.002.653.09.938.256l4.144 2.548c.544.33.877.919.878 1.556v6.52a1.8 1.8 0 0 1-.527 1.274l-16.116 16.436a.84.84 0 0 0-.237.58v68c.018 13.616 11.054 24.647 24.67 24.66h22.79c13.616-.013 24.652-11.044 24.67-24.66v-68a.84.84 0 0 0-.24-.584l-16.117-16.437a1.8 1.8 0 0 1-.523-1.27v-6.52a1.83 1.83 0 0 1 .883-1.559l4.125-2.537a1.84 1.84 0 0 1 .952-.264h4.57a.82.82 0 0 0 .589-.247l5.063-5.164a.84.84 0 0 0 .237-.58V28.678a1.67 1.67 0 0 0-1.67-1.66z" class="P"/><use xlink:href="#D" x="86.222" fill="#d7ab14"/><use xlink:href="#E" x="86.223" fill="#63f"/><use xlink:href="#F" x="86.223" class="Q"/><path d="M250.187 263.678h-28.79c-14.168-.013-25.651-11.492-25.67-25.66v-73a1.84 1.84 0 0 1 .519-1.276l16.124-16.444a.82.82 0 0 0 .237-.57v-1.52a.82.82 0 0 0-.397-.701l-4.134-2.543a.9.9 0 0 0-.429-.116h-4.57a1.8 1.8 0 0 1-1.311-.553l-5.056-5.157a1.84 1.84 0 0 1-.523-1.28V24.678a2.67 2.67 0 0 1 2.67-2.66h73.87a2.67 2.67 0 0 1 2.67 2.66v110.18a1.84 1.84 0 0 1-.52 1.277l-5.063 5.164a1.82 1.82 0 0 1-1.307.55h-4.57a.85.85 0 0 0-.433.119l-4.125 2.537a.83.83 0 0 0-.402.704v1.52a.82.82 0 0 0 .233.566l16.127 16.447a1.84 1.84 0 0 1 .52 1.277v73c-.019 14.168-11.502 25.646-25.67 25.66zm-51.33-240.66a1.667 1.667 0 0 0-1.67 1.66v110.18a.84.84 0 0 0 .241.584l5.056 5.156a.8.8 0 0 0 .593.25h4.57a1.9 1.9 0 0 1 .938.256l4.144 2.548c.544.33.877.919.878 1.556v1.52a1.8 1.8 0 0 1-.527 1.274l-16.116 16.436a.84.84 0 0 0-.237.58v73c.018 13.616 11.054 24.647 24.67 24.66h28.79c13.616-.013 24.652-11.044 24.67-24.66v-73a.84.84 0 0 0-.239-.583L258.5 147.998a1.8 1.8 0 0 1-.523-1.27v-1.52a1.83 1.83 0 0 1 .883-1.559l4.125-2.537a1.84 1.84 0 0 1 .952-.264h4.57a.82.82 0 0 0 .589-.247l5.063-5.164a.84.84 0 0 0 .237-.58V24.678a1.67 1.67 0 0 0-1.67-1.66zm48.33 237.66h-22.79c-14.168-.013-25.651-11.492-25.67-25.66v-68a1.84 1.84 0 0 1 .519-1.276l16.124-16.444a.82.82 0 0 0 .237-.57v-6.52a.82.82 0 0 0-.397-.701l-4.134-2.543a.9.9 0 0 0-.429-.116h-4.57a1.8 1.8 0 0 1-1.311-.553l-5.056-5.157a1.84 1.84 0 0 1-.523-1.28V28.678a2.67 2.67 0 0 1 2.67-2.66h67.87a2.67 2.67 0 0 1 2.67 2.66v103.18a1.84 1.84 0 0 1-.52 1.277l-5.063 5.164a1.82 1.82 0 0 1-1.307.55h-4.57a.85.85 0 0 0-.433.119l-4.125 2.537a.83.83 0 0 0-.402.704v6.52a.82.82 0 0 0 .233.566l16.124 16.443a1.84 1.84 0 0 1 .523 1.28v68c-.019 14.168-11.502 25.646-25.67 25.66m-45.33-233.66a1.667 1.667 0 0 0-1.67 1.66v103.18a.84.84 0 0 0 .241.584l5.056 5.156a.8.8 0 0 0 .593.25h4.57a1.9 1.9 0 0 1 .938.256l4.144 2.548c.544.33.877.919.878 1.556v6.52a1.8 1.8 0 0 1-.527 1.274l-16.116 16.436a.84.84 0 0 0-.237.58v68c.018 13.616 11.054 24.647 24.67 24.66h22.79c13.616-.013 24.652-11.044 24.67-24.66v-68a.84.84 0 0 0-.24-.584L255.5 149.998a1.8 1.8 0 0 1-.523-1.27v-6.52a1.83 1.83 0 0 1 .883-1.559l4.125-2.537a1.84 1.84 0 0 1 .952-.264h4.57a.82.82 0 0 0 .589-.247l5.063-5.164a.84.84 0 0 0 .237-.58V28.678a1.67 1.67 0 0 0-1.67-1.66z" class="P"/><path fill="#369" d="M341.701 145.292v-3.087c0-.462.24-.89.634-1.132l4.131-2.531c.209-.128.449-.196.693-.196h4.568c.356 0 .698-.143.948-.398l5.064-5.164c.243-.248.38-.582.38-.929V28.681a2.17 2.17 0 0 0-2.167-2.167h-67.875a2.17 2.17 0 0 0-2.167 2.167v103.176c0 .347.136.681.38.929l5.064 5.164c.25.254.591.398.948.398h4.568c.245 0 .485.068.693.196l4.131 2.531c.394.241.634.67.634 1.132v3.087z"/><use xlink:href="#E" x="172.445" fill="#2a2a2a"/><use xlink:href="#G" class="Q"/><path d="M336.409 263.678h-28.79c-14.168-.013-25.651-11.492-25.67-25.66v-73c.001-.477.187-.935.52-1.277l16.123-16.443a.82.82 0 0 0 .237-.57v-1.52a.82.82 0 0 0-.397-.701l-4.134-2.543a.9.9 0 0 0-.428-.116h-4.57a1.8 1.8 0 0 1-1.31-.553l-5.057-5.157a1.84 1.84 0 0 1-.523-1.28V24.678a2.67 2.67 0 0 1 2.67-2.66h73.87a2.67 2.67 0 0 1 2.67 2.66v110.18a1.84 1.84 0 0 1-.52 1.277l-5.063 5.164a1.82 1.82 0 0 1-1.307.55h-4.57a.85.85 0 0 0-.433.119l-4.125 2.537a.83.83 0 0 0-.402.704v1.52a.82.82 0 0 0 .233.566l16.127 16.447c.333.342.519.8.52 1.277v73c-.019 14.168-11.503 25.647-25.67 25.66zm-51.33-240.66a1.67 1.67 0 0 0-1.67 1.66v110.18a.84.84 0 0 0 .241.584l5.057 5.156a.8.8 0 0 0 .593.25h4.57c.33.002.653.09.938.256l4.144 2.548c.544.33.877.919.878 1.556v1.52a1.8 1.8 0 0 1-.527 1.274l-16.116 16.436a.84.84 0 0 0-.237.58v73c.018 13.616 11.055 24.647 24.67 24.66h28.79c13.616-.012 24.652-11.044 24.67-24.66v-73a.84.84 0 0 0-.24-.583l-16.117-16.438a1.8 1.8 0 0 1-.523-1.27v-1.52a1.83 1.83 0 0 1 .883-1.559l4.125-2.537a1.84 1.84 0 0 1 .952-.264h4.57a.82.82 0 0 0 .589-.247l5.063-5.164a.84.84 0 0 0 .237-.58V24.678a1.67 1.67 0 0 0-1.67-1.66zm48.33 237.66h-22.79c-14.168-.013-25.651-11.492-25.67-25.66v-68c.001-.477.187-.935.52-1.277l16.123-16.443a.82.82 0 0 0 .237-.57v-6.52a.82.82 0 0 0-.397-.701l-4.134-2.543a.9.9 0 0 0-.428-.116h-4.57a1.8 1.8 0 0 1-1.31-.553l-5.057-5.157a1.84 1.84 0 0 1-.523-1.28V28.678a2.67 2.67 0 0 1 2.67-2.66h67.87a2.67 2.67 0 0 1 2.67 2.66v103.18a1.84 1.84 0 0 1-.52 1.277l-5.063 5.164a1.82 1.82 0 0 1-1.307.55h-4.57a.85.85 0 0 0-.433.119l-4.125 2.537a.83.83 0 0 0-.402.704v6.52a.82.82 0 0 0 .233.566l16.124 16.444a1.84 1.84 0 0 1 .523 1.28v68c-.019 14.168-11.503 25.647-25.67 25.66zm-45.33-233.66a1.67 1.67 0 0 0-1.67 1.66v103.18a.84.84 0 0 0 .241.584l5.057 5.156a.8.8 0 0 0 .593.25h4.57c.33.002.653.09.938.256l4.144 2.548c.544.33.877.919.878 1.556v6.52a1.8 1.8 0 0 1-.527 1.274l-16.116 16.436a.84.84 0 0 0-.237.58v68c.018 13.616 11.055 24.647 24.67 24.66h22.79c13.616-.012 24.652-11.044 24.67-24.66v-68a.84.84 0 0 0-.241-.583l-16.116-16.437a1.8 1.8 0 0 1-.523-1.27v-6.52a1.83 1.83 0 0 1 .883-1.559l4.125-2.537a1.84 1.84 0 0 1 .952-.264h4.57a.82.82 0 0 0 .589-.247l5.063-5.164a.84.84 0 0 0 .237-.58V28.678a1.67 1.67 0 0 0-1.67-1.66z" class="P"/><g fill="#5ab860"><use xlink:href="#D" x="258.667"/><use xlink:href="#B" x="344.889"/></g><use xlink:href="#C" x="344.889" class="Q"/><path d="M422.631 263.678h-28.79c-14.168-.013-25.651-11.492-25.67-25.66v-73c.001-.477.187-.935.52-1.277l16.123-16.443a.82.82 0 0 0 .237-.57v-1.52a.82.82 0 0 0-.397-.701l-4.134-2.543a.9.9 0 0 0-.428-.116h-4.57a1.8 1.8 0 0 1-1.31-.553l-5.057-5.157a1.84 1.84 0 0 1-.523-1.28V24.678a2.67 2.67 0 0 1 2.67-2.66h73.87a2.67 2.67 0 0 1 2.67 2.66v110.18a1.84 1.84 0 0 1-.52 1.277l-5.063 5.164c-.344.352-.815.55-1.307.55h-4.57a.85.85 0 0 0-.433.119l-4.125 2.537a.83.83 0 0 0-.402.704v1.52a.82.82 0 0 0 .233.566l16.127 16.447c.333.342.519.8.52 1.277v73c-.019 14.168-11.502 25.646-25.67 25.66zm-51.33-240.66a1.667 1.667 0 0 0-1.67 1.66v110.18a.85.85 0 0 0 .24.584l5.057 5.156a.8.8 0 0 0 .593.25h4.57c.33.002.653.09.938.256l4.143 2.548c.544.33.877.919.878 1.556v1.52a1.8 1.8 0 0 1-.527 1.274l-16.116 16.436a.84.84 0 0 0-.237.58v73c.018 13.616 11.055 24.647 24.67 24.66h28.79c13.616-.013 24.652-11.044 24.67-24.66v-73a.84.84 0 0 0-.241-.583l-16.116-16.437a1.8 1.8 0 0 1-.523-1.27v-1.52a1.83 1.83 0 0 1 .883-1.559l4.125-2.537c.287-.173.617-.264.952-.264h4.57a.82.82 0 0 0 .59-.247l5.063-5.164a.84.84 0 0 0 .237-.58V24.678a1.67 1.67 0 0 0-1.67-1.66zm48.33 237.66h-22.79c-14.168-.013-25.651-11.492-25.67-25.66v-68c.001-.477.187-.935.52-1.277l16.123-16.443a.82.82 0 0 0 .237-.57v-6.52a.82.82 0 0 0-.397-.701l-4.134-2.543a.9.9 0 0 0-.428-.116h-4.57a1.8 1.8 0 0 1-1.31-.553l-5.057-5.157a1.84 1.84 0 0 1-.523-1.28V28.678a2.67 2.67 0 0 1 2.67-2.66h67.87a2.67 2.67 0 0 1 2.67 2.66v103.18a1.84 1.84 0 0 1-.52 1.277l-5.063 5.164c-.344.352-.815.55-1.307.55h-4.57a.85.85 0 0 0-.433.119l-4.125 2.537a.83.83 0 0 0-.402.704v6.52a.82.82 0 0 0 .233.566l16.124 16.444a1.84 1.84 0 0 1 .523 1.28v68c-.019 14.168-11.502 25.646-25.67 25.66zm-45.33-233.66a1.667 1.667 0 0 0-1.67 1.66v103.18a.85.85 0 0 0 .24.584l5.057 5.156a.8.8 0 0 0 .593.25h4.57c.33.002.653.09.938.256l4.143 2.548c.544.33.877.919.878 1.556v6.52a1.8 1.8 0 0 1-.527 1.274l-16.116 16.436a.84.84 0 0 0-.237.58v68c.018 13.616 11.055 24.647 24.67 24.66h22.79c13.616-.013 24.652-11.044 24.67-24.66v-68a.84.84 0 0 0-.241-.583l-16.116-16.437a1.8 1.8 0 0 1-.523-1.27v-6.52a1.83 1.83 0 0 1 .883-1.559l4.125-2.537c.287-.173.617-.264.952-.264h4.57a.82.82 0 0 0 .59-.247l5.063-5.164a.84.84 0 0 0 .237-.58V28.678a1.67 1.67 0 0 0-1.67-1.66z" class="P"/><g fill="#5ab860"><path d="M514.145 145.292v-3.087c0-.462.24-.89.634-1.132l4.13-2.531c.209-.128.449-.196.693-.196h4.568c.356 0 .698-.143.948-.398l5.064-5.164c.243-.248.38-.582.38-.929V28.681a2.17 2.17 0 0 0-2.167-2.167H460.52a2.17 2.17 0 0 0-2.167 2.167v103.176c0 .347.136.681.38.929l5.064 5.164c.25.255.591.398.948.398h4.568c.245 0 .485.068.693.196l4.131 2.531c.394.241.634.67.634 1.132v3.087z"/><use xlink:href="#E" x="344.889"/></g><use xlink:href="#G" x="172.444" class="Q"/><path d="M508.854 263.678h-28.79c-14.168-.013-25.651-11.492-25.67-25.66v-73a1.84 1.84 0 0 1 .52-1.277l16.124-16.443a.82.82 0 0 0 .237-.57v-1.52a.82.82 0 0 0-.397-.701l-4.134-2.543a.9.9 0 0 0-.428-.116h-4.57a1.8 1.8 0 0 1-1.31-.553l-5.057-5.157a1.84 1.84 0 0 1-.523-1.28V24.678a2.67 2.67 0 0 1 2.67-2.66h73.87a2.67 2.67 0 0 1 2.67 2.66v110.18a1.84 1.84 0 0 1-.519 1.276l-5.064 5.164c-.344.352-.815.55-1.307.55h-4.57a.84.84 0 0 0-.432.119l-4.126 2.537a.82.82 0 0 0-.401.704v1.52a.82.82 0 0 0 .233.566l16.128 16.448a1.84 1.84 0 0 1 .519 1.276v73c-.019 14.168-11.502 25.647-25.67 25.66zm-51.33-240.66a1.667 1.667 0 0 0-1.67 1.66v110.18a.85.85 0 0 0 .24.584l5.057 5.156a.8.8 0 0 0 .593.25h4.57c.33.002.653.09.938.256l4.143 2.548c.544.33.877.919.878 1.556v1.52c-.001.477-.19.935-.526 1.273l-16.117 16.437a.84.84 0 0 0-.237.58v73c.018 13.616 11.054 24.647 24.67 24.66h28.79c13.616-.013 24.652-11.044 24.67-24.66v-73a.84.84 0 0 0-.239-.582l-16.118-16.438a1.8 1.8 0 0 1-.523-1.27v-1.52a1.83 1.83 0 0 1 .882-1.559l4.126-2.537a1.84 1.84 0 0 1 .952-.264h4.57a.82.82 0 0 0 .59-.247l5.063-5.164a.84.84 0 0 0 .237-.58V24.678a1.67 1.67 0 0 0-1.67-1.66zm48.33 237.66h-22.79c-14.168-.013-25.651-11.492-25.67-25.66v-68a1.84 1.84 0 0 1 .52-1.277l16.124-16.443a.82.82 0 0 0 .237-.57v-6.52a.82.82 0 0 0-.397-.701l-4.134-2.543a.9.9 0 0 0-.428-.116h-4.57a1.8 1.8 0 0 1-1.31-.553l-5.057-5.157a1.84 1.84 0 0 1-.523-1.28V28.678a2.67 2.67 0 0 1 2.67-2.66h67.87a2.67 2.67 0 0 1 2.67 2.66v103.18a1.84 1.84 0 0 1-.519 1.276l-5.064 5.164c-.344.352-.815.55-1.307.55h-4.57a.84.84 0 0 0-.432.119l-4.126 2.537a.82.82 0 0 0-.401.704v6.52a.82.82 0 0 0 .233.566l16.124 16.444a1.84 1.84 0 0 1 .523 1.28v68c-.019 14.168-11.502 25.647-25.67 25.66zm-45.33-233.66a1.667 1.667 0 0 0-1.67 1.66v103.18a.85.85 0 0 0 .24.584l5.057 5.156a.8.8 0 0 0 .593.25h4.57c.33.002.653.09.938.256l4.143 2.548c.544.33.877.919.878 1.556v6.52c-.001.477-.19.935-.526 1.273l-16.117 16.437a.84.84 0 0 0-.237.58v68c.018 13.616 11.054 24.647 24.67 24.66h22.79c13.616-.013 24.652-11.044 24.67-24.66v-68a.84.84 0 0 0-.241-.584l-16.116-16.436a1.8 1.8 0 0 1-.523-1.27v-6.52a1.83 1.83 0 0 1 .882-1.559l4.126-2.537a1.84 1.84 0 0 1 .952-.264h4.57a.82.82 0 0 0 .59-.247l5.063-5.164a.84.84 0 0 0 .237-.58V28.678a1.67 1.67 0 0 0-1.67-1.66z" class="P"/><g fill="#c63"><use xlink:href="#D" x="431.111"/><use xlink:href="#E" x="431.112"/></g><use xlink:href="#F" x="431.112" class="Q"/><path d="M595.076 263.678h-28.79c-14.168-.013-25.651-11.492-25.67-25.66v-73a1.84 1.84 0 0 1 .52-1.277l16.124-16.443a.82.82 0 0 0 .237-.57v-1.52a.82.82 0 0 0-.397-.701l-4.134-2.543a.9.9 0 0 0-.428-.116h-4.57a1.8 1.8 0 0 1-1.311-.553l-5.057-5.157a1.84 1.84 0 0 1-.523-1.28V24.678a2.67 2.67 0 0 1 2.67-2.66h73.87a2.67 2.67 0 0 1 2.67 2.66v110.18a1.84 1.84 0 0 1-.519 1.276l-5.064 5.164c-.344.352-.815.55-1.307.55h-4.57a.84.84 0 0 0-.432.119l-4.126 2.537a.82.82 0 0 0-.401.704v1.52a.82.82 0 0 0 .233.566l16.128 16.448a1.84 1.84 0 0 1 .519 1.276v73c-.019 14.168-11.502 25.647-25.67 25.66zm-51.33-240.66a1.667 1.667 0 0 0-1.67 1.66v110.18a.84.84 0 0 0 .241.584l5.056 5.156a.8.8 0 0 0 .593.25h4.57c.33.002.653.09.938.256l4.143 2.548c.544.33.877.919.878 1.556v1.52c-.001.477-.19.935-.526 1.273l-16.117 16.437a.84.84 0 0 0-.237.58v73c.018 13.616 11.054 24.647 24.67 24.66h28.79c13.616-.013 24.652-11.044 24.67-24.66v-73a.84.84 0 0 0-.239-.582l-16.118-16.438a1.8 1.8 0 0 1-.523-1.27v-1.52a1.83 1.83 0 0 1 .882-1.559l4.126-2.537a1.84 1.84 0 0 1 .952-.264h4.57a.82.82 0 0 0 .59-.247l5.063-5.164a.84.84 0 0 0 .237-.58V24.678a1.67 1.67 0 0 0-1.67-1.66zm48.33 237.66h-22.79c-14.168-.013-25.651-11.492-25.67-25.66v-68a1.84 1.84 0 0 1 .52-1.277l16.124-16.443a.82.82 0 0 0 .237-.57v-6.52a.82.82 0 0 0-.397-.701l-4.134-2.543a.9.9 0 0 0-.428-.116h-4.57a1.8 1.8 0 0 1-1.311-.553l-5.057-5.157a1.84 1.84 0 0 1-.523-1.28V28.678a2.67 2.67 0 0 1 2.67-2.66h67.87a2.67 2.67 0 0 1 2.67 2.66v103.18a1.84 1.84 0 0 1-.519 1.276l-5.064 5.164c-.344.352-.815.55-1.307.55h-4.57a.84.84 0 0 0-.432.119l-4.126 2.537a.82.82 0 0 0-.401.704v6.52a.82.82 0 0 0 .233.566l16.124 16.444a1.84 1.84 0 0 1 .523 1.28v68c-.019 14.168-11.502 25.647-25.67 25.66zm-45.33-233.66a1.667 1.667 0 0 0-1.67 1.66v103.18a.84.84 0 0 0 .241.584l5.056 5.156a.8.8 0 0 0 .593.25h4.57c.33.002.653.09.938.256l4.143 2.548c.544.33.877.919.878 1.556v6.52c-.001.477-.19.935-.526 1.273l-16.117 16.437a.84.84 0 0 0-.237.58v68c.018 13.616 11.054 24.647 24.67 24.66h22.79c13.616-.013 24.652-11.044 24.67-24.66v-68a.84.84 0 0 0-.241-.584l-16.116-16.436a1.8 1.8 0 0 1-.523-1.27v-6.52a1.83 1.83 0 0 1 .882-1.559l4.126-2.537a1.84 1.84 0 0 1 .952-.264h4.57a.82.82 0 0 0 .59-.247l5.063-5.164a.84.84 0 0 0 .237-.58V28.678a1.67 1.67 0 0 0-1.67-1.66z" class="P"/><g fill="#c63"><path d="M686.589 145.292v-3.087c0-.462.24-.89.634-1.132l4.13-2.531c.209-.128.449-.196.693-.196h4.568c.356 0 .698-.143.948-.398l5.064-5.164c.243-.248.38-.582.38-.929V28.681a2.17 2.17 0 0 0-2.167-2.167h-67.875a2.17 2.17 0 0 0-2.167 2.167v103.176c0 .347.136.681.38.929l5.064 5.164c.25.254.591.398.948.398h4.568c.245 0 .485.068.693.196l4.131 2.531c.394.241.634.67.634 1.132v3.087z"/><use xlink:href="#E" x="517.334"/></g><use xlink:href="#G" x="344.889" class="Q"/><path d="M681.298 263.678h-28.79c-14.168-.013-25.651-11.492-25.67-25.66v-73a1.84 1.84 0 0 1 .519-1.276l16.124-16.444a.82.82 0 0 0 .237-.57v-1.52a.82.82 0 0 0-.397-.701l-4.135-2.543a.9.9 0 0 0-.428-.116h-4.57a1.8 1.8 0 0 1-1.311-.553l-5.057-5.157a1.84 1.84 0 0 1-.523-1.28V24.678a2.67 2.67 0 0 1 2.67-2.66h73.87a2.67 2.67 0 0 1 2.67 2.66v110.18a1.84 1.84 0 0 1-.519 1.276l-5.064 5.164c-.344.352-.815.55-1.307.55h-4.57a.84.84 0 0 0-.432.119l-4.126 2.537a.83.83 0 0 0-.402.704v1.52a.82.82 0 0 0 .233.566l16.127 16.447a1.84 1.84 0 0 1 .519 1.276v73c-.019 14.168-11.502 25.646-25.67 25.66zm-51.33-240.66a1.667 1.667 0 0 0-1.67 1.66v110.18a.84.84 0 0 0 .241.584l5.056 5.156a.8.8 0 0 0 .593.25h4.57c.33.002.653.09.938.256l4.143 2.548c.544.33.877.919.878 1.556v1.52c-.001.477-.19.935-.526 1.273l-16.117 16.437a.84.84 0 0 0-.237.58v73c.018 13.616 11.054 24.647 24.67 24.66h28.79c13.616-.013 24.652-11.044 24.67-24.66v-73a.84.84 0 0 0-.239-.582l-16.118-16.438a1.8 1.8 0 0 1-.523-1.27v-1.52a1.83 1.83 0 0 1 .883-1.559l4.125-2.537a1.84 1.84 0 0 1 .952-.264h4.57a.82.82 0 0 0 .59-.247l5.064-5.164a.84.84 0 0 0 .237-.58V24.678a1.67 1.67 0 0 0-1.67-1.66zm48.33 237.66h-22.79c-14.168-.013-25.651-11.492-25.67-25.66v-68a1.84 1.84 0 0 1 .519-1.276l16.124-16.444a.82.82 0 0 0 .237-.57v-6.52a.82.82 0 0 0-.397-.701l-4.135-2.543a.9.9 0 0 0-.428-.116h-4.57a1.8 1.8 0 0 1-1.311-.553l-5.057-5.157a1.84 1.84 0 0 1-.523-1.28V28.678a2.67 2.67 0 0 1 2.67-2.66h67.87a2.67 2.67 0 0 1 2.67 2.66v103.18a1.84 1.84 0 0 1-.519 1.276l-5.064 5.164c-.344.352-.815.55-1.307.55h-4.57a.84.84 0 0 0-.432.119l-4.126 2.537a.83.83 0 0 0-.402.704v6.52a.82.82 0 0 0 .233.566l16.124 16.443a1.84 1.84 0 0 1 .523 1.28v68c-.019 14.168-11.502 25.646-25.67 25.66zm-45.33-233.66a1.667 1.667 0 0 0-1.67 1.66v103.18a.84.84 0 0 0 .241.584l5.056 5.156a.8.8 0 0 0 .593.25h4.57c.33.002.653.09.938.256l4.143 2.548c.544.33.877.919.878 1.556v6.52c-.001.477-.19.935-.526 1.273l-16.117 16.437a.84.84 0 0 0-.237.58v68c.018 13.616 11.054 24.647 24.67 24.66h22.79c13.616-.013 24.652-11.044 24.67-24.66v-68a.84.84 0 0 0-.241-.584l-16.116-16.436a1.8 1.8 0 0 1-.523-1.27v-6.52a1.83 1.83 0 0 1 .883-1.559l4.125-2.537a1.84 1.84 0 0 1 .952-.264h4.57a.82.82 0 0 0 .59-.247l5.064-5.164a.84.84 0 0 0 .237-.58V28.678a1.67 1.67 0 0 0-1.67-1.66z" class="P"/><g fill="#fff"><path d="M65.984 107.046h-2.679V77.935q0-3.963.328-8.228-.41.409-.847.792-.438.383-8.447 6.643l-1.558-1.941 10.852-8.119h2.351zm95.681 0h-25.012v-2.405l10.633-11.098a78 78 0 0 0 6.287-7.107 20 20 0 0 0 2.651-4.702 13.2 13.2 0 0 0 .848-4.702 7.68 7.68 0 0 0-2.351-5.822 8.47 8.47 0 0 0-6.096-2.242 15.15 15.15 0 0 0-9.567 3.636l-1.476-1.886a16.83 16.83 0 0 1 11.098-4.209q5.221 0 8.214 2.788a10 10 0 0 1 2.993 7.681 15.9 15.9 0 0 1-2.009 7.667 45 45 0 0 1-7.339 9.144l-10.25 10.524v.109h21.376z"/><use xlink:href="#H"/><path d="M337.198 96.851h-6.889v10.196h-2.569V96.851h-20.556v-1.832l19.818-28.155h3.308V94.5h6.889zM327.74 94.5V83.074q0-8.255.382-13.859h-.218q-.547 1.011-3.362 5.139L310.436 94.5zm79.169-11.481q6.397 0 10.073 3.089a10.51 10.51 0 0 1 3.677 8.501q0 6.15-3.827 9.567t-10.551 3.417c-1.902.009-3.8-.188-5.659-.588a14.7 14.7 0 0 1-4.482-1.681v-2.815a26 26 0 0 0 5.248 2.091 19.6 19.6 0 0 0 4.894.587 12.33 12.33 0 0 0 8.419-2.774 9.46 9.46 0 0 0 3.171-7.503 8.57 8.57 0 0 0-3.089-6.998q-3.089-2.542-8.392-2.542a28 28 0 0 0-7.436 1.066l-1.64-1.066 1.585-18.287h19.244v2.625H401.47l-1.23 14.104a39 39 0 0 1 6.669-.793"/><use xlink:href="#I"/><path d="m573.805 107.046 16.456-37.339h-22.606v-2.625h25.859v1.996l-16.51 37.968zm93.002-40.647a12.33 12.33 0 0 1 8.187 2.597 8.68 8.68 0 0 1 3.103 7.025 8.3 8.3 0 0 1-1.927 5.413 17.4 17.4 0 0 1-6.246 4.346q5.248 2.16 7.38 4.729a9.44 9.44 0 0 1 2.132 6.232 9.86 9.86 0 0 1-3.458 7.9q-3.458 2.952-9.28 2.952-6.042 0-9.267-2.761-3.226-2.761-3.226-8.036a9.5 9.5 0 0 1 2.269-6.287 17.5 17.5 0 0 1 7.025-4.62 17 17 0 0 1-6.205-4.387 8.7 8.7 0 0 1-1.804-5.536 8.9 8.9 0 0 1 1.449-5.043 9.36 9.36 0 0 1 4.059-3.349 14 14 0 0 1 5.809-1.175m-9.813 30.806a7.11 7.11 0 0 0 2.556 5.85q2.556 2.077 7.148 2.077a11.17 11.17 0 0 0 7.216-2.2 7.26 7.26 0 0 0 2.733-5.973 7.4 7.4 0 0 0-2.146-5.508q-2.147-2.118-8.269-4.442-5.03 1.942-7.134 4.292a8.52 8.52 0 0 0-2.105 5.904zm9.759-28.346a9.5 9.5 0 0 0-6.191 1.9 6.35 6.35 0 0 0-2.337 5.207 6.53 6.53 0 0 0 .861 3.376 8.9 8.9 0 0 0 2.487 2.651 28.2 28.2 0 0 0 5.453 2.775 17.3 17.3 0 0 0 6.396-3.8 7.06 7.06 0 0 0 1.941-5.002 6.39 6.39 0 0 0-2.31-5.193 9.58 9.58 0 0 0-6.3-1.914M75.661 202.03a36.6 36.6 0 0 1-2.063 13.175 15.74 15.74 0 0 1-6.014 7.845 17.3 17.3 0 0 1-9.554 2.542 18.5 18.5 0 0 1-5.249-.711v-2.351a15.3 15.3 0 0 0 2.83.587 22 22 0 0 0 2.528.205 12.7 12.7 0 0 0 10.579-4.879q3.827-4.879 4.264-14.228h-.328a13.84 13.84 0 0 1-4.756 4.032 12.54 12.54 0 0 1-5.768 1.408q-5.55 0-8.651-3.062-3.103-3.061-3.103-8.692a13.85 13.85 0 0 1 3.403-9.731 11.44 11.44 0 0 1 8.843-3.717 11.72 11.72 0 0 1 6.888 2.063 13.06 13.06 0 0 1 4.551 6.055 25.4 25.4 0 0 1 1.599 9.458zm-13.039-15.171a8.73 8.73 0 0 0-6.889 2.911q-2.569 2.911-2.569 7.968 0 4.756 2.378 7.216t6.806 2.46a11.1 11.1 0 0 0 5.153-1.23 10.2 10.2 0 0 0 3.799-3.266 7.23 7.23 0 0 0 1.408-4.142 14.25 14.25 0 0 0-1.271-5.986 10.4 10.4 0 0 0-3.553-4.36 9.06 9.06 0 0 0-5.262-1.572z"/><use xlink:href="#J"/><path d="M172.123 204.955q0 10.524-3.212 15.581t-9.717 5.057a10.53 10.53 0 0 1-9.513-5.208q-3.253-5.208-3.253-15.431 0-10.441 3.157-15.472 3.157-5.029 9.608-5.029a10.71 10.71 0 0 1 9.622 5.207q3.308 5.208 3.308 15.294zm-22.743 0q0 9.294 2.433 13.736a8.413 8.413 0 0 0 14.911-.15q2.364-4.592 2.364-13.585 0-8.856-2.364-13.449a7.9 7.9 0 0 0-7.531-4.592 7.82 7.82 0 0 0-7.49 4.592q-2.323 4.592-2.323 13.449z"/><use xlink:href="#J" x="89.453"/><use xlink:href="#J" x="112.17"/><use xlink:href="#J" x="172.554"/><path d="M343.939 225.046h-25.012v-2.405l10.633-11.098a78 78 0 0 0 6.287-7.107 20 20 0 0 0 2.651-4.702 13.2 13.2 0 0 0 .848-4.702 7.68 7.68 0 0 0-2.351-5.822 8.47 8.47 0 0 0-6.096-2.242 15.15 15.15 0 0 0-9.567 3.636l-1.476-1.886a16.83 16.83 0 0 1 11.098-4.209q5.221 0 8.214 2.788a10 10 0 0 1 2.993 7.681 15.9 15.9 0 0 1-2.009 7.667 45 45 0 0 1-7.339 9.144l-10.25 10.524v.109h21.376z"/><use xlink:href="#J" x="258.914"/><use xlink:href="#H" x="182.411" y="118"/><use xlink:href="#J" x="344.056"/><path d="M518.529 214.851h-6.889v10.196h-2.569v-10.196h-20.556v-1.832l19.818-28.155h3.308V212.5h6.889zm-9.458-2.351v-11.426q0-8.255.382-13.859h-.218q-.547 1.011-3.362 5.139L491.768 212.5z"/><use xlink:href="#J" x="431.331"/><path d="M589.294 201.019q6.397 0 10.073 3.089a10.51 10.51 0 0 1 3.676 8.501q0 6.15-3.827 9.567t-10.551 3.417a26.3 26.3 0 0 1-5.659-.588 14.7 14.7 0 0 1-4.483-1.681v-2.815a26 26 0 0 0 5.249 2.091 19.7 19.7 0 0 0 4.893.587 12.33 12.33 0 0 0 8.419-2.774 9.46 9.46 0 0 0 3.171-7.503 8.57 8.57 0 0 0-3.089-6.998q-3.089-2.542-8.392-2.542a28 28 0 0 0-7.435 1.066l-1.64-1.066 1.585-18.287h19.244v2.625h-16.674l-1.23 14.104a39 39 0 0 1 6.67-.793"/><use xlink:href="#J" x="517.306"/><use xlink:href="#I" x="182.137" y="118"/></g><g fill="#4a4849"><path d="M159.083 321.216v40.871q0 1.693-1.562 1.692h-5.662q-1.562 0-1.562-1.692v-40.871q0-1.691 1.562-1.692h5.662q1.562 0 1.562 1.692m40.675-.065v41.001q0 1.627-1.562 1.627h-5.142a1.6 1.6 0 0 1-1.497-.781l-12.561-21.542a30.3 30.3 0 0 1-2.604-5.271v25.967q0 1.627-1.562 1.627h-5.141q-1.562 0-1.562-1.627v-41.001q0-1.626 1.562-1.627h5.141a1.47 1.47 0 0 1 1.367.651l13.082 22.453 2.212 4.556v-26.032q0-1.626 1.562-1.627h5.142q1.562 0 1.562 1.627z"/><use xlink:href="#K"/><use xlink:href="#L"/><use xlink:href="#M"/><path d="m349.636 319.98-12.886 51.739q-.456 1.691-1.887 1.692h-5.988q-1.627 0-1.236-1.692l12.951-51.739a1.85 1.85 0 0 1 1.887-1.692h5.922q1.626 0 1.236 1.692zm17.375 33.711v-24.08a9.31 9.31 0 0 1 3.807-7.582q3.807-3.026 12.007-3.026t12.007 3.026a9.31 9.31 0 0 1 3.807 7.582v24.08a9.31 9.31 0 0 1-3.807 7.582q-3.807 3.026-12.007 3.026t-12.007-3.026a9.31 9.31 0 0 1-3.807-7.582m22.843-1.562v-20.956q0-4.881-7.029-4.881-6.965 0-6.963 4.881v20.956q0 4.881 6.963 4.881 7.029 0 7.029-4.881"/><use xlink:href="#L" x="160.552"/><use xlink:href="#M" x="160.551"/><use xlink:href="#K" x="270.405"/><path d="M525.416 321.216v30.914q0 4.881 6.963 4.881a9.43 9.43 0 0 0 5.207-1.236 4.08 4.08 0 0 0 1.887-3.645v-30.914q0-1.691 1.563-1.692h5.662q1.497 0 1.496 1.692v32.476a9.31 9.31 0 0 1-3.807 7.582q-3.806 3.026-12.008 3.026-8.2 0-12.006-3.026a9.31 9.31 0 0 1-3.808-7.582v-32.476q0-1.691 1.627-1.692h5.662q1.562 0 1.563 1.692zm29.35-1.692H582.1q1.626 0 1.627 1.562v4.1a1.44 1.44 0 0 1-1.627 1.627h-9.241v35.274q0 1.693-1.562 1.692h-5.662q-1.627 0-1.627-1.692v-35.274h-9.241a1.44 1.44 0 0 1-1.627-1.627v-4.1q0-1.562 1.627-1.562z"/></g><defs><path id="B" d="M43.662 145.125v3.603a1.32 1.32 0 0 1-.38.92l-16.12 16.44a1.35 1.35 0 0 0-.38.93v68c.005 13.897 11.273 25.16 25.17 25.16h22.79c13.897.001 25.165-11.263 25.17-25.16v-68a1.34 1.34 0 0 0-.38-.93l-16.12-16.44a1.32 1.32 0 0 1-.38-.92v-3.603z"/><path id="C" d="m102.532 164.089-16.12-16.44a1.32 1.32 0 0 1-.38-.92v-1.52c0-.463.243-.892.64-1.13l4.13-2.54a1.35 1.35 0 0 1 .69-.19h4.57c.358 0 .7-.144.95-.4l5.06-5.16c.242-.249.378-.583.38-.93V24.679a2.167 2.167 0 0 0-2.17-2.16h-73.87a2.165 2.165 0 0 0-2.17 2.16v110.18c.002.347.138.681.38.93l5.06 5.16a1.3 1.3 0 0 0 .95.4h4.57c.243.003.48.068.69.19l4.13 2.54c.397.238.64.667.64 1.13v1.52a1.32 1.32 0 0 1-.38.92l-16.12 16.44a1.35 1.35 0 0 0-.38.93v73c.005 13.897 11.273 25.16 25.17 25.16h28.79c13.897.001 25.165-11.263 25.17-25.16v-73a1.34 1.34 0 0 0-.38-.93m-2.62 70.93c-.005 13.897-11.273 25.161-25.17 25.16h-22.79c-13.897 0-25.165-11.263-25.17-25.16v-68c.002-.347.138-.681.38-.93l16.12-16.44a1.32 1.32 0 0 0 .38-.92v-6.52c0-.463-.243-.892-.64-1.13l-4.13-2.54a1.4 1.4 0 0 0-.69-.19h-4.57a1.3 1.3 0 0 1-.95-.4l-5.06-5.16a1.35 1.35 0 0 1-.38-.93V28.679a2.165 2.165 0 0 1 2.17-2.16h67.87a2.167 2.167 0 0 1 2.17 2.16v103.18a1.35 1.35 0 0 1-.38.93l-5.06 5.16c-.25.256-.592.4-.95.4h-4.57a1.35 1.35 0 0 0-.69.19l-4.13 2.54c-.397.238-.64.667-.64 1.13v6.52a1.32 1.32 0 0 0 .38.92l16.12 16.44a1.34 1.34 0 0 1 .38.93z"/><path id="D" d="M169.256 145.292v-3.087c0-.462.24-.89.634-1.132l4.13-2.531c.209-.128.449-.196.693-.196h4.568c.356 0 .698-.143.948-.398l5.064-5.164c.243-.248.38-.582.38-.929V28.681a2.17 2.17 0 0 0-2.167-2.167h-67.875a2.17 2.17 0 0 0-2.167 2.167v103.176c0 .347.136.681.38.929l5.064 5.164c.25.255.591.398.948.398h4.568c.245 0 .485.068.693.196l4.131 2.531c.394.241.634.67.634 1.132v3.087z"/><path id="E" d="M129.884 145.125v3.603a1.32 1.32 0 0 1-.38.92l-16.12 16.44a1.35 1.35 0 0 0-.38.93v68c.005 13.897 11.273 25.16 25.17 25.16h22.79c13.897 0 25.165-11.263 25.17-25.16v-68a1.34 1.34 0 0 0-.38-.93l-16.12-16.44a1.32 1.32 0 0 1-.38-.92v-3.603z"/><path id="F" d="m188.754 164.089-16.12-16.44a1.32 1.32 0 0 1-.38-.92v-1.52c0-.463.243-.892.64-1.13l4.13-2.54a1.35 1.35 0 0 1 .69-.19h4.57c.358 0 .7-.144.95-.4l5.06-5.16c.242-.249.378-.583.38-.93V24.679a2.166 2.166 0 0 0-2.17-2.16h-73.87a2.165 2.165 0 0 0-2.17 2.16v110.18c.002.347.138.681.38.93l5.06 5.16c.249.258.592.402.95.4h4.57c.243.003.48.068.69.19l4.13 2.54c.397.238.64.667.64 1.13v1.52a1.32 1.32 0 0 1-.38.92l-16.12 16.44a1.35 1.35 0 0 0-.38.93v73c.005 13.897 11.273 25.16 25.17 25.16h28.79c13.897 0 25.165-11.263 25.17-25.16v-73a1.34 1.34 0 0 0-.38-.93m-2.62 70.93c-.005 13.897-11.273 25.16-25.17 25.16h-22.79c-13.897 0-25.165-11.263-25.17-25.16v-68c.002-.347.138-.681.38-.93l16.12-16.44a1.32 1.32 0 0 0 .38-.92v-6.52c0-.463-.243-.892-.64-1.13l-4.13-2.54a1.4 1.4 0 0 0-.69-.19h-4.57a1.3 1.3 0 0 1-.95-.4l-5.06-5.16a1.35 1.35 0 0 1-.38-.93V28.679a2.165 2.165 0 0 1 2.17-2.16h67.87a2.165 2.165 0 0 1 2.17 2.16v103.18a1.35 1.35 0 0 1-.38.93l-5.06 5.16c-.25.256-.592.4-.95.4h-4.57a1.35 1.35 0 0 0-.69.19l-4.13 2.54c-.397.238-.64.667-.64 1.13v6.52a1.32 1.32 0 0 0 .38.92l16.12 16.44a1.34 1.34 0 0 1 .38.93z"/><path id="G" d="m361.199 164.089-16.12-16.44a1.32 1.32 0 0 1-.38-.92v-1.52c0-.463.243-.892.64-1.13l4.13-2.54a1.35 1.35 0 0 1 .69-.19h4.57c.358 0 .7-.144.95-.4l5.06-5.16c.242-.249.378-.583.38-.93V24.679a2.167 2.167 0 0 0-2.17-2.16h-73.87a2.165 2.165 0 0 0-2.17 2.16v110.18c.002.347.138.681.38.93l5.06 5.16c.249.258.592.402.95.4h4.57c.243.003.48.068.69.19l4.13 2.54c.397.238.64.667.64 1.13v1.52a1.32 1.32 0 0 1-.38.92l-16.12 16.44a1.35 1.35 0 0 0-.38.93v73c.005 13.897 11.273 25.16 25.17 25.16h28.79c13.897 0 25.165-11.263 25.17-25.16v-73a1.34 1.34 0 0 0-.38-.93m-2.62 70.93c-.005 13.897-11.273 25.16-25.17 25.16h-22.79c-13.897 0-25.165-11.263-25.17-25.16v-68c.002-.347.138-.681.38-.93l16.12-16.44a1.32 1.32 0 0 0 .38-.92v-6.52c0-.463-.243-.892-.64-1.13l-4.13-2.54a1.4 1.4 0 0 0-.69-.19h-4.57a1.3 1.3 0 0 1-.95-.4l-5.06-5.16a1.35 1.35 0 0 1-.38-.93V28.679a2.165 2.165 0 0 1 2.17-2.16h67.87a2.167 2.167 0 0 1 2.17 2.16v103.18a1.35 1.35 0 0 1-.38.93l-5.06 5.16c-.25.256-.592.4-.95.4h-4.57a1.35 1.35 0 0 0-.69.19l-4.13 2.54c-.397.238-.64.667-.64 1.13v6.52a1.32 1.32 0 0 0 .38.92l16.12 16.44a1.34 1.34 0 0 1 .38.93z"/><path id="H" d="M246.547 76.486a8.9 8.9 0 0 1-2.337 6.26 10.85 10.85 0 0 1-6.273 3.253v.164a12.36 12.36 0 0 1 7.326 3.062 8.83 8.83 0 0 1 2.515 6.615 10.52 10.52 0 0 1-3.813 8.679q-3.813 3.075-10.975 3.075a23.5 23.5 0 0 1-10.633-2.269v-2.706a22.2 22.2 0 0 0 5.153 1.886 23 23 0 0 0 5.371.683q6.041 0 9.075-2.446a8.36 8.36 0 0 0 3.034-6.902 6.95 6.95 0 0 0-3.103-6.096q-3.103-2.132-9.116-2.132h-4.319v-2.625h4.374a12.15 12.15 0 0 0 7.886-2.364 7.82 7.82 0 0 0 2.911-6.41 6.66 6.66 0 0 0-2.364-5.344 9.23 9.23 0 0 0-6.191-2.009 16.9 16.9 0 0 0-5.439.834 24.7 24.7 0 0 0-5.522 2.856l-1.339-1.832a17.6 17.6 0 0 1 5.604-3.075 20.2 20.2 0 0 1 6.643-1.134q5.521 0 8.528 2.61a9.24 9.24 0 0 1 3.007 7.367z"/><path id="I" d="M482.034 90.017a35.6 35.6 0 0 1 2.118-13.107 16.3 16.3 0 0 1 6.014-7.886 18.26 18.26 0 0 1 14.091-1.941v2.406a13.9 13.9 0 0 0-4.811-.738 12.52 12.52 0 0 0-10.51 4.866q-3.759 4.865-4.223 14.16h.355a14.2 14.2 0 0 1 4.756-4.046 12.3 12.3 0 0 1 5.658-1.367q5.603 0 8.761 3.198t3.157 8.829q0 6.124-3.321 9.663a11.7 11.7 0 0 1-8.952 3.54 11.38 11.38 0 0 1-9.581-4.633q-3.513-4.633-3.512-12.943zm13.093 15.171a8.81 8.81 0 0 0 6.97-2.815q2.487-2.815 2.488-8.037a9.94 9.94 0 0 0-2.46-7.162 8.83 8.83 0 0 0-6.697-2.569 11.16 11.16 0 0 0-5.18 1.23 10.3 10.3 0 0 0-3.813 3.267 7.2 7.2 0 0 0-1.421 4.168 13.26 13.26 0 0 0 1.353 5.836 11.4 11.4 0 0 0 3.663 4.442 8.6 8.6 0 0 0 5.098 1.64z"/><path id="J" d="M139.209 225.046h-2.679v-29.112q0-3.963.328-8.228-.41.409-.847.792-.438.383-8.447 6.643l-1.558-1.941 10.852-8.119h2.351z"/><path id="K" d="M224.033 348.094h-6.443v13.993q0 1.693-1.562 1.692h-5.662q-1.562 0-1.562-1.692v-40.871q0-1.691 1.562-1.692h13.667q8.2 0 11.975 2.994a9.31 9.31 0 0 1 3.775 7.615v7.354a9.31 9.31 0 0 1-3.775 7.614q-3.775 2.994-11.975 2.994zm0-21.281h-6.443v13.992h6.443a9.26 9.26 0 0 0 5.174-1.236 4.04 4.04 0 0 0 1.855-3.58v-4.295q0-4.881-7.029-4.881"/><path id="L" d="M255.01 321.216v30.914q0 4.881 6.964 4.881a9.43 9.43 0 0 0 5.206-1.236 4.08 4.08 0 0 0 1.888-3.645v-30.914q0-1.691 1.562-1.692h5.662q1.496 0 1.497 1.692v32.476a9.31 9.31 0 0 1-3.807 7.582q-3.807 3.026-12.007 3.026t-12.008-3.026a9.31 9.31 0 0 1-3.807-7.582v-32.476q0-1.691 1.627-1.692h5.662q1.562 0 1.562 1.692z"/><path id="M" d="M284.361 319.524h27.334q1.626 0 1.627 1.562v4.1a1.44 1.44 0 0 1-1.627 1.627h-9.241v35.274q0 1.693-1.562 1.692h-5.662q-1.627 0-1.627-1.692v-35.274h-9.242a1.44 1.44 0 0 1-1.627-1.627v-4.1q0-1.562 1.627-1.562"/></defs></svg>