<svg width="362" height="227" viewBox="0 0 362 227" fill="none" xmlns="http://www.w3.org/2000/svg">
<rect width="362" height="227" fill="#FF4545"/>
<g clip-path="url(#clip0_22076_38)">
<mask id="path-1-inside-1_22076_38" fill="white">
<path d="M0 0H362V227H0V0Z"/>
</mask>
<path d="M0 0H362V227H0V0Z" fill="#E2E7EE"/>
<path d="M149.78 61.0896H146.11V51.2418C146.11 50.0668 146.15 49.1321 146.23 48.4444C145.99 48.6113 145.7 48.7983 145.35 48.9985C145 49.1988 143.83 49.8398 141.84 50.9214L140 49.3658L146.72 45.8406H149.78V61.0896Z" fill="white"/>
<path d="M217.49 61.537H202.01V59.681L207.9 55.7285C209.64 54.5401 210.79 53.6988 211.36 53.1981C211.93 52.704 212.34 52.23 212.6 51.796C212.86 51.3554 212.99 50.888 212.99 50.3873C212.99 49.6996 212.68 49.1588 212.06 48.7582C211.44 48.3643 210.58 48.164 209.49 48.164C208.61 48.164 207.77 48.2709 206.95 48.4845C206.13 48.6982 205.19 49.0921 204.11 49.6529L202.13 48.0372C203.4 47.3228 204.63 46.8154 205.83 46.515C207.03 46.2145 208.3 46.0676 209.66 46.0676C211.78 46.0676 213.49 46.4348 214.77 47.1759C216.05 47.917 216.69 48.9118 216.69 50.167C216.69 50.8547 216.5 51.509 216.14 52.1299C215.77 52.7508 215.2 53.385 214.44 54.046C213.68 54.707 212.4 55.595 210.62 56.7099L206.65 59.2737V59.3805H217.49V61.537Z" fill="white"/>
<path d="M362.5 155.5V226.5H-0.5V155.5H362.5Z" fill="white" stroke="black"/>
<path d="M55 203.21V180.37H59.84V203.21H55Z" fill="#333333"/>
<path d="M85.51 203.21H79.35L69.41 185.93H69.27C69.47 188.98 69.57 191.16 69.57 192.46V203.21H65.24V180.37H71.35L81.27 197.48H81.38C81.22 194.51 81.15 192.41 81.15 191.18V180.37H85.51V203.21Z" fill="#333333"/>
<path d="M106.69 187.49C106.69 189.95 105.92 191.83 104.39 193.13C102.85 194.43 100.67 195.08 97.84 195.08H95.76V203.2H90.92V180.36H98.22C100.99 180.36 103.1 180.96 104.54 182.15C105.98 183.34 106.7 185.12 106.7 187.49H106.69ZM95.75 191.11H97.34C98.83 191.11 99.94 190.82 100.68 190.23C101.42 189.64 101.79 188.78 101.79 187.66C101.79 186.54 101.48 185.69 100.86 185.14C100.24 184.6 99.2701 184.33 97.9501 184.33H95.75V191.11Z" fill="#333333"/>
<path d="M129.24 180.36V195.14C129.24 196.83 128.86 198.31 128.11 199.58C127.35 200.85 126.26 201.83 124.84 202.5C123.41 203.18 121.73 203.52 119.78 203.52C116.84 203.52 114.56 202.77 112.94 201.26C111.32 199.76 110.5 197.7 110.5 195.08V180.36H115.33V194.34C115.33 196.1 115.68 197.39 116.39 198.22C117.1 199.04 118.27 199.45 119.91 199.45C121.55 199.45 122.64 199.04 123.36 198.21C124.07 197.38 124.43 196.08 124.43 194.31V180.36H129.26H129.24Z" fill="#333333"/>
<path d="M143.3 203.21H138.46V184.4H132.26V180.37H149.51V184.4H143.31V203.21H143.3Z" fill="#333333"/>
<path d="M170.81 180.36L162.29 203.2H157.96L166.48 180.36H170.81Z" fill="#333333"/>
<path d="M202.18 191.75C202.18 195.53 201.24 198.44 199.37 200.47C197.5 202.5 194.81 203.52 191.31 203.52C187.81 203.52 185.12 202.5 183.25 200.47C181.38 198.44 180.44 195.52 180.44 191.72C180.44 187.92 181.38 185.01 183.26 183.01C185.14 181.01 187.84 180 191.35 180C194.86 180 197.55 181.01 199.4 183.03C201.26 185.05 202.19 187.96 202.19 191.75H202.18ZM185.51 191.75C185.51 194.3 185.99 196.22 186.96 197.52C187.93 198.81 189.38 199.46 191.3 199.46C195.16 199.46 197.1 196.89 197.1 191.76C197.1 186.63 195.18 184.04 191.33 184.04C189.4 184.04 187.95 184.69 186.97 185.99C185.99 187.29 185.5 189.21 185.5 191.76L185.51 191.75Z" fill="#333333"/>
<path d="M225.16 180.36V195.14C225.16 196.83 224.78 198.31 224.03 199.58C223.27 200.85 222.18 201.83 220.76 202.5C219.33 203.18 217.64 203.52 215.7 203.52C212.76 203.52 210.48 202.77 208.86 201.26C207.24 199.76 206.42 197.7 206.42 195.08V180.36H211.25V194.34C211.25 196.1 211.6 197.39 212.31 198.22C213.02 199.04 214.19 199.45 215.83 199.45C217.47 199.45 218.56 199.04 219.28 198.21C219.99 197.38 220.35 196.08 220.35 194.31V180.36H225.18H225.16Z" fill="#333333"/>
<path d="M239.21 203.21H234.37V184.4H228.17V180.37H245.42V184.4H239.22V203.21H239.21Z" fill="#333333"/>
<path d="M264.36 187.49C264.36 189.95 263.59 191.83 262.06 193.13C260.52 194.43 258.34 195.08 255.51 195.08H253.43V203.2H248.59V180.36H255.89C258.66 180.36 260.77 180.96 262.21 182.15C263.65 183.34 264.37 185.12 264.37 187.49H264.36ZM253.43 191.11H255.02C256.51 191.11 257.62 190.82 258.36 190.23C259.1 189.64 259.47 188.78 259.47 187.66C259.47 186.54 259.16 185.69 258.54 185.14C257.92 184.6 256.95 184.33 255.63 184.33H253.43V191.11Z" fill="#333333"/>
<path d="M286.92 180.36V195.14C286.92 196.83 286.54 198.31 285.79 199.58C285.04 200.85 283.94 201.83 282.52 202.5C281.09 203.18 279.41 203.52 277.46 203.52C274.52 203.52 272.24 202.77 270.62 201.26C269 199.76 268.18 197.7 268.18 195.08V180.36H273.01V194.34C273.01 196.1 273.36 197.39 274.07 198.22C274.78 199.04 275.95 199.45 277.59 199.45C279.23 199.45 280.32 199.04 281.04 198.21C281.76 197.38 282.11 196.08 282.11 194.31V180.36H286.94H286.92Z" fill="#333333"/>
<path d="M300.97 203.21H296.13V184.4H289.93V180.37H307.18V184.4H300.98V203.21H300.97Z" fill="#333333"/>
<path d="M120 39V109.186C120 109.635 120.365 110 120.814 110H125.609C127.791 110 129.894 110.813 131.509 112.281L134.82 115.291C138.153 118.321 142.496 120 147 120C151.504 120 155.847 118.321 159.18 115.291L162.491 112.281C164.106 110.813 166.209 110 168.391 110H173.186C173.635 110 174 109.635 174 109.186V39C174 38.4477 173.552 38 173 38H156H138H121C120.448 38 120 38.4477 120 39Z" fill="#22C55E" stroke="#111729"/>
<path d="M182 39V109.186C182 109.635 182.365 110 182.814 110H187.609C189.791 110 191.894 110.813 193.509 112.281L196.82 115.291C200.153 118.321 204.496 120 209 120C213.504 120 217.847 118.321 221.18 115.291L224.491 112.281C226.106 110.813 228.209 110 230.391 110H235.186C235.635 110 236 109.635 236 109.186V39C236 38.4477 235.552 38 235 38H218H200H183C182.448 38 182 38.4477 182 39Z" fill="#22C55E" stroke="#111729"/>
<path d="M148.78 87.17H145.11V72.42C145.11 70.66 145.15 69.26 145.23 68.23C144.99 68.48 144.7 68.76 144.35 69.06C144 69.36 142.83 70.32 140.84 71.94L139 69.61L145.72 64.33H148.78V87.17Z" fill="white"/>
<path d="M216.49 87.17H201.01V84.39L206.9 78.47C208.64 76.69 209.79 75.43 210.36 74.68C210.93 73.94 211.34 73.23 211.6 72.58C211.86 71.92 211.99 71.22 211.99 70.47C211.99 69.44 211.68 68.63 211.06 68.03C210.44 67.44 209.58 67.14 208.49 67.14C207.61 67.14 206.77 67.3 205.95 67.62C205.13 67.94 204.19 68.53 203.11 69.37L201.13 66.95C202.4 65.88 203.63 65.12 204.83 64.67C206.03 64.22 207.3 64 208.66 64C210.78 64 212.49 64.55 213.77 65.66C215.05 66.77 215.69 68.26 215.69 70.14C215.69 71.17 215.5 72.15 215.14 73.08C214.77 74.01 214.2 74.96 213.44 75.95C212.68 76.94 211.4 78.27 209.62 79.94L205.65 83.78V83.94H216.49V87.17Z" fill="white"/>
</g>
<path d="M0 0V-1H-1V0H0ZM362 0H363V-1H362V0ZM0 0V1H362V0V-1H0V0ZM362 0H361V227H362H363V0H362ZM0 227H1V0H0H-1V227H0Z" fill="#333333" mask="url(#path-1-inside-1_22076_38)"/>
<defs>
<clipPath id="clip0_22076_38">
<path d="M0 0H362V227H0V0Z" fill="white"/>
</clipPath>
</defs>
</svg>
