<svg xmlns="http://www.w3.org/2000/svg" width="362" height="227" fill="none"><g clip-path="url(#a)"><mask id="b" fill="#fff"><path d="M0 0h362v227H0z"/></mask><path fill="#E2E7EE" d="M0 0h362v227H0z"/><path fill="#fff" stroke="#000" d="M362.5 155.5v71H-.5v-71z"/><path fill="#333" d="M145.295 188.93c0 2.274-.692 4.019-2.087 5.226-1.394 1.206-3.37 1.804-5.938 1.804h-1.886v7.529H131v-21.16h6.601c2.508 0 4.414.549 5.718 1.655q1.956 1.658 1.956 4.946zm-9.901 3.361h1.444c1.345 0 2.358-.269 3.03-.818s1.003-1.336 1.003-2.383q0-1.57-.843-2.333c-.561-.499-1.444-.748-2.638-.748h-1.996zm32.251.588c0 3.5-.853 6.193-2.548 8.077s-4.133 2.822-7.303 2.822-5.598-.937-7.303-2.822c-1.705-1.884-2.548-4.587-2.548-8.107s.853-6.212 2.548-8.067c1.705-1.855 4.143-2.782 7.323-2.782s5.608.937 7.293 2.812q2.528 2.812 2.528 8.077zm-15.087 0c0 2.363.441 4.148 1.314 5.335.882 1.197 2.187 1.795 3.932 1.795 3.501 0 5.247-2.373 5.247-7.13s-1.736-7.15-5.217-7.15q-2.618-.002-3.942 1.805c-.883 1.207-1.334 2.982-1.334 5.345m39.203 10.61h-4.996l-2.799-11.118c-.1-.399-.281-1.217-.531-2.453-.251-1.237-.392-2.075-.432-2.493q-.09.777-.421 2.513a66 66 0 0 1-.522 2.463l-2.789 11.088h-4.975l-5.277-21.16h4.314l2.648 11.547c.462 2.134.793 3.979 1.003 5.545.06-.549.191-1.406.392-2.553.2-1.147.391-2.044.571-2.683l3.01-11.856h4.143l3.009 11.856c.131.529.301 1.337.492 2.434q.3 1.63.451 2.812c.09-.748.251-1.696.452-2.812a69 69 0 0 1 .561-2.733l2.629-11.547h4.313l-5.266 21.16zm19.451 0h-11.908v-21.16h11.908v3.68h-7.524v4.646h7.002v3.68h-7.002v5.455h7.524zm8.386-8.117v8.117h-4.384v-21.16h6.029c2.809 0 4.886.519 6.24 1.566 1.344 1.047 2.026 2.632 2.026 4.766 0 1.247-.331 2.353-1.003 3.321-.672.967-1.615 1.725-2.839 2.283 3.11 4.757 5.136 7.828 6.079 9.224h-4.865l-4.936-8.117zm0-3.65h1.414c1.385 0 2.408-.239 3.07-.708s.993-1.216.993-2.233-.341-1.715-1.013-2.144c-.672-.419-1.715-.638-3.13-.638h-1.334z"/></g><path fill="#333" d="M0 0v-1h-1v1zm362 0h1v-1h-1zM0 0v1h362v-2H0zm362 0h-1v227h2V0zM0 227h1V0h-2v227z" mask="url(#b)"/><path fill="#DD4B39" stroke="#111729" d="M30 39v70.186c0 .449.365.814.814.814h4.795a8.77 8.77 0 0 1 5.9 2.281l3.311 3.01a18.106 18.106 0 0 0 24.36 0l3.311-3.01a8.77 8.77 0 0 1 5.9-2.281h4.795c.45 0 .814-.365.814-.814V39a1 1 0 0 0-1-1H31a1 1 0 0 0-1 1Z"/><path fill="#111729" stroke="#111729" d="M92 39v70.186c0 .449.365.814.814.814h4.796a8.77 8.77 0 0 1 5.899 2.281l3.311 3.01a18.11 18.11 0 0 0 24.36 0l3.311-3.01a8.77 8.77 0 0 1 5.9-2.281h4.795a.815.815 0 0 0 .814-.814V39a1 1 0 0 0-1-1H93a1 1 0 0 0-1 1Z"/><path fill="#499C6C" stroke="#111729" d="M154 39v70.186c0 .449.365.814.814.814h4.795a8.77 8.77 0 0 1 5.9 2.281l3.311 3.01a18.11 18.11 0 0 0 24.36 0l3.311-3.01a8.77 8.77 0 0 1 5.9-2.281h4.795a.815.815 0 0 0 .814-.814V39a1 1 0 0 0-1-1h-52a1 1 0 0 0-1 1Z"/><path fill="#DD4B39" stroke="#111729" d="M216 39v70.186c0 .449.365.814.814.814h4.795a8.77 8.77 0 0 1 5.9 2.281l3.311 3.01a18.11 18.11 0 0 0 24.36 0l3.311-3.01a8.77 8.77 0 0 1 5.9-2.281h4.795a.815.815 0 0 0 .814-.814V39a1 1 0 0 0-1-1h-52a1 1 0 0 0-1 1Z"/><path fill="#111729" stroke="#111729" d="M278 39v70.186c0 .449.365.814.814.814h4.795a8.77 8.77 0 0 1 5.9 2.281l3.311 3.01a18.11 18.11 0 0 0 24.36 0l3.311-3.01a8.77 8.77 0 0 1 5.9-2.281h4.795a.815.815 0 0 0 .814-.814V39a1 1 0 0 0-1-1h-52a1 1 0 0 0-1 1Z"/><path fill="#fff" d="M60.78 86.84h-3.67V72.09c0-1.76.04-3.16.12-4.19-.24.25-.53.53-.88.83q-.525.45-3.51 2.88L51 69.28 57.72 64h3.06zm67.71.33h-15.48v-2.78l5.89-5.92c1.74-1.78 2.89-3.04 3.46-3.79.57-.74.98-1.45 1.24-2.1.26-.66.39-1.36.39-2.11 0-1.03-.31-1.84-.93-2.44-.62-.59-1.48-.89-2.57-.89-.88 0-1.72.16-2.54.48s-1.76.91-2.84 1.75l-1.98-2.42c1.27-1.07 2.5-1.83 3.7-2.28s2.47-.67 3.83-.67c2.12 0 3.83.55 5.11 1.66s1.92 2.6 1.92 4.48c0 1.03-.19 2.01-.55 2.94-.37.93-.94 1.88-1.7 2.87s-2.04 2.32-3.82 3.99l-3.97 3.84v.16h10.84zm57.93-17.6c0 1.45-.42 2.65-1.27 3.62-.84.96-2.03 1.61-3.56 1.95v.12c1.83.23 3.21.8 4.12 1.71q1.38 1.365 1.38 3.63c0 2.2-.78 3.89-2.33 5.09-1.55 1.19-3.76 1.79-6.62 1.79-2.53 0-4.67-.41-6.41-1.23v-3.27c.97.48 1.99.85 3.08 1.11q1.62.39 3.12.39c1.77 0 3.09-.33 3.97-.98s1.31-1.67 1.31-3.05c0-1.22-.48-2.11-1.45-2.69-.97-.57-2.49-.86-4.56-.86h-1.98v-2.98h2.02c3.65 0 5.47-1.26 5.47-3.78 0-.98-.32-1.73-.95-2.27-.64-.53-1.57-.8-2.81-.8-.87 0-1.7.12-2.5.37s-1.75.72-2.84 1.43l-1.8-2.56c2.09-1.54 4.53-2.31 7.3-2.31 2.3 0 4.1.5 5.39 1.48 1.29.99 1.94 2.35 1.94 4.09zm64.67 12.61h-3.08v4.98h-3.58v-4.98h-10.44v-2.83l10.44-15.09h3.58v14.88h3.08v3.05zm-6.66-3.05V73.4c0-2.04.05-3.71.16-5.02h-.12c-.29.69-.75 1.52-1.38 2.5l-5.67 8.25h7.02zm61.11-6.24c2.3 0 4.12.61 5.47 1.83s2.02 2.88 2.02 4.98c0 2.44-.76 4.34-2.29 5.71s-3.7 2.05-6.51 2.05c-2.55 0-4.56-.41-6.02-1.23V82.9q1.26.72 2.91 1.11c1.09.26 2.11.39 3.05.39q2.49 0 3.78-1.11c.86-.74 1.3-1.82 1.3-3.25 0-2.73-1.74-4.09-5.22-4.09-.49 0-1.09.05-1.81.15s-1.35.21-1.89.34l-1.64-.97.88-11.16h11.88v3.27h-8.64l-.52 5.66c.36-.06.81-.13 1.34-.22.53-.08 1.17-.12 1.93-.12h-.02z"/><defs><clipPath id="a"><path fill="#fff" d="M0 0h362v227H0z"/></clipPath></defs></svg>