<svg xmlns="http://www.w3.org/2000/svg" width="137" height="208" fill="none"><path fill="#fff" d="M0 0h137v208H0z"/><path fill="#333" d="M33.726 172.999c0 2.274-.692 4.019-2.087 5.226-1.394 1.206-3.37 1.804-5.938 1.804h-1.886v7.529H19.43v-21.16h6.6q3.763-.002 5.719 1.655c1.304 1.107 1.956 2.753 1.956 4.946zm-9.901 3.361h1.444c1.345 0 2.358-.269 3.03-.818s1.003-1.336 1.003-2.383q0-1.57-.843-2.333c-.561-.499-1.444-.748-2.638-.748h-1.996zm32.251.588c0 3.5-.853 6.193-2.548 8.077s-4.133 2.822-7.303 2.822-5.598-.937-7.303-2.822c-1.705-1.884-2.548-4.587-2.548-8.107s.853-6.212 2.548-8.067c1.705-1.855 4.143-2.782 7.323-2.782s5.608.937 7.293 2.812q2.528 2.812 2.528 8.077zm-15.087 0c0 2.363.44 4.148 1.314 5.335.882 1.197 2.187 1.795 3.932 1.795 3.501 0 5.246-2.373 5.246-7.13s-1.735-7.15-5.216-7.15q-2.618-.002-3.942 1.805c-.883 1.207-1.334 2.982-1.334 5.345m39.203 10.61h-4.996l-2.799-11.118a65 65 0 0 1-.532-2.453c-.25-1.237-.39-2.075-.43-2.493q-.091.778-.422 2.512a67 67 0 0 1-.522 2.464l-2.789 11.088h-4.975l-5.277-21.16h4.314l2.648 11.547c.462 2.134.792 3.979 1.003 5.545.06-.549.19-1.406.391-2.553s.392-2.044.572-2.683l3.01-11.856h4.143l3.01 11.856c.13.529.3 1.337.49 2.434q.302 1.63.452 2.812c.09-.748.25-1.696.451-2.812a70 70 0 0 1 .562-2.733l2.629-11.547h4.313l-5.267 21.16zm19.451 0H87.735v-21.16h11.908v3.68h-7.524v4.646h7.002v3.68H92.12v5.455h7.524zm8.386-8.117v8.117h-4.384v-21.16h6.029c2.809 0 4.886.519 6.24 1.566 1.344 1.047 2.026 2.632 2.026 4.766 0 1.247-.331 2.353-1.003 3.321-.672.967-1.615 1.725-2.839 2.283 3.11 4.757 5.136 7.828 6.079 9.224h-4.865l-4.936-8.117zm0-3.65h1.414c1.385 0 2.408-.239 3.07-.708s.993-1.216.993-2.233-.341-1.715-1.013-2.144c-.672-.419-1.715-.638-3.13-.638h-1.334z"/><path fill="#677488" d="M21.989 152.288h93.453c1.104 0 1.997-.917 1.997-2.044V53.209c0-1.127-.893-2.044-1.997-2.044H94.848c-1.104 0-1.997-.918-1.997-2.044V14.319c0-1.126-.892-2.044-1.996-2.044H45.673c-1.103 0-1.996.918-1.996 2.044v34.632c0 1.127-.893 2.044-1.996 2.044H21.558c-1.104 0-2.007.918-1.997 2.055l.442 97.214c0 1.127.903 2.034 1.996 2.034z"/><path fill="#333" d="M115.442 152.797H21.989c-1.374 0-2.488-1.137-2.498-2.543L19.05 53.04c0-.688.25-1.327.732-1.815a2.45 2.45 0 0 1 1.766-.748H41.67c.822 0 1.495-.688 1.495-1.536V14.32c0-1.406 1.123-2.552 2.497-2.552h45.182c1.374 0 2.498 1.146 2.498 2.552v34.802c0 .847.672 1.535 1.495 1.535h20.594c1.375 0 2.498 1.147 2.498 2.553v97.035c0 1.406-1.123 2.553-2.498 2.553zM21.558 51.504c-.402 0-.783.16-1.064.449a1.56 1.56 0 0 0-.441 1.086l.441 97.215c0 .837.672 1.525 1.495 1.525h93.453c.823 0 1.495-.688 1.495-1.535V53.209c0-.848-.672-1.536-1.495-1.536H94.848c-1.375 0-2.498-1.146-2.498-2.552V14.319c0-.847-.672-1.535-1.495-1.535H45.673c-.822 0-1.494.688-1.494 1.535v34.632c0 1.406-1.124 2.553-2.498 2.553z"/><path fill="#fff" d="M79.96 58.943V35.609H56.609v23.334H26.694v85.567h83.181V58.943z"/><path fill="#333" d="M110.376 145.019H26.192V58.434h29.914V35.101h24.357v23.333h29.913zm-83.19-1.017h82.187v-84.54H79.459V36.126H57.1V59.46H27.185z"/><path fill="#DD4B39" d="M34.247 66.72v31.122h20.174l10.081-10.37V66.72z"/><path fill="#333" d="M54.631 98.351H33.756V66.212h31.248v21.47zM34.75 97.324h19.46L64 87.253V67.229H34.75zm67.561-30.604v31.122H82.148l-10.082-10.37V66.72z"/><path fill="#333" d="M102.813 98.351H81.937l-10.372-10.67V66.212h31.248zm-20.454-1.027h19.461V67.229H72.568v20.024z"/><path fill="#499C6C" d="M64.502 105.62v31.112H44.34l-10.092-10.37V105.62z"/><path fill="#333" d="M65.004 137.241H44.128l-10.372-10.67v-21.469h31.248zm-20.464-1.017H64v-30.095H34.75v20.023z"/><path fill="#FBBF24" d="M72.066 105.62v31.112H92.23l10.081-10.37V105.62z"/><path fill="#333" d="M92.44 137.241H71.565v-32.139h31.248v21.469zm-19.872-1.017h19.46l9.792-10.072v-20.023H72.568z"/><path fill="#fff" d="M90.815 89.137h-9.67v-1.775l3.681-3.78c1.084-1.136 1.806-1.944 2.157-2.422s.612-.928.772-1.346q.241-.63.241-1.347c0-.658-.19-1.176-.581-1.555-.392-.38-.923-.569-1.606-.569-.541 0-1.073.1-1.585.31-.511.209-1.103.578-1.765 1.116l-1.234-1.545c.793-.688 1.565-1.167 2.307-1.456a6.5 6.5 0 0 1 2.388-.429c1.324 0 2.387.36 3.19 1.067.802.708 1.204 1.665 1.204 2.862 0 .658-.12 1.286-.351 1.875a7.6 7.6 0 0 1-1.064 1.834c-.481.629-1.274 1.476-2.387 2.553l-2.478 2.453v.1h6.771v2.064zm.512 35.28H89.4v3.181h-2.237v-3.181h-6.52v-1.805l6.52-9.643H89.4v9.504h1.926zm-4.153-1.944v-3.66c0-1.306.03-2.373.1-3.201h-.08c-.18.439-.472.967-.863 1.595l-3.541 5.266zM51.281 89.137h-2.297v-9.423c0-1.127.03-2.014.08-2.672-.15.16-.33.338-.552.528-.22.19-.943.808-2.187 1.835l-1.153-1.486 4.193-3.37h1.916zm2.408 27.233c0 .927-.261 1.695-.793 2.313s-1.264 1.027-2.227 1.247v.08c1.144.149 2.006.508 2.578 1.096.572.579.863 1.357.863 2.324 0 1.406-.482 2.483-1.455 3.251-.973.757-2.347 1.146-4.133 1.146-1.585 0-2.909-.259-4.002-.787v-2.084a9 9 0 0 0 1.926.708 8 8 0 0 0 1.946.249c1.103 0 1.936-.21 2.478-.628.541-.419.822-1.067.822-1.945 0-.778-.3-1.346-.903-1.715-.601-.369-1.554-.548-2.849-.548h-1.233v-1.905h1.254c2.277 0 3.41-.808 3.41-2.413 0-.628-.2-1.107-.592-1.446-.39-.339-.983-.509-1.755-.509q-.812 0-1.565.24c-.502.159-1.093.458-1.776.917l-1.123-1.635c1.304-.988 2.829-1.476 4.554-1.476 1.435 0 2.558.319 3.36.947.803.628 1.215 1.506 1.215 2.613z"/></svg>