<svg xmlns="http://www.w3.org/2000/svg" width="362" height="227" fill="none"><path fill="#FF4545" d="M0 0h362v227H0z"/><g clip-path="url(#a)"><mask id="b" fill="#fff"><path d="M0 0h362v227H0z"/></mask><path fill="#E2E7EE" d="M0 0h362v227H0z"/><path fill="#fff" d="M149.78 61.09h-3.67v-9.848q0-1.764.12-2.798c-.24.167-.53.354-.88.554q-.525.3-3.51 1.923L140 49.366l6.72-3.525h3.06zm67.71.447h-15.48v-1.856l5.89-3.953c1.74-1.188 2.89-2.03 3.46-2.53.57-.494.98-.968 1.24-1.402q.39-.659.39-1.409 0-1.029-.93-1.629c-.62-.394-1.48-.594-2.57-.594-.88 0-1.72.107-2.54.32s-1.76.608-2.84 1.169l-1.98-1.616c1.27-.714 2.5-1.222 3.7-1.522s2.47-.447 3.83-.447c2.12 0 3.83.367 5.11 1.108q1.92 1.11 1.92 2.991c0 .688-.19 1.342-.55 1.963-.37.62-.94 1.255-1.7 1.916s-2.04 1.549-3.82 2.664l-3.97 2.564v.106h10.84z"/><path fill="#fff" stroke="#000" d="M362.5 155.5v71H-.5v-71z"/><path fill="#499C6C" stroke="#111729" d="M120 39v70.186c0 .449.365.814.814.814h4.795a8.77 8.77 0 0 1 5.9 2.281l3.311 3.01a18.11 18.11 0 0 0 24.36 0l3.311-3.01a8.77 8.77 0 0 1 5.9-2.281h4.795a.815.815 0 0 0 .814-.814V39a1 1 0 0 0-1-1h-52a1 1 0 0 0-1 1Zm62 0v70.186c0 .449.365.814.814.814h4.795a8.77 8.77 0 0 1 5.9 2.281l3.311 3.01a18.11 18.11 0 0 0 24.36 0l3.311-3.01a8.77 8.77 0 0 1 5.9-2.281h4.795a.815.815 0 0 0 .814-.814V39a1 1 0 0 0-1-1h-52a1 1 0 0 0-1 1Z"/><path fill="#fff" d="M148.78 87.17h-3.67V72.42c0-1.76.04-3.16.12-4.19-.24.25-.53.53-.88.83q-.525.45-3.51 2.88L139 69.61l6.72-5.28h3.06zm67.71 0h-15.48v-2.78l5.89-5.92c1.74-1.78 2.89-3.04 3.46-3.79.57-.74.98-1.45 1.24-2.1.26-.66.39-1.36.39-2.11 0-1.03-.31-1.84-.93-2.44-.62-.59-1.48-.89-2.57-.89-.88 0-1.72.16-2.54.48s-1.76.91-2.84 1.75l-1.98-2.42c1.27-1.07 2.5-1.83 3.7-2.28s2.47-.67 3.83-.67c2.12 0 3.83.55 5.11 1.66s1.92 2.6 1.92 4.48c0 1.03-.19 2.01-.55 2.94-.37.93-.94 1.88-1.7 2.87s-2.04 2.32-3.82 3.99l-3.97 3.84v.16h10.84z"/></g><path fill="#333" d="M0 0v-1h-1v1zm362 0h1v-1h-1zM0 0v1h362v-2H0zm362 0h-1v227h2V0zM0 227h1V0h-2v227z" mask="url(#b)"/><path fill="#20293A" d="m221.794 189.562 4.766-9.406h5.219l-7.578 13.953V203h-4.813v-8.734l-7.578-14.11h5.25zM205.936 203l-1.657-5.438h-8.328L194.295 203h-5.219l8.063-22.938h5.922L211.154 203zm-2.813-9.5a5436 5436 0 0 1-2.594-8.359 26 26 0 0 1-.406-1.532q-.516 2.001-2.953 9.891zm-29.905 9.5v-22.844h4.843V199h9.266v4zm-5.422 0H154.64v-22.844h13.156v3.969h-8.312v5.016h7.734v3.968h-7.734V199h8.312zm-30.077-12.703h1.562q2.297 0 3.391-.766 1.094-.765 1.094-2.406 0-1.625-1.125-2.313-1.11-.687-3.453-.687h-1.469zm0 3.937V203h-4.844v-22.844h6.656q4.656 0 6.891 1.703 2.234 1.688 2.234 5.141 0 2.016-1.109 3.594-1.11 1.562-3.141 2.453 5.156 7.703 6.719 9.953h-5.375l-5.453-8.766z"/><defs><clipPath id="a"><path fill="#fff" d="M0 0h362v227H0z"/></clipPath></defs></svg>