<svg xmlns="http://www.w3.org/2000/svg" viewBox="0 0 56.48 56.48" xmlns:v="https://vecta.io/nano"><circle cx="28.24" cy="28.24" r="26.24" fill="#b9da93"/><path d="M28.24,56.48A28.24,28.24,0,1,1,56.48,28.24,28.27,28.27,0,0,1,28.24,56.48ZM28.24,4A24.24,24.24,0,1,0,52.48,28.24,24.26,24.26,0,0,0,28.24,4Z" fill="#419945"/><circle cx="28.24" cy="28.24" r="17.92" fill="#b9da93"/><g fill="#419945"><path d="M28.24,48.16A19.92,19.92,0,1,1,48.16,28.24,19.95,19.95,0,0,1,28.24,48.16Zm0-35.84A15.92,15.92,0,1,0,44.16,28.24,15.94,15.94,0,0,0,28.24,12.32Z"/><circle cx="28.24" cy="28.24" r="2.11"/></g></svg>