<svg xmlns="http://www.w3.org/2000/svg" viewBox="0 0 41.359 64.18" xmlns:v="https://vecta.io/nano"><rect x="2.128" y="2.098" width="37.104" height="59.983" rx="9.243" fill="#dad593"/><path d="M29.989 64.081H11.37A11.255 11.255 0 0 1 .127 52.839V11.341A11.255 11.255 0 0 1 11.37.099h18.618a11.255 11.255 0 0 1 11.242 11.242v41.498a11.255 11.255 0 0 1-11.242 11.242zM11.37 4.099a7.251 7.251 0 0 0-7.243 7.242v41.498a7.251 7.251 0 0 0 7.243 7.242h18.618a7.251 7.251 0 0 0 7.242-7.242V11.341a7.251 7.251 0 0 0-7.242-7.242z" fill="#998d41"/><rect x="2.145" y="12.412" width="13.017" height="39.357" rx="3.022" fill="#dad593"/><path d="M12.141 53.769H5.167a5.028 5.028 0 0 1-5.022-5.022V15.434a5.028 5.028 0 0 1 5.022-5.022h6.974a5.028 5.028 0 0 1 5.021 5.022v33.313a5.028 5.028 0 0 1-5.021 5.022zM5.167 14.411a1.024 1.024 0 0 0-1.022 1.022v33.313a1.024 1.024 0 0 0 1.022 1.022h6.974a1.023 1.023 0 0 0 1.021-1.022V15.434a1.023 1.023 0 0 0-1.021-1.022z" fill="#998d41"/></svg>