<svg xmlns="http://www.w3.org/2000/svg" viewBox="0 0 122.778 23.346" xmlns:v="https://vecta.io/nano"><rect x="2.279" y="2.072" width="118.22" height="19.203" rx="2.116" fill="#93aeda"/><g fill="#416699"><path d="M118.383 23.274H4.395a4.121 4.121 0 0 1-4.116-4.116V4.187A4.121 4.121 0 0 1 4.395.071h113.988a4.12 4.12 0 0 1 4.115 4.116v14.971a4.12 4.12 0 0 1-4.115 4.116zM4.395 4.071a.116.116 0 0 0-.116.116v14.971a.116.116 0 0 0 .116.116h113.988a.116.116 0 0 0 .115-.116V4.187a.116.116 0 0 0-.115-.116z"/><path d="M2.279 12.208h118.22v4H2.279z"/></g></svg>