<svg xmlns="http://www.w3.org/2000/svg" viewBox="0 0 51.33 51.33" xmlns:v="https://vecta.io/nano"><rect x="1.07" y="15.14" width="49.19" height="21.05" rx="3.42" fill="#dad593"/><path d="M46.84 36.69H4.49a3.93 3.93 0 0 1-3.92-3.92V18.56a3.93 3.93 0 0 1 3.92-3.92h42.35a3.93 3.93 0 0 1 3.92 3.92v14.21a3.93 3.93 0 0 1-3.92 3.92zm-42.35-21a2.92 2.92 0 0 0-2.92 2.92v14.16a2.92 2.92 0 0 0 2.92 2.92h42.35a2.92 2.92 0 0 0 2.92-2.92V18.56a2.92 2.92 0 0 0-2.92-2.92z" fill="#998d41"/><rect x="7.59" y="15.14" width="36.16" height="7.29" rx="1.11" fill="#dad593"/><path d="M42.64 22.94H8.7a1.62 1.62 0 0 1-1.61-1.61v-5.08a1.62 1.62 0 0 1 1.61-1.61h33.94a1.62 1.62 0 0 1 1.61 1.61v5.08a1.62 1.62 0 0 1-1.61 1.61zM8.7 15.64a.61.61 0 0 0-.61.61v5.08a.61.61 0 0 0 .61.61h33.94a.62.62 0 0 0 .61-.61v-5.08a.62.62 0 0 0-.61-.61z" fill="#998d41"/></svg>