<svg xmlns="http://www.w3.org/2000/svg" width="20" height="20" fill="#fff" xmlns:v="https://vecta.io/nano"><path d="M.167 19.83l3.872-3.941a.1.1 0 0 1 .171.07V19.5a.5.5 0 0 1-.5.5H.238a.1.1 0 0 1-.071-.17zm9.134-9.173l-4.01 4.213a.1.1 0 0 0-.028.069V19.9a.1.1 0 0 0 .1.1h3.611a.5.5 0 0 0 .5-.5v-8.774a.1.1 0 0 0-.172-.069zM19.829.174l-4.011 4.082a.1.1 0 0 0-.029.07V19.9a.1.1 0 0 0 .1.1H19.5a.5.5 0 0 0 .5-.5V.244a.1.1 0 0 0-.171-.07zm-9.274 9.321l4.011-4.082a.1.1 0 0 1 .171.07V19.5a.5.5 0 0 1-.5.5h-3.61a.1.1 0 0 1-.1-.1V9.565a.1.1 0 0 1 .029-.07z"/></svg>