<svg xmlns="http://www.w3.org/2000/svg" width="16" height="22" fill="none" xmlns:v="https://vecta.io/nano"><path fill-rule="evenodd" d="M2 0a2 2 0 0 0-2 2v17.815a2 2 0 0 0 2 2h11.5a2 2 0 0 0 2-2V7.363L7.176 0H2zm3.59 10.988a.65.65 0 0 1 .071.917l-1.36 1.586 1.36 1.586a.65.65 0 0 1-.987.846l-1.722-2.009-.363-.423.363-.423 1.722-2.009a.65.65 0 0 1 .917-.071zm4.083 4.089a.65.65 0 0 0 .987.846l1.722-2.009.363-.423-.363-.423-1.722-2.009a.65.65 0 0 0-.987.846l1.36 1.586-1.36 1.586z" fill="#fff"/></svg>