<svg xmlns="http://www.w3.org/2000/svg" id="Layer_1" data-name="Layer 1" viewBox="0 0 100.458 171.029"><defs><style>.cls-3,.cls-9{stroke-width:0}.cls-9{fill:#fff}</style></defs><path d="M75.373 44.641V1.606c0-.863-.7-1.562-1.563-1.562H26.648c-.863 0-1.563.7-1.563 1.562v43.035c0 .864-.7 1.563-1.563 1.563H1.606c-.863 0-1.563.7-1.563 1.563v87.084c0 .863.7 1.563 1.563 1.563h97.246c.863 0 1.562-.7 1.562-1.563V47.767c0-.863-.7-1.563-1.562-1.563H76.936c-.863 0-1.563-.7-1.563-1.563" style="fill:#605f5d;stroke-width:0"/><path d="M98.852 136.457H1.606c-.885 0-1.606-.72-1.606-1.606V47.767c0-.886.72-1.606 1.606-1.606h21.916c.838 0 1.52-.682 1.52-1.52V1.606c0-.885.72-1.606 1.606-1.606H73.81c.886 0 1.606.72 1.606 1.606v43.035c0 .838.682 1.52 1.52 1.52h21.916c.885 0 1.606.72 1.606 1.606v87.084c0 .886-.72 1.606-1.606 1.606M1.606 46.247c-.837 0-1.519.682-1.519 1.52v87.084c0 .838.682 1.52 1.52 1.52h97.245c.837 0 1.519-.682 1.519-1.52V47.767c0-.838-.682-1.52-1.52-1.52H76.937c-.886 0-1.606-.72-1.606-1.606V1.606c0-.837-.682-1.519-1.52-1.519H26.648a1.52 1.52 0 0 0-1.52 1.52V44.64c0 .886-.72 1.607-1.606 1.607z" class="cls-3"/><path d="M3.314 48.92h93.83v84.779H3.314z" class="cls-9"/><path d="M97.187 133.742H3.27V48.876h93.917zm-93.83-.087h93.744V48.963H3.357z" class="cls-3"/><path d="M41.932 32.326h16.594V48.92H41.932z" style="stroke-width:0;fill:#ecebe7"/><path d="M58.569 48.963h-16.68v-16.68h16.68zm-16.594-.087h16.507V32.369H41.975z" class="cls-3"/><path d="M91.804 48.92v82.292H8.654V48.92h-5.34v84.778h93.83V48.92z" style="stroke-width:0;fill:#777576"/><path d="M97.187 133.742H3.27V48.876h5.427v82.292h83.064V48.876h5.426zm-93.83-.087H97.1V48.963h-5.253v82.292H8.61V48.963H3.357z" class="cls-3"/><path d="M38.52 89.03H15.825V56.787h31.697v23.288z" style="stroke-width:0;fill:#ab3333"/><path d="M38.537 89.074H15.782v-32.33h31.784v23.35l-.013.012zm-22.668-.087h22.632l8.978-8.93V56.83H15.87z" class="cls-3"/><path d="M52.992 80.027v-23.24h31.584V89.03h-22.63z" style="stroke-width:0;fill:#2a2a2a"/><path d="M84.619 89.074h-22.69l-.013-.013-8.967-9.016V56.743h31.67zm-22.654-.087h22.567V56.83H53.035v23.18z" class="cls-3"/><path d="M75.629 125.83H52.935V93.589h31.697v23.288z" style="stroke-width:0;fill:#d7ab12"/><path d="M75.647 125.874H52.892v-32.33h31.784v23.35l-.013.013zm-22.668-.087H75.61l8.978-8.93V93.632h-31.61z" class="cls-3"/><path d="M15.882 116.828v-23.24h31.584v32.243H24.837z" style="stroke-width:0;fill:#063"/><path d="M47.509 125.874h-22.69l-.013-.013-8.967-9.016v-23.3h31.67zm-22.654-.087h22.567V93.631H15.926v23.179z" class="cls-3"/><path d="M33.084 81.125h-1.686V70.073q0-1.378.084-2.61-.219.224-.49.468-.27.244-2.475 2.068l-.915-1.21 4.025-3.17h1.457zm41.934 0h-9.996V79.61l4.005-4.105q1.83-1.888 2.413-2.694t.874-1.57a4.6 4.6 0 0 0 .291-1.644q0-1.24-.739-1.968-.738-.726-2.049-.726-.946 0-1.794.318c-.848.318-1.195.598-1.888 1.156l-.915-1.198q2.1-1.782 4.576-1.782 2.144 0 3.36 1.119 1.218 1.119 1.217 3.007 0 1.474-.81 2.916-.813 1.442-3.038 3.65l-3.329 3.32v.084h7.822zM36.11 105.5q0 1.485-.816 2.43c-.816.945-1.316 1.05-2.314 1.262v.085q1.83.233 2.715 1.188.884.954.884 2.503 0 2.216-1.509 3.41c-1.509 1.194-2.434 1.193-4.285 1.193q-1.207 0-2.21-.185a7.5 7.5 0 0 1-1.95-.653v-1.675q.987.498 2.105.758 1.12.26 2.117.26 3.942 0 3.943-3.15 0-2.822-4.348-2.822h-1.498v-1.517h1.518q1.779 0 2.82-.8 1.04-.801 1.04-2.222 0-1.135-.765-1.782-.764-.648-2.075-.647a6.3 6.3 0 0 0-1.883.275q-.885.275-2.018 1.019l-.874-1.188q.936-.754 2.158-1.183c1.222-.43 1.673-.43 2.575-.43q2.216 0 3.443 1.034t1.228 2.838m37.991 8.294h-2.257v3.564H70.19v-3.564h-7.396v-1.538l7.219-10.49h1.83v10.427h2.258zm-3.911-1.601v-5.155q0-1.517.104-3.426h-.083a16 16 0 0 1-.936 1.686l-4.754 6.895z" class="cls-9"/><path d="M4.66 162.637v7.16c0 .6-.2.866-.8.866H.965c-.6 0-.8-.267-.8-.866v-20.912c0-.599.2-.865.8-.865h6.992c6.027 0 8.058 2.63 8.058 5.427v3.763c0 2.797-2.03 5.427-8.058 5.427zm0-10.888v7.16h3.296c2.231 0 3.597-.833 3.597-2.465v-2.198c0-1.665-1.366-2.497-3.597-2.497zm14.45 1.431c0-2.796 2.065-5.427 8.091-5.427 6.028 0 8.092 2.63 8.092 5.428v12.32c0 2.797-2.064 5.428-8.092 5.428-6.026 0-8.09-2.63-8.09-5.428zm11.688.8c0-1.665-1.365-2.497-3.597-2.497-2.23 0-3.563.832-3.563 2.497v10.722c0 1.665 1.333 2.498 3.563 2.498 2.232 0 3.597-.833 3.597-2.498zm25.639 6.193c.266 1.133.5 2.997.533 3.297.033-.233.233-1.798.599-3.263l2.864-11.355c.133-.533.4-.832.965-.832h2.531c.6 0 .766.3.633.832l-5.295 20.978c-.133.566-.466.833-1.032.833h-2.83c-.5 0-.8-.3-.933-.833l-2.93-11.588c-.2-.732-.433-2.664-.466-3.03-.034.333-.3 2.364-.466 3.03l-2.93 11.588c-.134.566-.434.833-1.033.833h-2.83c-.5 0-.8-.3-.933-.833l-5.294-20.978c-.133-.533.033-.832.633-.832h2.963c.566 0 .833.3.966.832l2.797 11.355c.3 1.232.533 2.797.533 2.797s.166-1.099.599-2.797l2.864-11.355c.133-.533.4-.832.998-.832h2.698c.6 0 .866.3.999.832zm11.72 10.49c-.6 0-.8-.267-.8-.866v-20.912c0-.599.2-.865.8-.865h11.388c.566 0 .832.2.832.799v2.098c0 .599-.266.832-.832.832h-7.692v5.394h7.126c.6 0 .866.2.866.8v1.997c0 .566-.267.8-.866.8h-7.126v6.193h8.025c.6 0 .832.2.832.8v2.097c0 .6-.233.833-.832.833zm20.743-8.625v7.759c0 .6-.199.866-.798.866h-2.897c-.6 0-.8-.267-.8-.866v-20.912c0-.599.2-.865.8-.865h6.992c6.028 0 8.059 2.63 8.059 5.427v3.164c0 1.964-1 3.829-3.663 4.794l3.596 8.392c.233.532-.166.866-.766.866h-2.93c-.466 0-.6-.334-.832-.866l-3.264-7.759zm0-10.29v6.56h3.297c2.232 0 3.597-.832 3.597-2.497v-1.565c0-1.665-1.365-2.497-3.597-2.497z" style="stroke:#000;stroke-miterlimit:10;stroke-width:.2px;fill:#605f5d"/></svg>