<svg xmlns="http://www.w3.org/2000/svg" width="11" height="7" fill="none" xmlns:v="https://vecta.io/nano"><g clip-path="url(#A)"><path d="M10.417.208a.73.73 0 0 0-.503-.202.73.73 0 0 0-.504.201L5.312 4.306 1.214.208A.71.71 0 0 0 .711 0a.71.71 0 0 0-.503.208.71.71 0 0 0-.208.503.71.71 0 0 0 .208.503l4.601 4.6a.71.71 0 0 0 .503.209.71.71 0 0 0 .503-.209l4.601-4.6a.71.71 0 0 0 .155-.231c.036-.086.054-.179.054-.272a.71.71 0 0 0-.208-.503h0z" fill="#444"/></g><defs><clipPath id="A"><path fill="#fff" transform="matrix(-1 0 0 -1 10.6245 6.02344)" d="M0 0h10.625v6.023H0z"/></clipPath></defs></svg>