<svg xmlns="http://www.w3.org/2000/svg" width="36" height="33" fill="none" stroke="#0054a6" stroke-width=".75" xmlns:v="https://vecta.io/nano"><path d="M.625 32.625h3.329a.25.25 0 0 0 .25-.25V24.31a.25.25 0 0 0-.25-.25H.625a.25.25 0 0 0-.25.25v8.065a.25.25 0 0 0 .25.25z" fill="#0054a6"/><path d="M8.324 32.625h3.329a.25.25 0 0 0 .25-.25V18.389a.25.25 0 0 0-.25-.25H8.324a.25.25 0 0 0-.25.25v13.986a.25.25 0 0 0 .25.25zm7.692 0h3.329a.25.25 0 0 0 .25-.25V12.468a.25.25 0 0 0-.25-.25h-3.329a.25.25 0 0 0-.25.25v19.907a.25.25 0 0 0 .25.25zm7.609 0h3.329a.25.25 0 0 0 .25-.25V5.955a.25.25 0 0 0-.25-.25h-3.329a.25.25 0 0 0-.25.25v26.42a.25.25 0 0 0 .25.25zm8.058 0h3.635c.139 0 .307-.134.307-.37V.745c0-.236-.168-.37-.307-.37h-3.635c-.139 0-.308.134-.308.37v31.509c0 .236.168.37.308.37z"/></svg>