<svg xmlns="http://www.w3.org/2000/svg" viewBox="0 0 52.8 72.3" fill="none" stroke="#0054a6" stroke-miterlimit="10" xmlns:v="https://vecta.io/nano"><path d="M30.3 7.6h7.6c1.3 0 2.4 1.1 2.4 2.4v8.8M12.5 60.1h-9c-1.3 0-2.4-1.1-2.4-2.4V10c0-1.3 1.1-2.4 2.4-2.4h7.7"/><path d="M49.2 71.3H14.8c-1.3 0-2.4-1.1-2.4-2.4V21.2c0-1.3 1.1-2.4 2.4-2.4h34.4c1.3 0 2.4 1.1 2.4 2.4V69c0 1.3-1.1 2.3-2.4 2.3z"/><g stroke-linecap="round"><path d="M18.5 39.4h27.1M18.5 50.7h27.1"/><path d="M18.5 62.1h27.1m-27.1-34h27.1"/></g><path d="M24.7 4.2c-.4 0-.7-.2-.7-.5-.3-1.6-1.6-2.7-3.3-2.7s-3 1.2-3.3 2.7c-.1.3-.4.6-.7.6h-4.9a.68.68 0 0 0-.7.7v5.2a.68.68 0 0 0 .7.7h17.6a.68.68 0 0 0 .7-.7V5a.68.68 0 0 0-.7-.7h-4.7z"/></svg>