<svg xmlns="http://www.w3.org/2000/svg" width="16" height="16" fill="none" xmlns:v="https://vecta.io/nano"><path d="M8 16A8 8 0 1 0 8 0a8 8 0 1 0 0 16z" fill="#0054a6"/><path d="M8.042 3h-.044c-.792 0-1.543.278-2.104.786C5.32 4.302 5 4.992 5 5.726c0 .375.334.681.752.681s.752-.302.752-.681c0-.367.16-.714.445-.968a1.57 1.57 0 0 1 1.072-.391c.792.008 1.468.621 1.477 1.339.004.484-.254.919-.707 1.177-.97.544-1.543 1.456-1.543 2.435 0 .375.334.681.752.681s.752-.302.752-.681c0-.508.316-.984.836-1.278.903-.512 1.432-1.387 1.414-2.347-.029-1.467-1.35-2.669-2.96-2.693zM8 11c-.55 0-1 .372-1 .839v.323c0 .461.444.839 1 .839.55 0 1-.372 1-.839v-.323C9 11.372 8.55 11 8 11z" fill="#fff"/></svg>