<svg xmlns="http://www.w3.org/2000/svg" width="17" height="11" fill="none" xmlns:v="https://vecta.io/nano"><g fill="#afafaf"><path d="M16.96 5.29l-.019-.043c-.754-1.548-1.927-2.858-3.393-3.787A9.41 9.41 0 0 0 8.5 0a9.41 9.41 0 0 0-5.049 1.46C1.991 2.386.821 3.689.067 5.23c-.085.16-.091.354-.009.522.754 1.548 1.927 2.858 3.393 3.788A9.41 9.41 0 0 0 8.5 11a9.41 9.41 0 0 0 5.049-1.46c1.466-.929 2.639-2.239 3.393-3.787a.58.58 0 0 0 .019-.463zM8.5 9.835c-3.031 0-5.846-1.692-7.251-4.335C2.654 2.857 5.469 1.165 8.5 1.165s5.846 1.692 7.251 4.335C14.346 8.142 11.531 9.835 8.5 9.835z"/><path d="M5.125 5.5A3.38 3.38 0 0 1 8.5 2.125 3.38 3.38 0 0 1 11.875 5.5 3.38 3.38 0 0 1 8.5 8.875 3.38 3.38 0 0 1 5.125 5.5zm1.345 0c0 1.119.911 2.03 2.03 2.03s2.03-.911 2.03-2.03-.911-2.03-2.03-2.03-2.03.911-2.03 2.03z" stroke="#fff" stroke-width=".25"/></g><path stroke="#afafaf" stroke-linecap="round" stroke-linejoin="round" d="M.689.841l15.152 9.47"/></svg>