<svg xmlns="http://www.w3.org/2000/svg" width="17" height="11" fill="#afafaf" xmlns:v="https://vecta.io/nano"><path d="M16.96 5.29l-.019-.043c-.754-1.548-1.927-2.858-3.393-3.787A9.41 9.41 0 0 0 8.5 0a9.41 9.41 0 0 0-5.049 1.46C1.991 2.386.821 3.689.067 5.23c-.085.16-.091.354-.009.522.754 1.548 1.927 2.858 3.393 3.788A9.41 9.41 0 0 0 8.5 11a9.41 9.41 0 0 0 5.049-1.46c1.466-.929 2.639-2.239 3.393-3.787a.58.58 0 0 0 .019-.463zM8.5 9.835c-3.031 0-5.846-1.692-7.251-4.335C2.654 2.857 5.469 1.165 8.5 1.165s5.846 1.692 7.251 4.335C14.346 8.142 11.531 9.835 8.5 9.835z"/><path d="M8.5 2C6.57 2 5 3.57 5 5.5S6.57 9 8.5 9 12 7.43 12 5.5 10.43 2 8.5 2zm0 5.405A1.91 1.91 0 0 1 6.595 5.5 1.91 1.91 0 0 1 8.5 3.595 1.91 1.91 0 0 1 10.405 5.5 1.91 1.91 0 0 1 8.5 7.405z" stroke="#fff" stroke-width=".25"/></svg>