<svg xmlns="http://www.w3.org/2000/svg" viewBox="0 0 20.234 20.234" width="512" height="512" xmlns:v="https://vecta.io/nano"><path d="M6.776 4.72h1.549v6.827H6.776V4.72zm4.975-.051c-.942 0-1.61.061-2.087.143v6.735h1.53V9.106a3.93 3.93 0 0 0 .527.031c.911 0 1.691-.224 2.218-.721.405-.386.628-.952.628-1.621s-.295-1.234-.729-1.579c-.456-.365-1.136-.547-2.087-.547zm-.042 3.281c-.222 0-.385-.01-.516-.041V5.895c.111-.03.324-.061.639-.061.769 0 1.205.375 1.205 1.002 0 .699-.507 1.114-1.328 1.114zM10.117 0A8.32 8.32 0 0 0 1.8 8.316c0 4.593 8.317 11.918 8.317 11.918s8.317-7.324 8.317-11.917A8.32 8.32 0 0 0 10.117 0zm.021 13.373c-3.05 0-5.522-2.473-5.522-5.524s2.473-5.522 5.522-5.522S15.66 4.8 15.66 7.849s-2.472 5.524-5.522 5.524z" fill="#0054a6"/></svg>