<svg xmlns="http://www.w3.org/2000/svg" width="19" height="16" fill="#fff" stroke="#fff" stroke-width=".25" xmlns:v="https://vecta.io/nano"><path d="M9.801 15.327c-.863 0-1.566-.706-1.566-1.574a1.57 1.57 0 0 1 1.566-1.573c.863 0 1.566.706 1.566 1.573s-.703 1.574-1.566 1.574zm0-2.6c-.563 0-1.021.46-1.021 1.026s.458 1.027 1.021 1.027 1.022-.461 1.022-1.027-.458-1.026-1.022-1.026zm3.598-2.315c-.07 0-.139-.027-.193-.08-.91-.914-2.119-1.418-3.406-1.418a4.77 4.77 0 0 0-3.405 1.418.27.27 0 0 1-.385 0c-.106-.107-.106-.28 0-.387A5.31 5.31 0 0 1 9.8 8.367a5.31 5.31 0 0 1 3.791 1.578c.106.107.106.28 0 .387a.27.27 0 0 1-.192.08zm2.559-2.571c-.07 0-.139-.027-.193-.08a8.42 8.42 0 0 0-11.929 0 .27.27 0 0 1-.385 0c-.106-.107-.106-.28 0-.387 3.501-3.518 9.199-3.518 12.7 0 .106.107.106.28 0 .387-.053.053-.123.08-.193.08zm2.56-2.571c-.07 0-.14-.027-.193-.08C13.626.469 5.978.468 1.277 5.19a.27.27 0 0 1-.385 0c-.106-.107-.106-.28 0-.387 4.913-4.936 12.906-4.935 17.818 0 .106.107.106.28 0 .387a.27.27 0 0 1-.192.08z"/></svg>