<svg xmlns="http://www.w3.org/2000/svg" width="11" height="18" fill="none" xmlns:v="https://vecta.io/nano"><path d="M5.52 17.183a.36.36 0 0 1-.137-.026c-.134-.053-.221-.181-.221-.322V9.625L1.47 12.917c-.144.13-.37.121-.505-.021s-.124-.362.021-.492l4.004-3.57-4.004-3.57c-.145-.13-.155-.35-.021-.492s.36-.15.505-.021l3.692 3.293V.832c0-.141.087-.268.221-.322s.287-.024.39.075l4.292 4.175a.34.34 0 0 1 .105.253c-.002.095-.044.185-.116.249L6.05 8.834l4.004 3.57c.072.064.114.155.116.249s-.036.186-.105.253l-4.292 4.175c-.069.067-.16.102-.253.102zm.357-7.559v6.371l3.417-3.324-3.417-3.047zm0-7.954v6.371l3.417-3.047-3.417-3.324z" fill="#fff"/></svg>