<svg xmlns="http://www.w3.org/2000/svg" width="12" height="16" fill="#fff" xmlns:v="https://vecta.io/nano"><path d="M11.778 4.022L8.678.929a.31.31 0 0 0-.219-.091H1.951a1.24 1.24 0 0 0-1.24 1.237v12.37a1.24 1.24 0 0 0 1.24 1.237h8.679a1.24 1.24 0 0 0 1.24-1.237V4.241a.31.31 0 0 0-.091-.219zm-.529 10.424a.62.62 0 0 1-.62.619H1.951a.62.62 0 0 1-.62-.619V2.076a.62.62 0 0 1 .62-.619H8.33l2.919 2.911v10.077zM2.57 7.333V12.9a.93.93 0 0 0 .93.928h5.579a.93.93 0 0 0 .93-.928V7.333a.93.93 0 0 0-.93-.928H3.5a.93.93 0 0 0-.93.928zm2.17 5.876H3.5a.31.31 0 0 1-.31-.309v-1.237h1.55v1.546h0zm2.48 0H5.36v-1.546h1.86v1.546zm2.17-.309a.31.31 0 0 1-.31.309H7.84v-1.856a.31.31 0 0 0-.31-.309H3.19V9.189h6.199V12.9h0zM7.84 7.024h1.24a.31.31 0 0 1 .31.309V8.57H7.84V7.024h0zm-2.48 0h1.86V8.57H5.36V7.024zM4.74 8.57H3.19V7.333a.31.31 0 0 1 .31-.309h1.24V8.57h0z"/></svg>