<svg xmlns="http://www.w3.org/2000/svg" width="32" height="32" fill="none" xmlns:v="https://vecta.io/nano"><circle cx="16" cy="16" r="16" fill="#404040"/><path d="M11.868 11.525S14.302 8 17.934 8c3.786 0 6.027 3.525 6.027 3.525m-9.452 1.181s1.379-1.882 3.437-1.882c2.145 0 3.415 1.882 3.415 1.882" stroke="#fff" stroke-width="1.4" stroke-linecap="round"/><path fill-rule="evenodd" d="M17.2 14.857a.85.85 0 1 1 1.7 0v.852h3.864A1.24 1.24 0 0 1 24 16.949v5.811A1.24 1.24 0 0 1 22.764 24H8.236A1.24 1.24 0 0 1 7 22.76v-5.811a1.24 1.24 0 0 1 1.236-1.24H17.2v-.852zm1.314 4.998a.89.89 0 0 1-.889.891.89.89 0 1 1 0-1.782.89.89 0 0 1 .889.891zm2.589.891a.89.89 0 1 0 0-1.782.89.89 0 1 0 0 1.782z" fill="#fff"/></svg>