<svg xmlns="http://www.w3.org/2000/svg" width="36" height="36" preserveAspectRatio="xMidYMid meet" xmlns:v="https://vecta.io/nano"><path d="M33.91 18.47L30.78 8.41A2 2 0 0 0 28.87 7H7.13a2 2 0 0 0-1.91 1.41L2.09 18.48a2 2 0 0 0-.09.59V27a2 2 0 0 0 2 2h28a2 2 0 0 0 2-2v-7.94a2 2 0 0 0-.09-.59zM32 27H4v-7.94L7.13 9h21.74L32 19.06zM7.12 22h1.8v3h-1.8zm5 0h1.8v3h-1.8zm4.99 0h1.8v3h-1.8zm4.99 0h1.8v3h-1.8zm5 0h1.8v3h-1.8z" fill="#626262"/><path d="M6.23 18h23.69v1.4H6.23z"/><path fill="rgba(0, 0, 0, 0)" d="M0 0h36v36H0z"/></svg>