<svg xmlns="http://www.w3.org/2000/svg" width="16" height="16" preserveAspectRatio="xMidYMid meet" xmlns:v="https://vecta.io/nano"><path d="M15.385 6.115a.485.485 0 0 0-.048-.736A12.443 12.443 0 0 0 8 3 12.44 12.44 0 0 0 .663 5.379a.485.485 0 0 0-.048.736.518.518 0 0 0 .668.05A11.448 11.448 0 0 1 8 4a11.45 11.45 0 0 1 6.717 2.164c.204.148.489.13.668-.049zm-2.156 2.156c.216-.216.194-.578-.063-.745A9.456 9.456 0 0 0 8 6c-1.905 0-3.68.56-5.166 1.526a.48.48 0 0 0-.063.745.525.525 0 0 0 .652.065A8.46 8.46 0 0 1 8 7a8.46 8.46 0 0 1 4.577 1.336c.205.132.48.108.652-.065zm-2.183 2.183c.226-.226.185-.605-.1-.75A6.472 6.472 0 0 0 8 9a6.48 6.48 0 0 0-2.946.704c-.285.145-.326.524-.1.75l.015.015c.16.16.408.19.611.09A5.478 5.478 0 0 1 8 10a5.47 5.47 0 0 1 2.42.56.53.53 0 0 0 .611-.091l.015-.015zM9.06 12.44c.196-.196.198-.52-.04-.66a1.99 1.99 0 0 0-2.04 0c-.238.14-.236.464-.04.66l.706.706a.5.5 0 0 0 .708 0l.707-.707z"/><path fill="rgba(0, 0, 0, 0)" d="M0 0h16v16H0z"/></svg>