<svg xmlns="http://www.w3.org/2000/svg" width="156" height="31" fill="none"><path fill="#0054A6" d="m53.147 17.846-.695 2.167h7.312l-1.1 3.422H46.858L51.4 9.39h11.516l-1.086 3.36h-7.038l-.594 1.874h5.931l-1.047 3.223zm-20.821 3.991 4.446 4.505-4.446 4.508-4.448-4.508.005-.002-10.611-10.754.013-.011-.009-.008 6.134-6.404-3.592-3.528-9.652 10.085 9.8 9.932 3.632-3.683 4.444 4.506L23.574 31l-4.373-4.434-4.149 4.206-4.443-4.505.006-.004L0 15.509l.013-.013-.005-.005L10.46 4.58l-.006-.008L14.831 0l4.503 4.43 4.02-4.2 4.428 4.356 4.32-4.511 4.511 4.44-4.378 4.57-3.665-3.604-9.658 10.085 9.8 9.93zM14.957 9.002 11.3 5.406 1.642 15.487l9.801 9.93 3.318-3.358-6.235-6.324.009-.008-.009-.007zm54.935.387h-4.475l-4.542 14.046h10.971l1.204-3.731h-6.495zm-20.138 0H36.257l-1.195 3.692h4.578l-3.35 10.354h4.48l3.346-10.354h4.441zm66.509 0-2.137 6.62a11 11 0 0 0-.414 1.683l-.033.235-.241-1.096c-.021-.156-.033-.314-.046-.476a2 2 0 0 0-.088-.44l-1.94-6.526h-4.249l-4.54 14.046h4.245l2.116-6.583q.29-.896.409-1.683l.038-.23q.087.404.155.76c.135.794.211 1.211.216 1.25l1.969 6.486h4.245l4.544-14.046zm35.298 14.046.026-1.856h-5.194l-1.189 1.856h-3.647l-.253-.684 9.372-13.361h4.536L156 23.435zm.105-4.81-.139-4.861-3.275 4.861zm-6.264-9.236h-5.388l-6.264 4.648 1.5-4.648h-4.426l-4.541 14.046h4.418l1.451-4.475 1.863-1.153 2.036 5.628h4.773l.479-.684-3.039-8.186zm-42.431 6.23c-.051.187-.131.454-.253.802-.75 2.279-1.998 4.08-3.722 5.401q-2.586 1.98-6 1.98-2.922.001-4.33-1.535-1.409-1.527-1.002-4.204.1-.705.404-1.642 1.105-3.359 3.74-5.385c1.75-1.34 3.747-2.018 5.982-2.018q2.928.001 4.334 1.514c.944 1.006 1.277 2.405 1.007 4.186q-.096.628-.16.902m-4.406-.567c.114-.77.05-1.352-.202-1.758q-.45-.74-1.707-.741c-1.062 0-1.944.388-2.66 1.175q-.836.934-1.417 2.693-.11.332-.198.683a6 6 0 0 0-.14.684c-.117.769-.054 1.354.199 1.76.3.49.873.74 1.711.74q1.567.002 2.635-1.167.859-.942 1.433-2.7a9 9 0 0 0 .346-1.37m24.818-5.663-4.544 14.046h4.578l4.544-14.046zm-34.046 0h-13.49l-1.202 3.692h4.579l-3.35 10.354h4.481L83.7 13.081h4.44z"/></svg>